<svg width="245" height="248" viewBox="0 0 245 248" fill="none" xmlns="http://www.w3.org/2000/svg">
<path d="M56.88 59.1385C81.1255 34.4131 75.0252 24.7685 88.8135 10.0147C109.018 -11.6039 167.574 5.00834 195.682 29.2369C230.108 58.912 247.869 113.096 227.636 162.114C206.089 214.317 149.395 241.415 98.8068 233.249C53.6314 225.956 9.22262 189.88 4.77299 146.61C4.29104 141.921 -0.0722561 116.568 14.8604 94.7104C27.2029 76.6439 37.6627 78.7391 56.8826 59.1385H56.88Z" fill="#FFF5F1"/>
<path d="M108.904 204.562L106.5 228.413C106.422 229.191 105.862 229.777 105.197 229.777H104.492C103.812 229.777 103.246 229.166 103.185 228.369L101.069 200.568L108.903 204.563L108.904 204.562Z" fill="#FF5A24"/>
<path d="M48.6035 204.563L46.1568 228.851C46.1037 229.38 45.7225 229.778 45.2712 229.778H43.8087C43.3471 229.778 42.962 229.363 42.9205 228.82L40.7708 200.568L48.6048 204.563H48.6035Z" fill="#FF5A24"/>
<path d="M86.2424 204.591L83.7957 228.878C83.7426 229.407 83.3614 229.805 82.9102 229.805H81.4476C80.986 229.805 80.6009 229.391 80.5594 228.847L78.4097 200.596L86.2437 204.591H86.2424Z" fill="#FF5A24"/>
<path d="M16.2619 204.591L13.8153 228.878C13.7621 229.407 13.3809 229.805 12.9297 229.805H11.4671C11.0055 229.805 10.6204 229.391 10.579 228.847L8.4292 200.596L16.2632 204.591H16.2619Z" fill="#FF5A24"/>
<path d="M119.335 167.664C119.393 164.247 120.74 159.498 118.081 157.172C115.339 154.772 110.627 154.803 107.21 154.714C95.004 154.396 78.3064 153.931 75.6639 150.912C71.7729 146.466 74.4866 130.886 69.2328 122.004C64.9203 114.714 8.3394 118.877 5.73972 119.78C0.869704 121.474 0.776349 126.01 0.869704 138.941C0.948797 149.951 -0.203877 182.193 3.9219 197.663C5.16663 202.331 8.8736 205.946 13.5815 207.026C17.0798 207.828 22.1183 208.357 29.7709 208.58L102.341 208.866C102.341 208.866 112.822 210.136 115.045 199.656C117.269 189.175 119.333 167.665 119.333 167.665L119.335 167.664Z" fill="#FF5A24"/>
<path d="M103.315 209.335C102.78 209.335 102.423 209.304 102.321 209.294H91.9854C91.7494 209.294 91.5575 209.102 91.5575 208.866C91.5575 208.63 91.7494 208.438 91.9854 208.438H102.343C102.359 208.438 102.376 208.438 102.393 208.44C102.805 208.49 112.513 209.532 114.628 199.567C116.794 189.352 118.838 168.343 118.907 167.639C118.921 166.824 119.005 165.957 119.095 165.039C119.376 162.132 119.668 159.127 117.799 157.492C115.678 155.635 112.234 155.55 109.196 155.474L108.6 155.459C108.316 155.452 101.702 155.329 101.084 161.597L100.205 169.505C100.179 169.74 99.9646 169.907 99.7325 169.882C99.4979 169.856 99.328 169.645 99.3552 169.41L100.233 161.508C100.931 154.444 108.551 154.594 108.626 154.603L109.218 154.619C112.402 154.698 116.009 154.787 118.363 156.848C120.562 158.772 120.236 162.144 119.947 165.121C119.858 166.027 119.775 166.883 119.762 167.669C119.762 167.681 119.762 167.691 119.76 167.703C119.739 167.918 117.667 189.357 115.464 199.742C113.605 208.507 106.078 209.333 103.314 209.333L103.315 209.335Z" fill="black"/>
<path d="M3.18837 195.814C-0.211308 179.719 0.947851 149.529 0.871352 138.941C0.777997 126.01 0.871351 121.473 5.74137 119.78L5.74786 119.777C6.21593 119.615 6.72938 119.631 7.18837 119.819C7.22727 119.834 7.26487 119.85 7.30118 119.867C16.8026 124.008 11.7265 148.091 14.5868 153.261C17.1994 157.98 30.1563 157.349 30.1563 157.349L26.8253 169.953L26.4001 205.232C26.378 207.112 24.8662 208.633 22.9861 208.67L23.908 208.906C9.00361 208.906 4.69761 202.955 3.18967 195.815L3.18837 195.814Z" fill="#FFC7B5"/>
<path d="M16.7765 155.781C16.7039 155.781 16.63 155.763 16.5626 155.724C15.4864 155.102 14.6955 154.344 14.2118 153.47C13.1473 151.547 13.1279 147.309 13.1058 142.404C13.0695 134.478 13.0242 124.614 8.47699 121.064C8.29028 120.919 8.25786 120.65 8.40308 120.463C8.5483 120.277 8.81669 120.244 9.0034 120.39C13.8773 124.195 13.924 134.289 13.9616 142.401C13.9836 147.189 14.0031 151.324 14.9613 153.056C15.3684 153.792 16.0517 154.442 16.9917 154.985C17.1966 155.103 17.2666 155.365 17.1473 155.57C17.0682 155.708 16.9243 155.784 16.7765 155.784V155.781Z" fill="black"/>
<path d="M0.755298 151.177H0.750111C0.51413 151.175 0.324826 150.98 0.327419 150.744C0.342978 149.471 0.359833 148.248 0.375392 147.086C0.419477 143.82 0.458374 140.999 0.444112 138.945C0.35335 126.406 0.315751 121.214 5.60068 119.377C6.83634 118.948 18.0973 117.97 30.5304 117.551C30.7638 117.54 30.9647 117.728 30.9725 117.964C30.9803 118.2 30.7962 118.398 30.5589 118.406C18.0454 118.827 6.91414 119.826 5.88075 120.185C1.38933 121.747 1.20392 125.935 1.29857 138.94C1.31283 141.002 1.27523 143.828 1.22985 147.099C1.21429 148.261 1.19744 149.483 1.18188 150.756C1.17928 150.991 0.988685 151.179 0.754001 151.179L0.755298 151.177Z" fill="black"/>
<path d="M83.2194 211.065C83.0574 211.271 79.7951 224.733 79.7951 224.733L74.3196 221.091L77.4742 209.883L83.2181 211.065H83.2194Z" fill="white"/>
<path d="M79.7932 225.16C79.7102 225.16 79.6272 225.136 79.5559 225.089L74.0804 221.447C73.9261 221.344 73.8561 221.154 73.9054 220.975L77.06 209.767C77.1209 209.552 77.3387 209.419 77.5579 209.464L83.3018 210.646C83.447 210.676 83.5663 210.778 83.6169 210.918C83.6584 211.031 83.6493 211.156 83.5961 211.261C83.3822 211.842 81.458 219.673 80.2068 224.833C80.1744 224.97 80.0772 225.08 79.9475 225.13C79.8969 225.15 79.8438 225.16 79.7919 225.16H79.7932ZM74.8143 220.906L79.5222 224.039C81.6188 215.395 82.3825 212.431 82.6781 211.39L77.777 210.382L74.8143 220.906Z" fill="black"/>
<path d="M77.154 219.982C77.4082 219.431 77.9164 218.833 78.7229 218.506C79.7796 218.079 80.992 218.352 81.8257 219.129C84.0091 221.161 89.98 226.949 93.2357 232.354C94.3832 234.26 93.5262 236.556 90.5621 236.23C85.7064 235.695 78.1446 232.971 72.1971 226.772C71.5151 226.06 71.2325 225.052 71.4671 224.094C71.659 223.312 72.9012 220.589 73.3394 219.681C73.4185 219.519 73.5171 219.371 73.6312 219.242C74.3326 218.448 75.2493 219.047 75.5942 220.101C75.5942 220.101 76.5498 221.292 77.1527 219.982H77.154Z" fill="#FF5A24"/>
<path d="M91.1185 236.69C90.9292 236.69 90.7282 236.678 90.5143 236.655C85.4174 236.094 77.8465 233.281 71.8874 227.068C71.0938 226.241 70.7814 225.091 71.0511 223.991C71.2598 223.141 72.537 220.358 72.9532 219.495C73.0465 219.3 73.1671 219.119 73.3097 218.958C73.6702 218.549 74.1266 218.378 74.5934 218.474C75.1781 218.595 75.6994 219.132 75.9703 219.882C76.1039 220.025 76.3165 220.186 76.454 220.166C76.5473 220.155 76.6627 220.018 76.7626 219.802C76.9661 219.358 77.4705 218.549 78.5596 218.109C79.7447 217.63 81.1399 217.906 82.1149 218.815C84.4851 221.022 90.3509 226.739 93.6002 232.133C94.2783 233.258 94.334 234.526 93.7467 235.444C93.4342 235.932 92.6951 236.689 91.1185 236.689V236.69ZM74.3431 219.304C74.2549 219.304 74.1162 219.339 73.9515 219.524C73.8608 219.627 73.7843 219.742 73.7246 219.867C73.2734 220.803 72.0624 223.463 71.8822 224.196C71.6825 225.009 71.9159 225.862 72.5045 226.477C78.3055 232.524 85.6598 235.26 90.6076 235.804C91.7486 235.93 92.6083 235.639 93.0271 234.984C93.4368 234.342 93.3759 233.419 92.8676 232.575C89.6741 227.273 83.877 221.624 81.5327 219.441C80.7989 218.758 79.759 218.547 78.8812 218.902C78.0358 219.244 77.6611 219.895 77.5405 220.16C77.2436 220.804 76.843 220.98 76.559 221.015C75.8705 221.105 75.322 220.444 75.2611 220.368C75.2287 220.328 75.2041 220.283 75.1885 220.234C75.0031 219.668 74.6712 219.364 74.4222 219.312C74.4053 219.308 74.3781 219.303 74.3431 219.303V219.304Z" fill="black"/>
<path d="M90.1694 234.215C87.5101 234.215 82.1136 232.988 73.5327 225.701C73.3525 225.548 73.3305 225.279 73.4835 225.098C73.6365 224.918 73.9062 224.896 74.0864 225.049C86.3327 235.45 91.746 233.149 91.7992 233.126C92.0131 233.028 92.2673 233.122 92.3658 233.336C92.4643 233.551 92.3697 233.804 92.1558 233.902C92.0793 233.937 91.4323 234.215 90.1681 234.215H90.1694Z" fill="black"/>
<path d="M84.6968 228.429C84.5853 228.429 84.4725 228.385 84.3895 228.298C84.2261 228.129 84.23 227.858 84.3999 227.694L87.0216 225.163C87.1914 224.999 87.4611 225.004 87.6258 225.174C87.7892 225.344 87.7853 225.615 87.6154 225.778L84.9937 228.309C84.9107 228.389 84.8031 228.429 84.6968 228.429Z" fill="black"/>
<path d="M82.6086 226.509C82.4919 226.509 82.3752 226.461 82.2909 226.368C82.1327 226.193 82.147 225.922 82.322 225.764L85.1979 223.171C85.3729 223.012 85.6439 223.027 85.8021 223.202C85.9603 223.377 85.946 223.648 85.771 223.806L82.8951 226.399C82.8134 226.473 82.711 226.509 82.6086 226.509Z" fill="black"/>
<path d="M61.697 220.602L58.3505 232.258L54.1171 228.647L56.7919 217.412L61.697 220.602Z" fill="white"/>
<path d="M58.3481 232.686C58.2482 232.686 58.1484 232.651 58.0706 232.583L53.8372 228.972C53.7153 228.867 53.6622 228.704 53.6985 228.548L56.3734 217.313C56.4058 217.178 56.5017 217.067 56.6301 217.015C56.7597 216.963 56.905 216.978 57.0217 217.054L61.9254 220.244C62.0836 220.346 62.1549 220.539 62.103 220.721L58.7578 232.379C58.7176 232.519 58.6087 232.627 58.47 232.67C58.4298 232.682 58.3883 232.688 58.3468 232.688L58.3481 232.686ZM54.5918 228.491L58.1212 231.502L61.1967 220.787L57.0657 218.1L54.5918 228.491Z" fill="black"/>
<path d="M59.9848 230.202C59.5103 233.861 58.451 241.213 55.3806 246.297C54.5573 247.661 51.6529 247.394 50.7025 245.419C48.7213 241.301 46.2837 234.356 48.3959 226.251C48.5605 225.619 49.0182 225.1 49.6263 224.859C50.3395 224.575 51.461 224.233 53.0429 224.034C53.8299 223.936 54.5391 224.523 54.591 225.317L54.779 228.225L55.1745 227.766C55.7683 227.076 56.7563 226.88 57.568 227.291C58.0049 227.513 58.4886 227.758 58.9255 227.98C59.7424 228.395 60.1015 229.293 59.9836 230.202H59.9848Z" fill="#FF5A24"/>
<path d="M53.5763 247.575C53.5192 247.575 53.4609 247.574 53.4026 247.572C52.0722 247.508 50.8612 246.737 50.3166 245.606C47.1283 238.979 46.3426 232.432 47.9815 226.145C48.1799 225.383 48.7361 224.754 49.4674 224.464C50.1533 224.19 51.3215 223.82 52.9889 223.612C53.4791 223.549 53.9808 223.696 54.3633 224.012C54.7471 224.329 54.9844 224.795 55.0168 225.291L55.1413 227.203C55.8687 226.6 56.8943 226.473 57.7617 226.913L59.1192 227.601C60.0502 228.075 60.5572 229.117 60.4081 230.259C60.023 233.234 58.9987 241.134 55.7455 246.52C55.3423 247.189 54.5384 247.577 53.5763 247.577V247.575ZM53.2158 224.452C53.1756 224.452 53.1355 224.454 53.0953 224.46C51.5186 224.658 50.4243 225.003 49.7837 225.257C49.304 225.448 48.9397 225.86 48.8087 226.36C47.223 232.445 47.9893 238.796 51.0868 245.235C51.5847 246.271 52.6674 246.681 53.4427 246.717C54.152 246.747 54.7549 246.506 55.0129 246.077C58.1727 240.845 59.1802 233.074 59.5588 230.148C59.6612 229.357 59.3436 228.672 58.7303 228.362L57.3727 227.674C56.7348 227.35 55.9633 227.503 55.4966 228.046L55.1011 228.505C54.9883 228.636 54.8055 228.687 54.6408 228.632C54.4761 228.576 54.3607 228.427 54.3504 228.254L54.1624 225.345C54.1455 225.081 54.0223 224.841 53.8175 224.671C53.645 224.528 53.4337 224.452 53.2145 224.452H53.2158Z" fill="black"/>
<path d="M53.0339 245.242C52.8848 245.242 52.7396 245.163 52.6605 245.024C47.9603 236.651 49.7016 227.108 49.7198 227.013C49.7639 226.781 49.9882 226.63 50.219 226.674C50.4511 226.718 50.6041 226.942 50.56 227.173C50.5431 227.265 48.864 236.511 53.4073 244.606C53.5227 244.812 53.4501 245.072 53.244 245.188C53.1778 245.225 53.1052 245.242 53.0352 245.242H53.0339Z" fill="black"/>
<path d="M58.8036 235.615C58.7569 235.615 58.7089 235.607 58.6623 235.592L55.2794 234.409C55.0564 234.331 54.9384 234.088 55.0175 233.865C55.0953 233.642 55.3391 233.524 55.5621 233.603L58.9449 234.785C59.1679 234.863 59.2859 235.107 59.2068 235.33C59.1446 235.506 58.9799 235.616 58.8036 235.616V235.615Z" fill="black"/>
<path d="M57.9736 238.567C57.9165 238.567 57.8569 238.555 57.8012 238.531L54.6219 237.128C54.4054 237.033 54.3081 236.78 54.4028 236.564C54.4974 236.348 54.7503 236.25 54.9668 236.345L58.146 237.748C58.3626 237.842 58.4598 238.095 58.3652 238.312C58.2952 238.471 58.1383 238.567 57.9736 238.567Z" fill="black"/>
<path d="M51.7983 163.27C51.7983 163.27 82.9918 163.27 97.48 171.388C98.9348 172.202 100.017 173.436 100.157 175.097C100.889 183.709 97.3037 195.22 82.9465 215.371L74.8375 215.066L82.4382 183.177L53.1636 182.337L51.797 163.27H51.7983Z" fill="black"/>
<path d="M34.6428 167.625C34.6428 167.625 33.0778 172.154 33.9375 180.398C34.8464 189.116 51.8785 189.763 57.5303 189.579L63.4908 189.386C63.4908 189.386 58.6415 199.752 54.2616 222.664L61.9673 223.025C61.9673 223.025 77.8221 197.911 84.462 184.612C85.8208 181.89 85.096 178.576 82.6934 176.71C78.7634 173.661 71.3287 169.119 58.67 169.086C37.5264 169.033 34.6454 167.625 34.6454 167.625H34.6428Z" fill="black"/>
<path d="M60.4998 196.972C60.4583 196.972 60.4155 196.965 60.3727 196.952C60.1471 196.882 60.0214 196.643 60.0914 196.417C62.2697 189.406 65.7342 183.939 68.2561 180.587C68.3987 180.398 68.6658 180.36 68.8551 180.503C69.0444 180.644 69.082 180.912 68.9394 181.102C66.9076 183.802 63.1643 189.415 60.9082 196.672C60.8512 196.855 60.6826 196.973 60.4998 196.973V196.972Z" fill="#FF5A24"/>
<path d="M84.7901 180.87C84.5748 180.87 84.3881 180.707 84.3648 180.488C83.8098 175.272 75.5362 173.158 75.4533 173.139C75.2238 173.082 75.0837 172.85 75.1408 172.62C75.1978 172.391 75.4286 172.251 75.6581 172.308C76.0225 172.398 84.5956 174.586 85.2153 180.397C85.24 180.632 85.0701 180.843 84.8354 180.868C84.8199 180.869 84.8043 180.87 84.7901 180.87Z" fill="#FF5A24"/>
<path d="M78.2756 108.325C77.6468 110.512 77.1268 111.921 77.1268 111.921C77.1268 111.921 76.9375 108.568 76.8494 106.74C76.7236 104.118 75.4477 102.936 75.1729 106.09C74.9563 108.578 74.8332 109.365 74.8332 109.365C74.8332 109.365 74.2678 106.141 74.1784 105.149C74.0163 103.375 72.7314 102.836 72.6238 105.109C72.498 107.764 72.6756 110.113 72.6756 110.113C72.6756 110.113 70.2873 103.194 68.9609 105.151C67.969 106.614 69.722 109.655 70.037 110.482C70.3521 111.309 69.5443 109.459 68.0636 110.014C66.6788 110.534 72.7275 118.873 72.7456 122.103C72.7677 125.891 72.8533 136.962 72.0727 135.62C68.2931 129.113 66.662 128.169 66.662 128.169L59.4127 133.774C59.4127 133.774 67.5126 146.139 75.8238 149.269C82.5648 151.808 79.4724 130.495 78.0785 122.426C77.7297 120.405 77.7751 118.364 78.216 116.434C78.9356 113.288 79.9664 108.657 79.9975 107.78C80.0844 105.4 78.85 106.338 78.2769 108.329L78.2756 108.325Z" fill="white"/>
<path d="M76.8627 149.904C76.4893 149.904 76.0925 149.825 75.6712 149.667C67.325 146.524 59.3859 134.515 59.0527 134.005C58.9308 133.818 58.9723 133.569 59.1486 133.432L66.3979 127.827C66.5353 127.72 66.7233 127.707 66.8737 127.796C66.9425 127.834 68.5347 128.804 72.0679 134.769C72.2728 133.184 72.3558 129.042 72.3169 122.408V122.104C72.3065 120.588 70.7415 117.608 69.4851 115.215C67.9733 112.336 67.1979 110.8 67.4896 110.035C67.5661 109.835 67.7152 109.685 67.911 109.611C68.3311 109.454 68.7447 109.434 69.148 109.555C68.5347 108.194 67.7593 106.157 68.6047 104.909C68.9639 104.38 69.3956 104.352 69.6212 104.382C70.5353 104.502 71.4689 106.115 72.1535 107.631C72.1444 106.87 72.1535 105.995 72.1963 105.087C72.2767 103.381 72.9872 103.182 73.2893 103.176H73.3075C73.9687 103.176 74.5016 103.967 74.6054 105.11C74.6274 105.348 74.6767 105.721 74.7402 106.149C74.7428 106.118 74.7454 106.085 74.748 106.054C74.7972 105.488 74.9477 103.77 75.8968 103.77C75.902 103.77 75.9071 103.77 75.9123 103.77C76.759 103.786 77.2076 105.263 77.2776 106.721C77.3165 107.536 77.3762 108.664 77.4306 109.66C77.5655 109.228 77.712 108.741 77.865 108.208C78.1879 107.084 78.853 105.816 79.6673 105.948C80.4867 106.079 80.44 107.369 80.4245 107.793C80.3921 108.681 79.4326 113.033 78.6326 116.528C78.2021 118.411 78.1567 120.37 78.499 122.351C80.0186 131.146 82.0258 146.347 78.3979 149.348C77.9493 149.718 77.4358 149.905 76.864 149.905L76.8627 149.904ZM59.9888 133.864C61.3386 135.834 68.6371 146.104 75.972 148.867C76.7408 149.156 77.3554 149.097 77.8507 148.688C80.2222 146.727 80.1483 136.935 77.6537 122.496C77.2919 120.402 77.3399 118.33 77.7963 116.336C78.8984 111.518 79.5441 108.392 79.5674 107.761C79.5869 107.235 79.5337 106.971 79.4935 106.848C79.2951 107.021 78.9399 107.556 78.6845 108.444C78.0582 110.62 77.5318 112.055 77.5253 112.069C77.4553 112.26 77.2621 112.375 77.0611 112.344C76.8601 112.314 76.7084 112.148 76.6968 111.946C76.6955 111.912 76.5062 108.57 76.4193 106.761C76.3622 105.568 76.0744 104.904 75.911 104.688C75.8267 104.834 75.675 105.215 75.596 106.128C75.3807 108.603 75.2575 109.399 75.2524 109.432C75.2199 109.638 75.0423 109.791 74.8336 109.794H74.8297C74.6222 109.794 74.4446 109.645 74.4083 109.44C74.3849 109.307 73.8391 106.185 73.7483 105.188C73.6848 104.485 73.4306 104.109 73.3114 104.041C73.2374 104.113 73.0806 104.408 73.0455 105.13C72.9224 107.727 73.0948 110.059 73.0961 110.081C73.1117 110.295 72.9665 110.489 72.7564 110.533C72.5451 110.577 72.3363 110.456 72.265 110.254C71.452 107.897 70.1477 105.316 69.5032 105.232C69.4384 105.228 69.3606 105.315 69.3075 105.392C68.619 106.407 69.6562 108.638 70.1541 109.712C70.2747 109.971 70.3694 110.176 70.429 110.33C70.5094 110.542 70.6313 110.862 70.324 111.058C70.0206 111.251 69.7755 111.001 69.6835 110.907C69.3269 110.542 68.8822 110.198 68.2728 110.391C68.2066 110.954 69.3762 113.18 70.2371 114.821C71.605 117.425 73.1558 120.378 73.1661 122.101V122.406C73.2465 135.889 72.8381 136 72.3195 136.142C72.23 136.166 71.9188 136.217 71.6958 135.834C68.8238 130.889 67.2057 129.201 66.652 128.71L59.9836 133.865L59.9888 133.864Z" fill="black"/>
<path d="M68.2178 103.304C65.504 100.179 61.3484 99.4126 58.186 100.172C54.1822 101.136 52.0752 104.508 50.5893 106.887C47.9624 111.094 49.1202 112.681 47.082 115.108C43.4723 119.407 38.1108 116.486 33.7776 119.575C27.1675 124.287 25.7802 140.921 34.3261 147.532C40.0246 151.94 48.0285 149.737 50.2068 149.137C56.8155 147.318 65.1345 141.928 66.5374 134.32C67.6979 128.029 63.694 122.642 67.3413 117.452C68.2697 116.13 69.0165 115.786 69.7271 114.12C70.881 111.413 71.2635 106.807 68.2191 103.302L68.2178 103.304Z" fill="black"/>
<path d="M59.2096 103.523C60.7254 102.367 59.8981 98.8003 59.01 96.8619C58.6767 96.1358 57.1882 92.8852 55.0955 92.9462C52.9471 93.0084 50.783 96.5455 51.4612 99.4201C52.3091 103.014 57.4333 104.876 59.2096 103.523Z" fill="black"/>
<path d="M34.4663 166.32C33.6585 169.116 35.7512 171.906 38.6608 171.914L52.7561 171.541C54.2641 171.501 55.7603 171.199 57.1373 170.583C61.0971 168.81 62.3652 165.573 62.2005 162.218C61.9166 156.436 61.7753 147.276 62.9798 142.01C63.0135 141.861 71.6476 134.634 71.409 133.243C71.3493 132.894 67.9056 122.285 51.6281 121.362C40.3243 120.72 33.0077 124.147 36.1286 134.15C37.2203 137.648 38.9616 141.101 38.9616 141.101C38.548 147.101 37.6365 153.056 36.2388 158.905L34.4663 166.321V166.32Z" fill="#FF9A79"/>
<path d="M38.6704 172.339C37.1352 172.335 35.7388 171.635 34.826 170.418C33.9145 169.203 33.6331 167.669 34.0506 166.21L35.8205 158.804C37.2001 153.033 38.109 147.106 38.5239 141.186C38.2218 140.574 36.6996 137.426 35.7168 134.276C34.5019 130.381 34.7806 127.259 36.5466 124.995C38.9505 121.913 44.1706 120.51 51.6481 120.933C68.5466 121.892 71.8076 133.056 71.827 133.169C71.993 134.138 69.9508 136.365 64.2925 141.388C63.8957 141.741 63.5171 142.077 63.368 142.217C62.0934 147.936 62.4228 158.079 62.6237 162.195C62.7638 165.05 61.956 168.889 57.309 170.971C55.9307 171.588 54.402 171.924 52.7644 171.967L38.6704 172.339ZM49.0989 121.714C43.2578 121.714 39.1761 123.014 37.2208 125.52C35.6377 127.55 35.4069 130.409 36.5336 134.02C37.602 137.443 39.3226 140.872 39.3407 140.906C39.3758 140.975 39.3913 141.051 39.3861 141.128C38.9712 147.133 38.0519 153.146 36.6529 159.001L34.8805 166.418C34.8805 166.418 34.8779 166.431 34.8753 166.437C34.5278 167.639 34.7599 168.903 35.5106 169.904C36.2613 170.905 37.4101 171.481 38.6613 171.485L52.7437 171.113C54.2672 171.072 55.6857 170.763 56.9602 170.191C61.1664 168.307 61.8977 164.825 61.7706 162.236C61.5657 158.058 61.2325 147.714 62.5602 141.913C62.5853 141.803 62.9734 141.415 63.7246 140.748C69.7135 135.432 70.9777 133.764 70.9829 133.301C70.9622 133.218 67.805 122.707 51.6001 121.787C50.734 121.738 49.9002 121.714 49.0989 121.714Z" fill="black"/>
<path d="M57.6494 112.886C57.5625 113.045 55.099 116.61 52.7794 120.263C52.1272 121.29 51.2533 122.151 50.0409 122.271L46.2043 122.651C45.7012 122.702 45.486 123.32 45.8542 123.668C47.5878 125.306 51.6435 128.892 56.0092 128.653C64.0403 128.215 61.9567 125.548 60.1311 124.071C59.3233 123.417 59.0419 122.313 59.4283 121.348C59.8977 120.18 60.4902 118.702 60.8286 117.847C61.2837 118.222 61.7466 118.529 62.2147 118.772C62.8176 119.084 63.5956 118.883 63.9483 118.302C64.5278 117.347 65.3849 116.145 65.687 115.595C65.7622 115.457 65.9048 115.373 66.0604 115.372C66.4286 115.369 66.8047 115.494 67.1586 115.201C67.3013 115.083 67.3466 114.883 67.2909 114.707C66.8021 113.181 67.8886 110.888 67.9949 109.651C68.3735 105.208 61.4393 106.018 57.6494 112.884V112.886Z" fill="white"/>
<path d="M55.5895 129.092C52.5218 129.092 49.1493 127.374 45.5591 123.978C45.266 123.702 45.1649 123.293 45.2959 122.911C45.4268 122.529 45.7587 122.266 46.1607 122.225L49.9973 121.846C50.9075 121.755 51.6998 121.162 52.4168 120.033C54.1205 117.352 55.9046 114.709 56.763 113.44C57.0301 113.045 57.2414 112.733 57.2764 112.675C59.9059 107.915 64.0628 105.856 66.5653 106.614C67.8774 107.012 68.5529 108.134 68.4207 109.69C68.3818 110.145 68.2275 110.708 68.0641 111.304C67.7581 112.421 67.4119 113.687 67.6972 114.578C67.81 114.929 67.705 115.304 67.4314 115.531C67.0268 115.867 66.6003 115.836 66.2878 115.812C66.2126 115.807 66.1413 115.802 66.0635 115.802C65.8962 116.104 65.5928 116.561 65.2414 117.09C64.9354 117.551 64.5879 118.074 64.3131 118.526C63.8502 119.287 62.8207 119.57 62.0181 119.152C61.6797 118.977 61.3439 118.77 61.0158 118.533C60.6735 119.392 60.208 120.553 59.8242 121.507C59.504 122.305 59.7348 123.2 60.3986 123.739C61.8664 124.926 62.4589 125.997 62.1594 126.924C61.7562 128.173 59.7516 128.878 56.0304 129.081C55.8839 129.088 55.7361 129.092 55.5882 129.092H55.5895ZM58.022 113.092C57.9921 113.147 57.904 113.278 57.4709 113.919C56.6152 115.186 54.8349 117.821 53.1377 120.492C52.2819 121.839 51.2537 122.581 50.0816 122.696L46.245 123.077C46.1529 123.086 46.1179 123.15 46.1049 123.187C46.092 123.224 46.0816 123.295 46.1464 123.357C49.7328 126.749 53.0443 128.393 55.985 128.226C60.2845 127.991 61.1896 127.145 61.3464 126.66C61.5189 126.128 60.9769 125.305 59.8618 124.402C58.9037 123.627 58.5704 122.336 59.0307 121.188C59.5001 120.02 60.0913 118.543 60.4297 117.69C60.4803 117.563 60.5879 117.467 60.7202 117.433C60.8524 117.398 60.9938 117.429 61.0988 117.517C61.5241 117.868 61.9649 118.162 62.4097 118.393C62.822 118.607 63.3471 118.467 63.5818 118.081C63.8657 117.613 64.2184 117.083 64.5283 116.615C64.855 116.124 65.1636 115.659 65.3114 115.39C65.4606 115.119 65.7458 114.948 66.057 114.946C66.1542 114.946 66.2528 114.953 66.35 114.959C66.6171 114.979 66.752 114.983 66.8842 114.872C66.8842 114.872 66.8881 114.857 66.8816 114.839C66.5186 113.705 66.9011 112.31 67.2382 111.079C67.3912 110.521 67.5351 109.995 67.5662 109.617C67.6648 108.467 67.2317 107.711 66.315 107.434C64.186 106.787 60.409 108.767 58.0207 113.093L58.022 113.092Z" fill="black"/>
<path d="M60.504 118.007C60.421 118.007 60.3367 117.982 60.2628 117.931C58.4891 116.713 58.056 114.89 58.0391 114.812C57.9873 114.581 58.1312 114.353 58.3607 114.3C58.5915 114.248 58.8197 114.392 58.8729 114.621C58.8767 114.637 59.2579 116.203 60.7477 117.226C60.9422 117.36 60.9915 117.627 60.8579 117.821C60.775 117.942 60.6414 118.007 60.5053 118.007H60.504Z" fill="black"/>
<path d="M61.2015 113.093C60.1253 115.077 59.6002 115.381 59.6002 115.381C59.6002 115.381 60.4754 112.268 60.9785 110.531C61.9535 107.167 60.5104 106.41 59.3616 109.325C58.4553 111.625 58.1169 112.337 58.1169 112.337C58.1169 112.337 58.4799 109.127 58.6705 108.163C59.0128 106.439 57.4193 105.755 56.9447 107.703C56.3237 110.259 55.8725 112.998 55.8725 112.998C55.8725 112.998 55.2177 109.656 54.9622 108.307C54.6913 106.876 53.2326 106.644 53.2767 108.386C53.3259 110.287 53.5295 113.097 53.5995 113.967C53.6695 114.836 53.0148 110.989 51.4394 111.114C49.9664 111.231 51.5081 113.609 51.8374 116.452C52.3068 120.507 53.4271 120.775 52.5389 123.842C51.4977 127.437 49.1976 134.431 48.7775 135.907C48.5765 136.612 48.1292 135.748 47.6352 134.336C46.734 131.764 37.9327 133.84 39.477 137.702C41.2624 142.165 44.0682 147.624 47.8712 150.422C53.6255 154.655 56.6374 133.617 57.5632 125.591C57.7953 123.58 58.4112 121.658 59.3759 119.949C60.9499 117.162 62.6368 114.071 63.0037 113.282C63.8971 111.362 62.4566 110.773 61.1989 113.092L61.2015 113.093Z" fill="white"/>
<path d="M49.3564 151.411C48.782 151.411 48.2024 151.197 47.6202 150.769C43.6669 147.861 40.7949 142.145 39.0821 137.864C38.6867 136.875 38.8449 135.897 39.5398 135.04C40.9324 133.322 44.1129 132.509 46.0967 132.853C47.1223 133.032 47.794 133.496 48.0403 134.199C48.2348 134.755 48.3865 135.118 48.498 135.354C48.7262 134.601 49.1321 133.327 49.6209 131.792C50.465 129.141 51.5165 125.839 52.1285 123.725C52.6471 121.933 52.4501 121.209 52.0922 119.897C51.8705 119.083 51.593 118.069 51.4128 116.504C51.2974 115.507 51.0277 114.572 50.7904 113.746C50.4442 112.542 50.194 111.671 50.5778 111.117C50.7541 110.862 51.0316 110.718 51.405 110.689C52.0896 110.632 52.6134 111.08 53.0076 111.662C52.9402 110.59 52.874 109.371 52.8481 108.398C52.8183 107.254 53.3551 106.789 53.8659 106.734C54.5544 106.658 55.2053 107.303 55.3804 108.228C55.4919 108.818 55.6812 109.79 55.8575 110.696C56.039 109.772 56.2698 108.667 56.5279 107.601C56.8403 106.314 57.5911 105.999 58.1369 106.119C58.7749 106.261 59.3246 107.054 59.0873 108.246C59.042 108.474 58.9862 108.836 58.9279 109.252C58.9382 109.225 58.9499 109.196 58.9603 109.169C59.5645 107.634 60.3165 106.891 61.0219 107.132C61.8102 107.401 61.9463 108.717 61.3862 110.651C61.18 111.362 60.9104 112.309 60.664 113.179C60.7159 113.087 60.769 112.991 60.8235 112.89C61.7142 111.249 62.6556 110.982 63.1937 111.251C63.6527 111.482 63.9807 112.201 63.392 113.465C62.9979 114.313 61.193 117.601 59.7486 120.162C58.8073 121.828 58.2147 123.673 57.9878 125.642C56.9791 134.38 54.6439 149.321 50.3288 151.201C50.0073 151.341 49.6805 151.411 49.3525 151.411H49.3564ZM45.1424 133.631C43.4413 133.631 41.1904 134.361 40.2037 135.578C39.7084 136.19 39.5969 136.853 39.8757 137.546C41.547 141.725 44.3359 147.292 48.1272 150.081C48.7872 150.566 49.3966 150.674 49.9904 150.416C52.8131 149.187 55.4854 139.889 57.1411 125.545C57.3823 123.461 58.0099 121.509 59.007 119.743C60.6549 116.824 62.2757 113.846 62.6193 113.106C62.9318 112.434 62.8669 112.066 62.8086 112.015C62.7113 111.983 62.1732 112.202 61.5781 113.3C60.4993 115.289 59.9198 115.694 59.8147 115.754C59.6643 115.841 59.4763 115.828 59.3389 115.722C59.2014 115.616 59.1431 115.437 59.1898 115.268C59.1988 115.237 60.0702 112.133 60.5694 110.415C61.0439 108.777 60.8494 108.088 60.7509 107.954C60.6238 108.002 60.2141 108.334 59.7603 109.485C58.8591 111.773 58.5181 112.495 58.5039 112.525C58.4144 112.714 58.2005 112.809 58.0008 112.752C57.7998 112.695 57.6702 112.5 57.6935 112.293C57.7078 112.16 58.0604 109.054 58.2536 108.083C58.3963 107.366 58.1317 106.996 57.958 106.957C57.7791 106.919 57.5107 107.202 57.3642 107.806C56.7548 110.315 56.3022 113.043 56.2971 113.071C56.2633 113.274 56.0883 113.426 55.8821 113.428C55.6773 113.443 55.4958 113.286 55.4556 113.083C55.4556 113.083 54.8008 109.74 54.5454 108.39C54.4326 107.799 54.1097 107.569 53.9619 107.587C53.8556 107.599 53.6935 107.823 53.7078 108.379C53.7557 110.267 53.9619 113.094 54.0293 113.935C54.063 114.353 53.8608 114.483 53.6857 114.518C53.2967 114.594 53.1865 114.244 53.0958 113.961C52.4358 111.909 51.8523 111.522 51.4763 111.543C51.4296 111.547 51.3155 111.56 51.2844 111.605C51.1301 111.827 51.3998 112.761 51.6151 113.511C51.8497 114.326 52.1415 115.34 52.2646 116.407C52.4384 117.907 52.7055 118.886 52.9194 119.673C53.2915 121.038 53.5379 121.941 52.9518 123.963C52.336 126.088 51.2831 129.395 50.4364 132.051C49.8595 133.863 49.3616 135.426 49.1904 136.025C49.0543 136.503 48.7664 136.582 48.6069 136.587C48.1817 136.602 47.8627 136.277 47.2326 134.48C47.0588 133.985 46.439 133.78 45.9502 133.694C45.7026 133.651 45.4303 133.631 45.1424 133.631Z" fill="black"/>
<path d="M45.408 161.578L45.2524 182.013C45.2524 188.173 49.4456 189.139 50.3973 189.283C53.8865 189.809 63.3205 190.145 63.3205 190.145L61.4793 194.793L59.8391 199.543H34.2547C29.8073 199.543 26.2054 197.438 26.2171 194.618L26.3519 161.55C26.3636 158.753 29.9266 156.486 34.3364 156.468C35.2958 156.464 36.2553 156.47 37.2148 156.458C41.7386 156.404 45.4313 158.719 45.408 161.578Z" fill="#FFC7B5"/>
<path d="M56.8242 199.97H34.2569C31.2877 199.97 28.6051 199.056 27.0816 197.526C26.2336 196.674 25.7889 195.669 25.7927 194.616L25.9276 161.548C25.9406 158.479 29.6346 156.059 34.3373 156.04C35.2955 156.036 36.2537 156.042 37.2119 156.029C37.2663 156.029 37.3208 156.029 37.3752 156.029C40.2511 156.029 42.8897 156.954 44.4599 158.516C45.3701 159.422 45.8472 160.483 45.8381 161.581L45.6826 182.016C45.6826 187.697 49.3428 188.691 50.4644 188.859C52.1331 189.111 55.726 189.143 58.6135 189.168C60.1759 189.182 61.5244 189.194 62.3659 189.236C62.6018 189.248 62.7834 189.449 62.7717 189.685C62.76 189.921 62.55 190.094 62.3231 190.091C61.4997 190.049 60.1591 190.038 58.607 190.023C55.6923 189.998 52.0657 189.965 50.3373 189.705C49.4168 189.566 44.8281 188.544 44.8281 182.012L44.9837 161.574C44.9902 160.71 44.6012 159.862 43.8582 159.122C42.4398 157.71 39.9088 156.859 37.2235 156.885C36.2641 156.897 35.302 156.892 34.3425 156.895C30.1856 156.912 26.795 159.001 26.7846 161.552L26.6498 194.62C26.6459 195.451 26.996 196.225 27.6897 196.921C29.0576 198.294 31.5133 199.114 34.2595 199.114H56.8268C57.0628 199.114 57.2547 199.306 57.2547 199.542C57.2547 199.778 57.0628 199.97 56.8268 199.97H56.8242Z" fill="black"/>
<path d="M55.0293 71.204C53.9742 71.204 53.1755 70.9429 53.1553 70.9367C52.888 70.8466 52.7435 70.5545 52.8352 70.2872C52.9253 70.0199 53.2175 69.877 53.4847 69.9671C53.6526 70.023 57.4193 71.2289 58.7463 67.4761C59.5388 65.2369 58.0502 62.9713 56.6765 62.3948C56.4154 62.2861 56.2927 61.9846 56.4014 61.7235C56.5118 61.4625 56.8117 61.3382 57.0727 61.4485C59.0835 62.2923 60.639 65.1934 59.7113 67.8165C58.7152 70.6322 56.5895 71.204 55.0278 71.204H55.0293Z" fill="#FF5A24"/>
<path d="M59.4497 65.7808C59.215 65.7808 59.0021 65.6176 58.9493 65.3783C58.8887 65.1017 59.0627 64.8282 59.3393 64.7676C60.5887 64.4926 62.7036 63.6239 62.8186 60.8828C62.9102 58.7166 61.204 57.7703 59.7573 57.357C59.4854 57.2793 59.3269 56.9949 59.4046 56.723C59.4823 56.451 59.7667 56.2956 60.0386 56.3702C62.5855 57.0975 63.9358 58.7151 63.8426 60.9263C63.6919 64.4801 60.7969 65.4964 59.5584 65.7683C59.5211 65.7761 59.4838 65.7808 59.4481 65.7808H59.4497Z" fill="#FF5A24"/>
<path d="M62.8019 59.2854C62.6419 59.2854 62.4834 59.2108 62.3839 59.0694C62.2208 58.8378 62.2751 58.5193 62.5051 58.3546C62.819 58.1308 65.5259 56.0796 63.6675 52.8133C63.5276 52.5678 63.6131 52.2539 63.8601 52.114C64.1072 51.9742 64.4195 52.0596 64.5594 52.3067C66.4303 55.5964 64.5221 58.1821 63.0987 59.1906C63.0086 59.2543 62.9045 59.2854 62.8035 59.2854H62.8019Z" fill="#FF5A24"/>
<path d="M60.4134 55.0583C60.1321 55.0583 59.9022 54.8314 59.9006 54.5486C59.8991 54.2658 60.1259 54.0358 60.4087 54.0327C60.4258 54.0327 62.0854 54.0001 63.1436 52.8937C63.7854 52.2224 64.09 51.2776 64.0511 50.0827C64.0138 48.9607 63.6487 48.0719 62.9665 47.441C62.2175 46.7479 61.0676 46.3828 59.8183 46.4403C59.5323 46.4558 59.2961 46.2351 59.2837 45.9523C59.2713 45.6695 59.4904 45.4302 59.7716 45.4178C61.3209 45.3447 62.6992 45.7985 63.6611 46.6889C64.5406 47.5016 65.0285 48.6639 65.0736 50.05C65.1218 51.534 64.7193 52.7336 63.874 53.6101C62.5081 55.0288 60.4989 55.0568 60.4134 55.0568H60.4103L60.4134 55.0583Z" fill="#FF5A24"/>
<path d="M62.8646 47.1579C62.7916 47.1579 62.7154 47.1424 62.6455 47.1082C62.3891 46.987 62.2804 46.6809 62.4016 46.4245C63.1319 44.8845 63.5748 42.7293 61.5329 41.2095C59.6185 39.7861 57.2612 40.8366 56.1983 42.0393C56.0103 42.2522 55.6871 42.2709 55.4757 42.0844C55.2628 41.8964 55.2442 41.5731 55.4307 41.3603C56.7515 39.8654 59.7086 38.5741 62.1452 40.3875C64.1435 41.8746 64.5755 44.2366 63.3277 46.8642C63.2407 47.0492 63.0558 47.1564 62.8646 47.1564V47.1579Z" fill="#FF5A24"/>
<path d="M59.538 40.4732C59.538 40.4732 59.5255 40.4732 59.5209 40.4732C59.2381 40.4639 59.0159 40.2261 59.0267 39.9433C59.0532 39.1601 59.0019 35.2411 55.3486 35.0112C51.5897 34.7796 50.777 38.3008 50.7443 38.4515C50.6837 38.7281 50.4103 38.9037 50.1337 38.8431C49.8571 38.7825 49.6815 38.509 49.7421 38.2324C49.7514 38.1874 50.7816 33.6919 55.4123 33.9887C60.1083 34.2855 60.071 39.3979 60.0508 39.979C60.0415 40.2556 59.8146 40.4747 59.5395 40.4747L59.538 40.4732Z" fill="#FF5A24"/>
<path d="M48.2615 75.0521C47.2483 75.0521 46.3362 74.7972 45.5359 74.2891C44.1949 73.4376 43.3931 71.9427 43.3931 70.2924V34.8662C43.3931 33.0248 44.3581 31.3403 45.912 30.4732C46.9376 29.9014 48.1419 29.7398 49.4953 29.9931C52.7477 30.6037 53.6443 33.94 53.7919 34.602C53.8525 34.8786 53.6785 35.1521 53.4019 35.2127C53.1268 35.2717 52.8518 35.0992 52.7912 34.8226C52.6684 34.271 51.9256 31.491 49.3073 31C48.1978 30.7918 47.2235 30.9161 46.4123 31.3683C45.1832 32.0551 44.4187 33.3961 44.4187 34.8662V70.2924C44.4187 71.5713 45.0573 72.7709 46.086 73.4236C46.9904 73.9985 48.1014 74.1632 49.3865 73.9115C51.0492 73.5867 52.2287 72.5037 52.6218 70.9389C53.0398 69.2762 52.4633 67.4581 51.186 66.4123C50.9669 66.2336 50.9342 65.9104 51.1145 65.6913C51.2932 65.4722 51.6164 65.4411 51.8355 65.6198C53.4143 66.9111 54.1291 69.1487 53.6163 71.189C53.1222 73.1547 51.6521 74.5144 49.5839 74.9184C49.127 75.007 48.6857 75.0521 48.263 75.0521H48.2615Z" fill="#FF5A24"/>
<path d="M43.9007 50.5468C43.6179 50.5468 43.3894 50.3152 43.391 50.0309C43.405 47.2898 44.847 45.4313 47.0629 45.2961C49.4482 45.15 50.5965 46.5159 50.6431 46.575C50.8234 46.7941 50.7923 47.1157 50.5732 47.296C50.3557 47.4747 50.034 47.4452 49.8538 47.2292C49.8118 47.181 48.954 46.2051 47.1235 46.3201C45.4639 46.4211 44.4244 47.8461 44.4135 50.0371C44.4135 50.3183 44.1835 50.5468 43.9007 50.5468Z" fill="#FF5A24"/>
<path d="M51.8829 59.4689C50.9847 59.4689 49.8846 59.1969 48.9475 58.2957C47.2398 56.6516 48.3524 53.5547 48.4006 53.4241C48.4985 53.1584 48.7922 53.0217 49.0579 53.1196C49.3236 53.2175 49.4588 53.5111 49.3624 53.7769C49.3531 53.8033 48.4332 56.3781 49.6577 57.5576C51.0469 58.8939 52.736 58.3314 52.8075 58.3065C53.0748 58.2133 53.3669 58.3563 53.4586 58.6235C53.5503 58.8908 53.4088 59.183 53.1416 59.2746C52.8292 59.3819 52.3864 59.4689 51.8813 59.4689H51.8829Z" fill="#FF5A24"/>
<path d="M52.6671 63.359C52.4465 63.359 52.2429 63.216 52.1761 62.9938C51.9585 62.2666 51.3634 59.771 52.88 58.2C54.4355 56.587 56.8984 57.1386 57.0026 57.1635C57.2776 57.2272 57.4501 57.5038 57.3848 57.7789C57.3211 58.0539 57.0445 58.2233 56.771 58.1611C56.7462 58.1549 54.7634 57.7229 53.6181 58.9101C52.4884 60.0818 52.981 62.1065 53.1597 62.6986C53.2405 62.969 53.0867 63.2549 52.8163 63.3372C52.7666 63.3512 52.7168 63.359 52.6687 63.359H52.6671Z" fill="#FF5A24"/>
<path d="M60.6693 50.6897C59.3003 50.6897 57.49 50.41 56.5498 49.1C54.9742 46.9013 56.3851 44.1213 56.4457 44.0032C56.5763 43.753 56.8855 43.6536 57.1372 43.7841C57.389 43.9146 57.4869 44.2238 57.3563 44.474C57.3392 44.5082 56.1785 46.822 57.3827 48.5018C58.0773 49.4714 59.5769 49.6703 60.705 49.6641H60.7066C60.9894 49.6641 61.2178 49.8925 61.2194 50.1754C61.2194 50.4582 60.9925 50.6882 60.7081 50.6897H60.6677H60.6693Z" fill="#FF5A24"/>
<path d="M52.8654 55.0553C52.6603 55.0553 52.4676 54.9325 52.3883 54.7305C52.3495 54.631 51.4498 52.2784 52.7923 50.2101C53.9298 48.4573 56.3166 48.5319 57.2909 48.6469C57.5722 48.6795 57.7727 48.9344 57.74 49.2156C57.7074 49.4969 57.4525 49.6989 57.1713 49.6647C56.559 49.5932 54.4986 49.4627 53.6517 50.768C52.5934 52.3996 53.3347 54.3358 53.3424 54.356C53.4465 54.6202 53.316 54.917 53.0534 55.0211C52.9912 55.0444 52.9291 55.0568 52.8669 55.0568L52.8654 55.0553Z" fill="#FF5A24"/>
<path d="M50.546 42.9506C49.884 42.9506 49.177 42.7937 48.5057 42.3415C46.3426 40.887 46.5928 38.2702 46.6052 38.1599C46.6348 37.8786 46.8865 37.6719 47.1693 37.7046C47.4506 37.7341 47.6541 37.9858 47.6246 38.2671C47.6153 38.3557 47.4366 40.3882 49.0775 41.4915C50.6936 42.5792 52.7898 41.2553 52.81 41.2428C53.0478 41.089 53.3648 41.1574 53.5186 41.3951C53.6725 41.6329 53.6041 41.9483 53.3679 42.1022C53.2933 42.1503 52.0362 42.9506 50.546 42.9506Z" fill="#FF5A24"/>
<path d="M28.1023 43.5215C28.0355 43.5215 27.9687 43.5091 27.905 43.4811C25.8942 42.6373 24.3387 39.7361 25.2664 37.1131C26.9353 32.3939 31.7742 33.9758 31.8239 33.9929C32.0912 34.083 32.2357 34.3751 32.1441 34.6424C32.0539 34.9097 31.7618 35.0542 31.4945 34.9625C31.3267 34.9066 27.56 33.7007 26.2329 37.4534C25.4404 39.6926 26.9291 41.9583 28.3028 42.5348C28.5638 42.6435 28.6866 42.945 28.5778 43.206C28.4955 43.4018 28.3059 43.5199 28.1054 43.5199L28.1023 43.5215Z" fill="#FF5A24"/>
<path d="M25.0771 48.5782C25.0305 48.5782 24.9823 48.572 24.9357 48.558C22.3888 47.8308 21.0385 46.2131 21.1317 44.0034C21.2825 40.4496 24.1774 39.4334 25.4159 39.1614C25.6925 39.0977 25.966 39.2749 26.0266 39.5515C26.0872 39.8281 25.9131 40.1015 25.6365 40.1621C24.3872 40.4372 22.2723 41.3058 22.1573 44.047C22.0656 46.2131 23.7718 47.1595 25.2185 47.5728C25.4905 47.6505 25.649 47.9349 25.5713 48.2068C25.5076 48.4321 25.3024 48.5782 25.0787 48.5782H25.0771Z" fill="#FF5A24"/>
<path d="M20.8658 52.882C20.6871 52.882 20.5147 52.7888 20.4199 52.6225C18.549 49.3329 20.4572 46.7471 21.8806 45.7387C22.1105 45.5755 22.4306 45.6299 22.5954 45.8599C22.7585 46.0914 22.7041 46.4115 22.4742 46.5747C22.1603 46.7984 19.4533 48.8496 21.3118 52.1159C21.4517 52.3615 21.3662 52.6753 21.1191 52.8152C21.0383 52.8603 20.9513 52.882 20.8658 52.882Z" fill="#FF5A24"/>
<path d="M24.893 59.5198C23.4743 59.5198 22.2125 59.0707 21.3143 58.2409C20.4348 57.4282 19.9469 56.2659 19.9018 54.8798C19.8536 53.3958 20.2561 52.1962 21.1014 51.3197C22.4673 49.901 24.4781 49.873 24.562 49.873H24.5651C24.8464 49.873 25.0764 50.0999 25.0779 50.3827C25.0795 50.6655 24.8526 50.8955 24.5698 50.8986C24.5527 50.8986 22.8931 50.9313 21.8349 52.0377C21.1931 52.709 20.8885 53.6537 20.9274 54.8487C20.9647 55.9706 21.3299 56.8595 22.012 57.4904C22.761 58.1834 23.9047 58.5455 25.1603 58.4911C25.4477 58.4818 25.6824 58.6962 25.6964 58.979C25.7088 59.2618 25.4897 59.5011 25.2084 59.5136C25.1043 59.5182 25.0002 59.5213 24.8961 59.5213L24.893 59.5198Z" fill="#FF5A24"/>
<path d="M25.4821 65.4288C24.5963 65.4288 23.6842 65.1739 22.8342 64.5415C20.8359 63.0544 20.4039 60.6924 21.6517 58.0647C21.7729 57.8099 22.079 57.6996 22.3338 57.8208C22.5902 57.942 22.699 58.2481 22.5778 58.5045C21.8475 60.0444 21.4046 62.1997 23.4464 63.7194C25.3609 65.1428 27.7182 64.0924 28.7795 62.8896C28.9675 62.6768 29.2907 62.6581 29.5021 62.8446C29.715 63.0326 29.7336 63.3558 29.5471 63.5687C28.6863 64.543 27.1339 65.4288 25.4821 65.4288Z" fill="#FF5A24"/>
<path d="M29.9947 70.956C29.8564 70.956 29.7134 70.9514 29.5673 70.942C24.8714 70.6452 24.9087 65.5328 24.9289 64.9517C24.9382 64.6689 25.1822 64.4451 25.4588 64.4575C25.7416 64.4668 25.9638 64.7046 25.9529 64.9874C25.9265 65.7706 25.9778 69.6896 29.6311 69.9195C33.3884 70.1542 34.2027 66.6299 34.2353 66.4792C34.2959 66.2026 34.5679 66.027 34.846 66.0876C35.1226 66.1482 35.2982 66.4217 35.2376 66.6983C35.2283 66.7418 34.2555 70.956 29.9931 70.956H29.9947Z" fill="#FF5A24"/>
<path d="M36.6805 75.0529C36.2952 75.0529 35.8958 75.014 35.4825 74.9364C32.2301 74.3272 31.3335 70.9894 31.1859 70.3274C31.1253 70.0508 31.2993 69.7773 31.5759 69.7167C31.8525 69.6592 32.126 69.8302 32.1866 70.1068C32.3094 70.6584 33.0521 73.4384 35.6705 73.9294C36.78 74.1376 37.7543 74.0133 38.5654 73.5611C39.7946 72.8743 40.5591 71.5333 40.5591 70.0633V34.637C40.5591 33.3581 39.9205 32.1585 38.8918 31.5058C37.9874 30.9309 36.8779 30.7662 35.5928 31.0179C33.9301 31.3427 32.7507 32.4257 32.3575 33.9905C31.9395 35.6532 32.516 37.4713 33.7933 38.5171C34.0124 38.6958 34.0451 39.019 33.8648 39.2381C33.6861 39.4572 33.3629 39.4883 33.1438 39.3096C31.565 38.0183 30.8502 35.7807 31.363 33.7404C31.8572 31.7747 33.3272 30.415 35.3954 30.011C36.9462 29.7079 38.3075 29.9193 39.4403 30.6403C40.7813 31.4918 41.5831 32.9867 41.5831 34.637V70.0633C41.5831 71.9046 40.6182 73.5891 39.0642 74.4562C38.3526 74.854 37.5538 75.0529 36.679 75.0529H36.6805Z" fill="#FF5A24"/>
<path d="M37.5646 59.6448C35.4202 59.6448 34.379 58.411 34.334 58.355C34.1537 58.1359 34.1848 57.8143 34.4039 57.634C34.6215 57.4553 34.9431 57.4848 35.1234 57.7008C35.1638 57.7474 36.0169 58.7218 37.8536 58.6114C39.5132 58.5104 40.5528 57.0855 40.5636 54.8944C40.5636 54.6132 40.7936 54.3848 41.0764 54.3848H41.0795C41.3624 54.3848 41.5908 54.6163 41.5892 54.9007C41.5753 57.6418 40.1332 59.5003 37.9173 59.6355C37.7977 59.6432 37.6811 59.6463 37.5677 59.6463L37.5646 59.6448Z" fill="#FF5A24"/>
<path d="M36.0983 51.8411C36.0393 51.8411 35.9802 51.8318 35.9212 51.81C35.6555 51.7121 35.5203 51.4185 35.6166 51.1527C35.6259 51.1263 36.5458 48.5515 35.3214 47.372C33.9337 46.0357 32.2431 46.5982 32.1716 46.6231C31.9027 46.7132 31.6122 46.5733 31.5205 46.3061C31.4288 46.0388 31.5702 45.7466 31.8375 45.655C32.7061 45.3551 34.5662 45.2245 36.0331 46.6355C37.7408 48.2795 36.6282 51.3765 36.58 51.507C36.5039 51.7137 36.3081 51.8427 36.0983 51.8427V51.8411Z" fill="#FF5A24"/>
<path d="M29.0865 47.8746C28.4665 47.8746 28.0205 47.7736 27.977 47.7643C27.702 47.7006 27.5295 47.424 27.5947 47.1489C27.6585 46.8739 27.9351 46.7045 28.2085 46.7667C28.235 46.7729 30.2162 47.2049 31.3614 46.0177C32.4911 44.846 31.9986 42.8213 31.8199 42.2292C31.739 41.9588 31.8929 41.6729 32.1633 41.5906C32.4352 41.5082 32.7196 41.6621 32.8019 41.934C33.0195 42.6612 33.6146 45.1568 32.098 46.7278C31.1858 47.6742 29.9629 47.8746 29.0849 47.8746H29.0865Z" fill="#FF5A24"/>
<path d="M28.0751 61.2034C27.9958 61.2034 27.915 61.1847 27.8389 61.1459C27.5871 61.0153 27.4892 60.7061 27.6198 60.4559C27.6369 60.4217 28.7961 58.1079 27.5933 56.4281C26.8987 55.4585 25.3977 55.2534 24.2711 55.2658H24.2695C23.9867 55.2658 23.7583 55.0374 23.7567 54.7546C23.7567 54.4718 23.9836 54.2418 24.268 54.2402C25.6292 54.2465 27.4784 54.506 28.4278 55.8299C30.0035 58.0287 28.5925 60.8087 28.5319 60.9267C28.4402 61.1023 28.2615 61.2034 28.0766 61.2034H28.0751Z" fill="#FF5A24"/>
<path d="M28.5613 56.3322C28.2179 56.3322 27.9164 56.3089 27.6911 56.2824C27.4098 56.2498 27.2094 55.995 27.242 55.7137C27.2746 55.4324 27.5295 55.2304 27.8107 55.2646C28.4214 55.3361 30.4835 55.4666 31.3304 54.1613C32.3808 52.5422 31.6474 50.592 31.6396 50.5718C31.537 50.3076 31.6676 50.0108 31.9317 49.9083C32.1959 49.8057 32.4912 49.9347 32.5953 50.1973C32.6341 50.2967 33.5338 52.6494 32.1912 54.7177C31.3164 56.0649 29.705 56.3322 28.5628 56.3322H28.5613Z" fill="#FF5A24"/>
<path d="M37.8656 67.2262C37.847 67.2262 37.8299 67.2262 37.8112 67.2231C37.53 67.1936 37.3264 66.9418 37.3559 66.6606C37.3653 66.572 37.544 64.5395 35.903 63.4362C34.287 62.3484 32.1907 63.6724 32.1705 63.6864C31.9328 63.8402 31.6158 63.7703 31.4619 63.5341C31.3081 63.2963 31.3765 62.9809 31.6127 62.8271C31.7214 62.7571 34.2916 61.1208 36.4749 62.5862C38.6364 64.0407 38.3878 66.6575 38.3753 66.7678C38.3474 67.0304 38.1251 67.2262 37.8656 67.2262Z" fill="#FF5A24"/>
<path d="M36.1942 44.2669C35.9797 44.2669 35.7808 44.1317 35.7078 43.9189C35.6736 43.8178 34.8904 41.4279 36.1553 39.5756C37.6284 37.4204 41.0191 38.2735 41.162 38.3108C41.4355 38.3822 41.6002 38.6619 41.5288 38.9354C41.4573 39.2089 41.1776 39.3721 40.9041 39.3022C40.8777 39.2944 38.0666 38.5936 37.0006 40.1537C36.0201 41.5895 36.6712 43.5708 36.6774 43.591C36.7676 43.8598 36.623 44.1504 36.3558 44.2405C36.3014 44.2592 36.2454 44.2669 36.1926 44.2669H36.1942Z" fill="#FF5A24"/>
<path d="M137.597 145.074L139.963 168.551C140.04 169.317 140.591 169.894 141.246 169.894H141.94C142.609 169.894 143.167 169.293 143.227 168.508L145.31 141.143L137.598 145.075L137.597 145.074Z" fill="#FF5A24"/>
<path d="M201.271 145.073L203.679 168.981C203.731 169.501 204.107 169.893 204.551 169.893H205.99C206.445 169.893 206.824 169.485 206.865 168.95L208.981 141.141L201.269 145.073H201.271Z" fill="#FF5A24"/>
<path d="M161.028 145.1L163.436 169.008C163.488 169.529 163.864 169.921 164.308 169.921H165.747C166.202 169.921 166.581 169.512 166.622 168.977L168.738 141.168L161.026 145.1H161.028Z" fill="#FF5A24"/>
<path d="M228.788 145.1L231.197 169.008C231.249 169.529 231.624 169.921 232.068 169.921H233.508C233.962 169.921 234.341 169.512 234.382 168.977L236.498 141.168L228.787 145.1H228.788Z" fill="#FF5A24"/>
<path d="M127.33 108.751C127.449 99.6576 132.542 96.015 139.263 96.2843C153.444 96.8536 167.715 95.2327 170.316 92.2602C174.146 87.8837 171.475 72.5477 176.646 63.805C180.891 56.6296 236.586 60.7266 239.145 61.6161C243.939 63.283 244.031 67.7488 243.939 80.4773C243.861 91.3144 245.277 123.052 241.216 138.28C239.99 142.874 236.341 146.433 231.707 147.496C228.264 148.286 223.023 149.088 215.49 149.307H144.056C144.056 149.307 133.739 150.558 131.551 140.241C129.362 129.925 127.33 108.751 127.33 108.751Z" fill="#FFC7B5"/>
<path d="M241.655 136.462C245.002 120.619 243.861 90.9016 243.936 80.4793C244.028 67.7507 243.936 63.2849 239.142 61.6181L239.136 61.6155C238.675 61.456 238.17 61.4713 237.718 61.6564C237.679 61.6717 237.642 61.687 237.607 61.7036C228.254 65.7801 233.251 89.4861 230.435 94.5748C227.863 99.2205 222.229 98.9627 217.354 98.5989C202.708 97.5039 205 111.006 205 111.006L205.332 145.784C205.349 147.723 206.904 149.299 208.843 149.341C210.605 149.379 212.799 149.398 214.835 149.342C214.89 149.341 221.262 149.347 221.262 149.347C227.578 149.171 226.788 149.121 230.172 148.462C236.024 147.323 240.172 143.49 241.656 136.462H241.655Z" fill="#FF5A24"/>
<path d="M228.28 97.0542C228.134 97.0542 227.992 96.9789 227.915 96.8436C227.798 96.6419 227.867 96.3854 228.069 96.2693C228.993 95.7358 229.666 95.0963 230.068 94.3714C231.011 92.6663 231.03 88.5961 231.052 83.8827C231.089 75.8982 231.133 65.9622 235.931 62.2162C236.114 62.0733 236.379 62.1052 236.522 62.289C236.665 62.4715 236.633 62.737 236.449 62.8799C231.973 66.3744 231.929 76.0845 231.893 83.8866C231.871 88.7148 231.852 92.8845 230.804 94.7785C230.327 95.64 229.549 96.3867 228.49 96.998C228.424 97.0363 228.351 97.0542 228.28 97.0542Z" fill="black"/>
<path d="M244.051 92.5217C243.822 92.5217 243.633 92.3367 243.63 92.1056C243.615 90.8536 243.598 89.65 243.583 88.5078C243.54 85.2864 243.501 82.5053 243.515 80.4747C243.607 67.6734 243.426 63.5509 239.005 62.013C237.997 61.662 227.54 60.7124 215.291 60.281C215.059 60.2734 214.878 60.0781 214.885 59.8458C214.893 59.6135 215.088 59.4285 215.321 59.44C227.287 59.8611 238.105 60.8082 239.282 61.2178C244.484 63.0276 244.447 68.1367 244.358 80.4798C244.344 82.5015 244.381 85.2787 244.425 88.495C244.441 89.6373 244.457 90.8408 244.473 92.0942C244.475 92.3264 244.289 92.5179 244.057 92.5204H244.051V92.5217Z" fill="black"/>
<path d="M132.05 142.466C131.877 142.466 131.715 142.357 131.654 142.185C131.448 141.602 131.274 140.978 131.138 140.33C129.305 131.689 127.53 114.15 127.031 108.979C126.798 106.585 127.174 104.229 128.113 102.168C129.328 99.5028 131.905 96.2916 137.283 96.127H140.699C145.179 96.127 148.986 99.4785 149.554 103.923L150.202 109.005C150.231 109.236 150.068 109.446 149.837 109.476C149.607 109.505 149.395 109.342 149.366 109.111L148.718 104.029C148.203 100.003 144.756 96.968 140.699 96.968H137.296C133.338 97.0893 130.502 98.9565 128.879 102.516C128.001 104.443 127.651 106.65 127.868 108.898C128.367 114.056 130.137 131.556 131.961 140.154C132.091 140.766 132.255 141.354 132.447 141.904C132.524 142.124 132.409 142.364 132.19 142.44C132.144 142.457 132.096 142.464 132.05 142.464V142.466Z" fill="black"/>
<path d="M177.525 161.129C177.003 160.602 173.99 151.225 173.99 151.225L168.033 155.475L174.563 164.251L177.525 161.129Z" fill="white"/>
<path d="M174.564 164.671C174.556 164.671 174.547 164.671 174.538 164.671C174.414 164.663 174.299 164.602 174.225 164.503L167.696 155.727C167.628 155.636 167.6 155.523 167.618 155.41C167.636 155.298 167.697 155.198 167.789 155.133L173.746 150.883C173.855 150.805 173.994 150.784 174.122 150.826C174.25 150.868 174.349 150.969 174.39 151.096C175.8 155.484 177.488 160.393 177.836 160.846C177.996 161.008 177.987 161.254 177.83 161.419L174.867 164.541C174.788 164.625 174.677 164.672 174.562 164.672L174.564 164.671ZM168.628 155.567L174.602 163.598L177.007 161.064C176.297 159.628 174.648 154.634 173.765 151.902L168.628 155.567Z" fill="black"/>
<path d="M166.794 172.983L170.755 172.96C173.376 172.945 175.813 171.613 177.243 169.416L181.16 163.215C182.242 161.501 181.637 159.231 179.846 158.28C178.211 157.411 176.499 156.565 176.098 156.603C175.282 156.681 174.954 160.535 174.954 160.535L171.425 160.67C171.425 160.67 169.682 167.92 168.148 168.744C167.03 169.344 166.25 170.226 165.725 171.031C165.175 171.874 165.789 172.989 166.795 172.983H166.794Z" fill="white"/>
<path d="M166.788 173.406C166.17 173.406 165.602 173.07 165.306 172.526C165.005 171.974 165.029 171.331 165.372 170.803C166.068 169.738 166.935 168.921 167.948 168.376C168.945 167.84 170.358 163.306 171.015 160.575L171.089 160.265L174.567 160.131C174.749 158.298 175.155 156.271 176.056 156.186C176.262 156.168 176.684 156.126 180.042 157.91C180.999 158.419 181.708 159.312 181.986 160.358C182.263 161.403 182.091 162.528 181.514 163.442L177.598 169.643C176.083 171.971 173.528 173.368 170.757 173.383L166.797 173.406H166.787H166.788ZM171.759 161.082C171.328 162.816 169.859 168.307 168.347 169.117C167.459 169.595 166.696 170.316 166.078 171.263C165.907 171.526 165.894 171.847 166.045 172.123C166.196 172.4 166.473 172.563 166.788 172.563H166.793L170.753 172.54C173.24 172.526 175.534 171.273 176.891 169.188L180.804 162.991C181.264 162.264 181.395 161.405 181.174 160.573C180.954 159.739 180.411 159.056 179.649 158.652C177.042 157.266 176.337 157.056 176.165 157.027C175.879 157.3 175.515 158.92 175.373 160.571L175.342 160.941L171.759 161.079V161.082Z" fill="black"/>
<path d="M167.192 171.858C166.988 171.858 166.808 171.709 166.776 171.5C166.742 171.27 166.9 171.055 167.13 171.021L172.548 170.205C173.643 170.041 174.596 169.401 175.165 168.45L179.953 160.453C180.073 160.253 180.332 160.189 180.53 160.308C180.729 160.428 180.794 160.685 180.675 160.885L175.888 168.882C175.19 170.048 174.018 170.833 172.673 171.036L167.255 171.852C167.233 171.856 167.213 171.857 167.191 171.857L167.192 171.858Z" fill="black"/>
<path d="M173.877 165.846C173.84 165.846 173.803 165.841 173.766 165.831L170.747 165.009C170.523 164.948 170.391 164.717 170.452 164.492C170.514 164.267 170.746 164.135 170.969 164.197L173.988 165.019C174.212 165.08 174.344 165.311 174.283 165.536C174.232 165.724 174.062 165.846 173.877 165.846Z" fill="black"/>
<path d="M172.31 167.394C172.277 167.394 172.244 167.39 172.209 167.382L170.185 166.887C169.959 166.832 169.821 166.604 169.876 166.378C169.931 166.152 170.159 166.013 170.385 166.069L172.41 166.564C172.635 166.619 172.773 166.848 172.718 167.074C172.671 167.266 172.499 167.394 172.31 167.394Z" fill="black"/>
<path d="M157.2 159.341L153.954 162.852C152.835 164.061 152.116 165.584 151.89 167.213L151.525 169.854L139.673 166.968L143.854 165.096C146.462 163.928 148.763 162.171 150.576 159.963L152.994 156.055L157.2 159.342V159.341Z" fill="white"/>
<path d="M151.524 170.276C151.491 170.276 151.458 170.273 151.424 170.265L139.573 167.379C139.398 167.337 139.269 167.188 139.252 167.009C139.236 166.83 139.335 166.661 139.5 166.587L143.681 164.714C146.208 163.582 148.472 161.855 150.232 159.719L152.636 155.834C152.698 155.732 152.802 155.662 152.919 155.641C153.036 155.621 153.158 155.65 153.252 155.724L157.459 159.012C157.552 159.085 157.609 159.192 157.62 159.309C157.63 159.427 157.589 159.543 157.509 159.63L154.262 163.141C153.197 164.292 152.521 165.721 152.305 167.275L151.94 169.915C151.923 170.033 151.858 170.139 151.76 170.205C151.69 170.253 151.607 170.278 151.523 170.278L151.524 170.276ZM140.966 166.852L151.17 169.336L151.472 167.157C151.71 165.433 152.462 163.845 153.644 162.568L156.581 159.392L153.105 156.676L150.934 160.185C150.924 160.2 150.914 160.215 150.901 160.231C149.057 162.477 146.679 164.293 144.026 165.481L140.966 166.852Z" fill="black"/>
<path d="M152.477 165.205C152.477 165.205 152.812 168.161 152.245 170.773C151.942 172.166 150.688 173.145 149.264 173.145H132.293C131.08 173.145 130.53 171.631 131.459 170.851C134.476 168.323 140.028 164.462 146.853 163.33L148.757 165.995L152.477 165.206V165.205Z" fill="white"/>
<path d="M149.262 173.563H132.291C131.56 173.563 130.926 173.119 130.675 172.432C130.425 171.745 130.627 170.997 131.189 170.527C133.982 168.186 139.722 164.084 146.784 162.913L147.043 162.869L148.939 165.523L152.844 164.696L152.896 165.156C152.91 165.28 153.232 168.212 152.656 170.861C152.316 172.427 150.89 173.565 149.264 173.565L149.262 173.563ZM146.662 163.787C139.916 164.983 134.421 168.915 131.728 171.171C131.381 171.462 131.366 171.865 131.467 172.144C131.568 172.424 131.838 172.721 132.291 172.721H149.262C150.495 172.721 151.575 171.863 151.831 170.681C152.246 168.768 152.162 166.633 152.097 165.713L148.573 166.459L146.662 163.786V163.787Z" fill="black"/>
<path d="M150.683 171.227H133.094C132.862 171.227 132.673 171.038 132.673 170.806C132.673 170.574 132.862 170.385 133.094 170.385H150.683C150.915 170.385 151.104 170.574 151.104 170.806C151.104 171.038 150.915 171.227 150.683 171.227Z" fill="black"/>
<path d="M142.909 168.104C142.743 168.104 142.586 168.006 142.52 167.844L141.589 165.586C141.501 165.372 141.603 165.126 141.818 165.037C142.032 164.949 142.279 165.052 142.368 165.266L143.298 167.524C143.386 167.738 143.284 167.984 143.07 168.074C143.018 168.096 142.963 168.106 142.91 168.106L142.909 168.104Z" fill="black"/>
<path d="M139.848 168.698C139.672 168.698 139.507 168.586 139.448 168.409L138.775 166.372C138.702 166.152 138.822 165.914 139.043 165.84C139.263 165.766 139.501 165.886 139.575 166.108L140.249 168.145C140.321 168.366 140.203 168.603 139.981 168.677C139.937 168.691 139.893 168.699 139.848 168.699V168.698Z" fill="black"/>
<path d="M193.806 110.724C193.806 110.724 162.202 107.046 152.805 115.18C143.407 123.315 167.639 158.297 167.639 158.297L175.302 152.614L168.033 127.888L197.248 119.592L193.806 110.723V110.724Z" fill="#FF5A24"/>
<path d="M167.638 158.717C167.615 158.717 167.592 158.716 167.569 158.712C167.457 158.693 167.356 158.63 167.292 158.536C166.294 157.095 142.955 123.148 152.528 114.861C161.957 106.699 192.555 110.154 193.853 110.304C194.008 110.322 194.141 110.424 194.197 110.57L197.639 119.439C197.682 119.55 197.676 119.673 197.624 119.778C197.571 119.884 197.476 119.964 197.362 119.995L168.556 128.175L175.706 152.493C175.755 152.662 175.694 152.844 175.553 152.95L167.89 158.633C167.817 158.687 167.729 158.716 167.639 158.716L167.638 158.717ZM178.2 110.326C168.869 110.326 157.905 111.319 153.079 115.496C144.57 122.862 165.23 153.988 167.74 157.696L174.816 152.449L167.629 128.005C167.597 127.898 167.61 127.782 167.665 127.684C167.72 127.586 167.811 127.513 167.919 127.482L196.688 119.311L193.506 111.112C192.17 110.969 185.714 110.326 178.201 110.326H178.2Z" fill="black"/>
<path d="M211.308 126.479C206.717 127.936 198.503 129.819 187.023 129.663C183.76 129.618 180.75 131.42 179.268 134.327C175.868 140.995 168.507 153.003 156.518 160.786L150.792 157.701L165.407 124.803C166.741 121.8 169.237 119.465 172.322 118.333L201.287 107.712C201.287 107.712 212.924 103.001 217.266 113.247C218.88 117.056 215.252 125.228 211.309 126.48L211.308 126.479Z" fill="#FF5A24"/>
<path d="M156.517 161.205C156.448 161.205 156.379 161.188 156.317 161.154L150.591 158.069C150.397 157.964 150.317 157.728 150.406 157.528L165.021 124.63C166.394 121.54 169.002 119.1 172.176 117.936L201.14 107.314C201.248 107.271 213.199 102.574 217.652 113.079C218.464 114.994 218.091 118.089 216.681 121.153C215.311 124.129 213.35 126.269 211.436 126.876C206.562 128.423 198.366 130.238 187.018 130.08C183.894 130.027 181.06 131.736 179.644 134.513C176.297 141.077 168.872 153.264 156.748 161.135C156.679 161.179 156.599 161.202 156.518 161.202L156.517 161.205ZM151.334 157.514L156.497 160.295C168.333 152.527 175.603 140.585 178.892 134.133C180.455 131.067 183.576 129.189 187.028 129.24C198.273 129.399 206.366 127.604 211.18 126.076C212.847 125.546 214.662 123.526 215.915 120.803C217.21 117.989 217.587 115.087 216.876 113.41C215.145 109.326 212.035 107.189 207.633 107.058C204.308 106.954 201.471 108.09 201.443 108.102L172.466 118.728C169.503 119.814 167.071 122.091 165.791 124.973L151.334 157.515V157.514Z" fill="black"/>
<path d="M221.846 76.6285C224.317 78.1065 226.404 79.9929 227.304 82.3668C230.27 90.1867 227.91 98.6818 227.91 98.6818L216.75 96.2045C216.287 96.1011 215.841 96.4393 215.816 96.9128L215.183 108.417C214.944 112.759 214.015 116.526 212.69 119.757C211.421 122.855 203.915 120.242 197.39 114.891C195.414 113.271 192.59 111.179 188.064 110.868L188.895 97.602L182.689 96.872C182.689 96.872 180.13 81.4019 193.392 76.3452C202.113 73.0192 215.979 73.12 221.845 76.6285H221.846Z" fill="#FEB9A3"/>
<path d="M210.165 121.502C206.983 121.502 201.78 119.035 197.125 115.218C194.842 113.344 192.159 111.573 188.038 111.289C187.807 111.274 187.632 111.073 187.646 110.842L188.451 97.9748L182.642 97.2907C182.455 97.269 182.306 97.126 182.275 96.941C182.248 96.7802 181.635 92.9398 182.658 88.4127C183.609 84.2073 186.219 78.6311 193.244 75.9535C202.124 72.5674 216.129 72.7206 222.063 76.2687C224.962 78.0032 226.859 80.0044 227.699 82.2188C230.68 90.0783 228.415 98.4432 228.318 98.7954C228.258 99.0111 228.041 99.14 227.821 99.0941L216.661 96.6168C216.525 96.5862 216.424 96.6423 216.375 96.6793C216.327 96.7163 216.245 96.798 216.238 96.9384L215.605 108.442C215.38 112.518 214.531 116.379 213.081 119.918C212.78 120.653 212.164 121.158 211.298 121.376C210.959 121.461 210.58 121.503 210.166 121.503L210.165 121.502ZM188.511 110.483C192.634 110.868 195.343 112.668 197.659 114.565C202.646 118.656 208.422 121.232 211.092 120.558C211.706 120.402 212.101 120.088 212.303 119.598C213.717 116.147 214.544 112.378 214.764 108.395L215.397 96.8899C215.416 96.5402 215.587 96.2186 215.866 96.0067C216.146 95.7961 216.502 95.717 216.843 95.7936L227.602 98.1815C228.006 96.4445 229.44 89.1798 226.911 82.5162C226.14 80.4831 224.364 78.6235 221.631 76.9898C215.878 73.5489 202.229 73.4277 193.545 76.7384C181.78 81.2246 182.806 94.3029 183.067 96.4917L188.948 97.1835C189.17 97.209 189.333 97.4043 189.319 97.6276L188.514 110.481L188.511 110.483Z" fill="black"/>
<path d="M203.307 102.76L203.422 122.874C203.183 127.276 199.741 129.278 199.033 129.419C193.291 130.564 186.655 130.033 186.655 130.033L186.634 140.13H213.007C216.315 140.13 218.996 138.058 218.987 135.283L218.886 102.732C218.877 99.9787 216.226 97.7477 212.946 97.7299C212.232 97.7261 210.115 97.7312 209.402 97.7197C206.036 97.6661 203.289 99.9455 203.306 102.76H203.307Z" fill="#FFC7B5"/>
<path d="M213.009 140.551H178.94C178.708 140.551 178.519 140.362 178.519 140.13C178.519 139.898 178.708 139.709 178.94 139.709H213.009C214.742 139.709 216.337 139.106 217.384 138.056C218.161 137.276 218.571 136.318 218.567 135.284L218.466 102.733C218.458 100.223 215.981 98.1664 212.945 98.1498C212.688 98.1485 212.251 98.1485 211.762 98.1485C210.889 98.1485 209.855 98.1485 209.397 98.1409C207.708 98.1256 206.108 98.7165 205.019 99.7937C204.181 100.625 203.722 101.678 203.729 102.759L203.844 122.887C203.858 125.25 202.734 129.288 198.431 129.437C198.197 129.446 198.003 129.264 197.996 129.031C197.988 128.799 198.169 128.604 198.401 128.596C202.059 128.468 203.014 124.951 203.001 122.892L202.886 102.764C202.879 101.454 203.425 100.187 204.426 99.1964C205.674 97.9609 207.489 97.2692 209.409 97.2998C209.865 97.3075 210.893 97.3075 211.762 97.3075C212.253 97.3075 212.692 97.3075 212.95 97.3087C216.447 97.3279 219.3 99.7605 219.309 102.73L219.409 135.281C219.413 136.544 218.919 137.709 217.981 138.651C216.778 139.858 214.965 140.551 213.01 140.551H213.009Z" fill="black"/>
<path d="M205.317 91.3874C204.646 90.6663 204.288 90.1966 204.151 89.9746C204.151 89.9746 203.907 89.727 203.841 89.3224C203.636 88.0716 203.296 84.9561 202.127 84.0512C200.17 82.535 198.547 84.1661 198.547 84.1661C198.547 84.1661 197.155 82.632 196.211 83.6262C195.488 84.3895 194.959 85.7615 195.608 87.4781C196.491 89.8163 197.548 91.9911 200.481 92.6369C201.05 92.762 201.562 93.0734 201.928 93.5316L205.319 91.3887L205.317 91.3874Z" fill="white"/>
<path d="M201.927 93.9525C201.803 93.9525 201.681 93.8977 201.598 93.7943C201.298 93.4191 200.869 93.1536 200.389 93.0477C197.242 92.3533 196.106 89.9884 195.214 87.6259C194.321 85.2635 195.517 83.7447 195.905 83.3363C196.199 83.0261 196.575 82.8768 196.974 82.8691C197.622 82.8768 198.221 83.2993 198.565 83.5992C199.359 83.0197 200.843 82.5233 202.385 83.7179C203.557 84.6253 203.949 87.2252 204.183 88.7784C204.21 88.9558 204.234 89.1166 204.257 89.2532C204.3 89.5123 204.455 89.6808 204.457 89.682C204.476 89.7025 204.497 89.7293 204.511 89.7535C204.642 89.9654 205.003 90.43 205.626 91.1C205.711 91.1919 205.751 91.317 205.735 91.4408C205.72 91.5646 205.649 91.6756 205.543 91.742L202.152 93.8849C202.081 93.9296 202.004 93.95 201.927 93.95V93.9525ZM196.957 83.7115C196.789 83.7115 196.648 83.7766 196.515 83.9157C196.213 84.2348 195.281 85.4243 196.001 87.3285C196.846 89.5646 197.831 91.6207 200.57 92.2257C201.111 92.3457 201.607 92.6112 202 92.9877L204.668 91.3004C204.149 90.7171 203.912 90.3802 203.815 90.2296C203.721 90.1224 203.497 89.8263 203.425 89.391C203.402 89.2506 203.378 89.086 203.35 88.9048C203.164 87.6655 202.774 85.0861 201.868 84.3841C200.238 83.1218 198.898 84.4096 198.842 84.4645C198.76 84.5449 198.648 84.5909 198.535 84.587C198.42 84.5832 198.311 84.5347 198.233 84.4492C198.047 84.2463 197.456 83.7166 196.961 83.7115H196.954H196.957Z" fill="black"/>
<path d="M209.628 94.1992L211.461 89.9134L209.346 89.1246C209.23 89.0812 209.103 89.0659 208.981 89.08L208.758 89.1055C208.477 89.1387 208.197 89.0161 208.033 88.7877C207.943 88.6639 207.817 88.5682 207.673 88.5146L191.958 82.6372C191.827 82.5887 191.692 82.5581 191.556 82.544L187.335 82.1445L190.425 84.8018C190.593 84.946 190.78 85.0685 190.98 85.1655L206.044 92.4622C206.173 92.5247 206.316 92.5502 206.458 92.5375L206.493 92.5336C206.767 92.5094 207.033 92.6294 207.195 92.8476L207.277 92.9586C207.352 93.0595 207.451 93.1424 207.566 93.1973L209.629 94.1967L209.628 94.1992Z" fill="white"/>
<path d="M209.628 94.6219C209.565 94.6219 209.501 94.6079 209.444 94.5798L207.38 93.5804C207.205 93.4962 207.052 93.3686 206.937 93.2129L206.856 93.1018C206.78 93.001 206.655 92.941 206.53 92.9563L206.496 92.9589C206.276 92.9806 206.058 92.9385 205.86 92.8427L190.795 85.5461C190.562 85.4338 190.344 85.2908 190.149 85.1224L187.059 82.4651C186.92 82.3451 186.874 82.1499 186.947 81.9814C187.018 81.8117 187.192 81.7057 187.374 81.7274L191.595 82.1269C191.77 82.1435 191.941 82.1831 192.105 82.2443L207.821 88.1217C208.043 88.2046 208.234 88.3502 208.373 88.5416C208.45 88.6475 208.58 88.7024 208.709 88.6884L208.932 88.6628C209.121 88.6411 209.315 88.6654 209.494 88.7318L211.609 89.5205C211.716 89.5614 211.803 89.643 211.849 89.749C211.893 89.8549 211.893 89.9749 211.849 90.0808L210.016 94.3666C209.971 94.4726 209.884 94.5555 209.776 94.5951C209.729 94.613 209.679 94.6219 209.628 94.6219ZM206.56 92.1127C206.94 92.1127 207.305 92.2939 207.532 92.6015L207.614 92.7126C207.648 92.7585 207.694 92.7968 207.746 92.8223L209.413 93.6302L210.899 90.1548L209.198 89.5205C209.144 89.5001 209.085 89.4937 209.028 89.5001L208.805 89.5256C208.373 89.5754 207.946 89.3891 207.69 89.0368C207.649 88.9794 207.592 88.936 207.524 88.9104L191.808 83.0331C191.712 82.9973 191.614 82.9744 191.513 82.9654L188.61 82.691L190.695 84.4842C190.835 84.6055 190.992 84.7076 191.16 84.7893L206.225 92.0859C206.285 92.1152 206.351 92.128 206.417 92.1203L206.451 92.1178C206.487 92.114 206.523 92.1127 206.558 92.1127H206.56Z" fill="black"/>
<path d="M191.255 84.1281C191.197 84.1281 191.135 84.1154 191.079 84.0885C190.868 83.9903 190.777 83.7401 190.874 83.5295L191.379 82.4408C191.477 82.2302 191.727 82.1396 191.938 82.2354C192.149 82.3336 192.241 82.5838 192.144 82.7944L191.638 83.8831C191.567 84.0362 191.415 84.1268 191.255 84.1268V84.1281Z" fill="black"/>
<path d="M215.017 91.3593L211.387 89.8711L209.595 94.2029L213.225 95.691C213.89 95.9642 214.647 95.6579 214.915 95.0095L215.734 93.0287C216.002 92.379 215.68 91.6324 215.016 91.3593H215.017Z" fill="#FF9A79"/>
<path d="M213.73 96.2105C213.509 96.2105 213.286 96.1684 213.069 96.079L209.049 94.4313L211.162 89.3223L215.18 90.9687C215.612 91.1461 215.946 91.4779 216.123 91.9029C216.296 92.319 216.298 92.7747 216.127 93.1869L215.308 95.1677C215.04 95.8174 214.403 96.2092 213.73 96.2092V96.2105ZM210.149 93.9731L213.388 95.3005C213.838 95.4855 214.349 95.2813 214.529 94.8474L215.349 92.8666C215.433 92.6623 215.432 92.4352 215.346 92.2271C215.255 92.0089 215.083 91.8391 214.86 91.7472L211.619 90.4186L210.149 93.9718V93.9731Z" fill="#FF9A79"/>
<path d="M214.186 93.1171C214.135 93.1171 214.084 93.1081 214.034 93.089L212.033 92.3117C211.816 92.2275 211.709 91.9837 211.793 91.7667C211.877 91.5498 212.121 91.4425 212.338 91.5268L214.339 92.3041C214.556 92.3883 214.663 92.6321 214.579 92.849C214.514 93.0162 214.356 93.1171 214.187 93.1171H214.186Z" fill="white"/>
<path d="M205.22 90.4188C205.22 90.4188 203.874 87.713 201.476 86.4138C200.005 85.6174 197.55 81.0444 196.023 84.0067C195.694 84.6448 195.454 85.0481 195.423 85.9364C195.407 86.4214 195.529 87.5841 195.73 88.1125C196.702 90.6856 197.965 92.6383 201.194 93.3479C201.815 93.4845 202.374 93.8278 202.775 94.3281C203.032 94.6485 209.218 112.355 214.523 114.219C221.164 116.552 225.105 105.193 226.806 98.5603C227.48 95.9337 216.652 93.6734 216.003 95.9937C215.562 97.5648 215.501 98.0447 215.15 98.8092C214.097 101.095 213.534 101.059 213.312 101.235C212.953 101.52 205.222 90.4188 205.222 90.4188H205.22Z" fill="white"/>
<path d="M216.263 114.951C215.644 114.951 215.016 114.84 214.382 114.616C209.659 112.957 204.529 99.8993 202.843 95.6084C202.649 95.1132 202.479 94.6818 202.424 94.5656C202.09 94.1585 201.621 93.8726 201.103 93.759C197.763 93.0264 196.381 91.0316 195.334 88.262C195.115 87.68 194.983 86.4611 195.001 85.9225C195.033 84.9998 195.276 84.5339 195.582 83.9417L195.647 83.8154C196.018 83.0942 196.493 82.6897 197.057 82.6131C198.179 82.4612 199.25 83.6201 200.284 84.7394C200.808 85.3074 201.305 85.8447 201.675 86.0451C204.055 87.3354 205.418 89.8867 205.582 90.2045C208.156 93.8994 212.35 99.7615 213.325 100.744C213.573 100.604 214.024 100.244 214.766 98.6345C214.997 98.1342 215.093 97.7704 215.282 97.0455C215.365 96.7315 215.463 96.3563 215.596 95.8815C216.093 94.1049 220.14 94.498 222.739 95.1949C225.883 96.0385 227.555 97.3352 227.214 98.6651C225.704 104.55 223.021 112.038 218.812 114.288C217.987 114.729 217.135 114.951 216.264 114.951H216.263ZM197.256 83.4401C197.227 83.4401 197.199 83.4427 197.171 83.4465C196.895 83.4835 196.635 83.7375 196.396 84.2008L196.33 84.3297C196.043 84.8849 195.869 85.2193 195.843 85.9519C195.828 86.4024 195.949 87.5077 196.123 87.9646C197.099 90.5504 198.304 92.2836 201.284 92.9371C202.002 93.0941 202.647 93.4948 203.103 94.0653C203.175 94.1547 203.213 94.2466 203.628 95.3008C208.058 106.574 211.77 112.807 214.663 113.823C215.977 114.285 217.205 114.194 218.415 113.547C222.562 111.33 225.197 103.141 226.398 98.4558C226.595 97.6926 224.964 96.6626 222.521 96.0079C219.333 95.1528 216.617 95.3595 216.406 96.1087C216.275 96.5771 216.178 96.9485 216.096 97.2587C215.899 98.0066 215.792 98.4175 215.53 98.9855C214.583 101.042 213.967 101.361 213.635 101.532C213.61 101.544 213.588 101.555 213.569 101.567C213.474 101.643 213.351 101.675 213.225 101.657C213.015 101.626 212.456 101.544 204.875 90.6602L204.843 90.6078C204.83 90.5823 203.523 88.0042 201.274 86.784C200.782 86.5173 200.24 85.9315 199.666 85.3099C198.894 84.4739 197.939 83.4401 197.256 83.4401Z" fill="black"/>
<path d="M172.824 84.8828H187.93C188.406 84.8828 188.858 85.2785 188.937 85.7673L192.365 106.742C192.446 107.231 192.124 107.627 191.647 107.627H176.54C176.064 107.627 175.612 107.231 175.533 106.742L172.105 85.7673C172.025 85.2785 172.346 84.8828 172.824 84.8828Z" fill="#FF5A24"/>
<path d="M191.646 108.049H176.54C175.856 108.049 175.231 107.505 175.117 106.811L171.688 85.8375C171.629 85.4763 171.721 85.1189 171.943 84.8585C172.16 84.6033 172.471 84.4629 172.822 84.4629H187.929C188.613 84.4629 189.238 85.0066 189.352 85.7009L192.781 106.674C192.84 107.036 192.748 107.393 192.526 107.653C192.309 107.909 191.997 108.049 191.646 108.049ZM172.822 85.3052C172.721 85.3052 172.64 85.3397 172.585 85.4048C172.524 85.4776 172.499 85.5835 172.52 85.7022L175.949 106.676C175.995 106.959 176.272 107.208 176.541 107.208H191.648C191.749 107.208 191.83 107.173 191.885 107.108C191.948 107.036 191.971 106.93 191.951 106.811L188.523 85.8375C188.477 85.5541 188.2 85.3052 187.931 85.3052H172.825H172.822Z" fill="black"/>
<path d="M173.251 93.0897L173.73 95.9052L181.328 94.5855C182.459 94.403 183.542 95.1816 183.663 96.3111C183.754 97.1522 183.529 98.1209 182.457 98.9186C181.196 99.8554 177.304 101.254 174.173 101.831C170.669 102.476 170.41 97.4062 171.277 94.874C171.952 92.8995 173.251 93.091 173.251 93.091V93.0897Z" fill="white"/>
<path d="M173.592 102.306C172.765 102.306 172.059 101.99 171.527 101.372C170.102 99.7191 170.298 96.4351 170.88 94.7364C171.659 92.4569 173.247 92.6637 173.314 92.6726C173.494 92.6994 173.636 92.8385 173.667 93.0185L174.074 95.4166L181.256 94.1697C181.931 94.0599 182.623 94.2335 183.162 94.6432C183.686 95.0427 184.013 95.6183 184.082 96.2641C184.209 97.4574 183.735 98.4913 182.708 99.2545C181.345 100.268 177.393 101.664 174.249 102.242C174.022 102.284 173.802 102.305 173.591 102.305L173.592 102.306ZM172.903 93.543C172.572 93.6362 172.037 93.954 171.676 95.0095C171.056 96.8231 171.103 99.5927 172.165 100.823C172.641 101.374 173.273 101.57 174.098 101.417C177.365 100.815 181.073 99.4242 182.208 98.5806C182.993 97.9973 183.343 97.2481 183.247 96.356C183.202 95.9425 182.992 95.5736 182.652 95.3145C182.297 95.044 181.841 94.9304 181.396 95.0006L173.802 96.319C173.691 96.3381 173.579 96.3126 173.487 96.2475C173.395 96.1837 173.334 96.0841 173.315 95.9744L172.901 93.5418L172.903 93.543Z" fill="black"/>
<path d="M208.718 65.777L210.384 73.8828C210.576 74.7149 211.262 75.3442 212.114 75.4705L213.133 75.6211C213.669 75.7003 213.831 76.3831 213.391 76.697C211.327 78.1648 206.513 80.6663 200.66 77.5407C200.153 77.2369 200.237 76.4839 200.799 76.2963L202.162 75.8394C202.962 75.5713 203.524 74.8541 203.586 74.0194L202.952 64.9219L208.721 65.7783L208.718 65.777Z" fill="white"/>
<path d="M206.333 79.4499C204.557 79.4499 202.571 79.0376 200.46 77.9106C200.065 77.6758 199.861 77.2648 199.908 76.8309C199.956 76.3944 200.245 76.0357 200.664 75.8954L202.026 75.4397C202.658 75.2278 203.1 74.6714 203.162 74.0166L202.529 64.9511C202.52 64.8234 202.57 64.6996 202.663 64.6128C202.756 64.526 202.885 64.4839 203.01 64.5056L208.779 65.362C208.954 65.3876 209.094 65.5203 209.13 65.6939L210.795 73.7997C210.947 74.457 211.49 74.9534 212.175 75.0555L213.192 75.2061C213.607 75.2674 213.938 75.5699 214.035 75.9745C214.132 76.3803 213.973 76.799 213.633 77.0415C212.378 77.9336 209.741 79.4511 206.332 79.4511L206.333 79.4499ZM203.406 65.4144L204.004 73.9886C204.005 74.009 204.005 74.0294 204.004 74.0498C203.929 75.0555 203.257 75.9145 202.294 76.2374L200.931 76.693C200.78 76.7441 200.751 76.8692 200.744 76.9202C200.739 76.9713 200.741 77.0976 200.873 77.1768C206.395 80.1237 210.933 77.926 213.145 76.3523C213.232 76.291 213.227 76.2106 213.216 76.1672C213.206 76.1251 213.173 76.0511 213.068 76.0357L212.051 75.8851C211.022 75.732 210.206 74.9828 209.973 73.9771L208.364 66.1495L203.404 65.4131L203.406 65.4144Z" fill="black"/>
<path d="M197.061 56.913C198.823 56.308 197.08 58.7636 203.17 54.9896C205.595 53.4861 205.11 56.9079 205.741 56.5199C208.069 55.0866 208.71 54.7203 210.034 54.6935C210.911 54.6769 213.087 55.7898 213.122 56.9577C213.232 60.7687 211.371 60.2748 211.151 63.6876C210.997 66.0845 210.563 66.9218 209.768 67.4884C208.964 68.0615 207.973 67.0596 207.048 67.6199C205.851 68.3448 206.726 70.4967 205.721 71.7743C205.086 72.5796 203.308 73.3696 199.938 72.7736C199.391 72.6766 198.993 72.2056 198.993 71.653C198.993 70.9447 198.996 70.05 199.072 69.1936C199.433 65.1171 200.527 63.911 199.781 63.0916C198.637 61.8357 196.073 63.4604 195.275 62.3883C194.446 61.2754 194.65 57.74 197.063 56.9117L197.061 56.913Z" fill="black"/>
<path d="M205.079 61.5055L204.83 62.5967C204.713 63.1111 204.633 63.6306 204.587 64.1551C204.502 65.1391 204.292 66.8226 204.185 67.7709C203.84 70.8187 199.6 68.7677 199.6 68.7677L199.153 68.081L198.645 68.0249C198.547 68.0147 198.45 67.9827 198.371 67.9253C198.172 67.7798 198.103 67.5322 198.177 67.314C198.582 66.1232 199.382 63.48 199.333 61.3243C199.333 61.3243 202.044 59.7583 205.081 61.5081L205.079 61.5055Z" fill="white"/>
<path d="M202.253 69.8591C200.913 69.8591 199.497 69.1839 199.418 69.1456C199.349 69.1124 199.29 69.0601 199.248 68.9963L198.91 68.4768L198.599 68.4424C198.419 68.4219 198.255 68.3607 198.122 68.2637C197.78 68.0122 197.641 67.5757 197.777 67.1763C198.135 66.1259 198.959 63.4546 198.911 61.3321C198.907 61.1789 198.989 61.0347 199.121 60.9581C199.24 60.8892 202.08 59.2925 205.29 61.1406C205.449 61.2325 205.531 61.4189 205.49 61.5988L205.241 62.6901C205.129 63.1827 205.05 63.6881 205.006 64.191C204.945 64.907 204.816 66.0046 204.712 66.8853C204.671 67.2324 204.633 67.5528 204.603 67.817C204.51 68.644 204.155 69.2337 203.549 69.5668C203.165 69.7786 202.713 69.8578 202.253 69.8578V69.8591ZM199.888 68.436C200.585 68.7499 202.259 69.3192 203.144 68.8304C203.502 68.6338 203.706 68.2713 203.767 67.7225C203.797 67.4571 203.835 67.1354 203.876 66.787C203.979 65.9115 204.108 64.8215 204.168 64.1195C204.214 63.5771 204.299 63.0334 204.419 62.5037L204.597 61.7239C202.38 60.5905 200.391 61.2963 199.753 61.5835C199.738 63.7009 199.015 66.1476 198.573 67.4494C198.559 67.4902 198.564 67.5464 198.617 67.586C198.628 67.5936 198.652 67.6026 198.69 67.6077L199.198 67.6638C199.323 67.6779 199.437 67.7468 199.504 67.8527L199.885 68.4385L199.888 68.436Z" fill="black"/>
<path d="M205.279 65.0142C205.279 65.0142 205.874 62.3914 207.014 62.907C208.153 63.4239 207.426 66.2956 205.279 65.0142Z" fill="white"/>
<path d="M118.841 106.893C125.687 100.048 125.687 88.9484 118.841 82.1026C111.995 75.2568 100.896 75.2568 94.0501 82.1026C87.2043 88.9484 87.2043 100.048 94.0501 106.893C100.896 113.739 111.995 113.739 118.841 106.893Z" fill="white"/>
<path d="M106.446 112.539C96.4982 112.539 88.4054 104.446 88.4054 94.4961C88.4054 84.5463 96.4982 76.4551 106.446 76.4551C116.395 76.4551 124.487 84.5479 124.487 94.4961C124.487 104.444 116.395 112.539 106.446 112.539ZM106.446 77.4807C97.0638 77.4807 89.4294 85.1135 89.4294 94.4976C89.4294 103.882 97.0623 111.515 106.446 111.515C115.831 111.515 123.463 103.882 123.463 94.4976C123.463 85.1135 115.831 77.4807 106.446 77.4807Z" fill="#FF5A24"/>
<path d="M106.76 95.534C106.76 95.534 105.863 88.6858 105.82 88.6237C105.078 87.5857 103.618 86.1934 101.114 86.1934C97.1284 86.1934 94.7261 89.9942 94.7261 93.127C94.7261 97.4049 102.508 103.509 105.389 105.622C105.419 105.644 105.478 105.686 105.478 105.686L103.392 97.7841L106.76 95.5324V95.534Z" fill="#FF5A24"/>
<path d="M118.166 93.127C118.134 89.9942 115.766 86.1934 111.778 86.1934C110.102 86.1934 108.891 86.8196 108.053 87.5453C108.049 87.5484 108.041 87.5562 108.041 87.5562L109.208 96.3513L105.856 98.8267L107.496 105.63C107.496 105.63 107.517 105.614 107.528 105.606C109.373 104.248 118.211 97.5075 118.166 93.1301V93.127Z" fill="#FF5A24"/>
<path d="M71.0453 96.9956C70.9381 96.9956 70.8309 96.963 70.7392 96.893C70.5124 96.7236 70.4657 96.402 70.6367 96.1751C71.4431 95.0967 72.2186 93.9732 72.9396 92.8342C73.0903 92.5949 73.4073 92.5249 73.6466 92.6757C73.8859 92.8264 73.9574 93.1434 73.8051 93.3827C73.0701 94.5435 72.2792 95.6903 71.4571 96.7889C71.3561 96.9241 71.2023 96.994 71.0469 96.994L71.0453 96.9956ZM75.4274 90.0791C75.3466 90.0791 75.2642 90.0604 75.1881 90.02C74.9379 89.888 74.8431 89.5772 74.9752 89.327C75.6046 88.1413 76.1982 86.9122 76.7389 85.6722C76.8523 85.4127 77.1538 85.2946 77.4133 85.408C77.6728 85.5214 77.7909 85.8229 77.6775 86.0824C77.1258 87.3457 76.5214 88.5998 75.8796 89.8072C75.7879 89.9812 75.6108 90.0791 75.4258 90.0791H75.4274ZM40.3104 85.0506C40.3104 85.0506 40.301 85.0506 40.2964 85.0506C38.8916 85.0133 37.4993 84.8968 36.1583 84.7072C35.8786 84.6668 35.6828 84.4073 35.7232 84.1276C35.762 83.8479 36.0246 83.6552 36.3028 83.6925C37.605 83.8774 38.9584 83.9893 40.3259 84.0266C40.6087 84.0343 40.8325 84.269 40.8247 84.5518C40.8169 84.8299 40.5901 85.0506 40.3119 85.0506H40.3104ZM44.4034 84.9496C44.1377 84.9496 43.9139 84.746 43.8921 84.4772C43.8704 84.1944 44.0817 83.9489 44.363 83.9271C45.7227 83.8214 47.0606 83.6396 48.3441 83.3879C48.6223 83.3335 48.8911 83.5138 48.9455 83.7919C48.9999 84.0701 48.8196 84.3389 48.5415 84.3933C47.2191 84.6528 45.8408 84.8408 44.4422 84.948C44.4282 84.948 44.4158 84.9496 44.4018 84.9496H44.4034ZM32.2191 83.8867C32.174 83.8867 32.129 83.8805 32.0839 83.8681C30.7335 83.4998 29.4112 83.0398 28.1509 82.5037C27.8899 82.3934 27.7687 82.0919 27.8805 81.8309C27.9909 81.5698 28.2923 81.4502 28.5534 81.5605C29.7717 82.0795 31.0505 82.5224 32.3558 82.8798C32.6293 82.9544 32.7894 83.2372 32.7148 83.5091C32.6526 83.7375 32.446 83.8867 32.2206 83.8867H32.2191ZM52.3843 83.3646C52.1699 83.3646 51.9694 83.2294 51.8979 83.015C51.8078 82.7461 51.9523 82.4556 52.2212 82.367C53.4861 81.9443 54.7338 81.4331 55.9288 80.8472C56.1837 80.7245 56.4898 80.8286 56.6141 81.0819C56.7384 81.3367 56.6327 81.6428 56.3794 81.7672C55.1441 82.3716 53.8543 82.9015 52.5459 83.3382C52.4915 83.3568 52.4372 83.3646 52.3828 83.3646H52.3843ZM78.7062 82.5752C78.6502 82.5752 78.5927 82.5659 78.5368 82.5472C78.2695 82.454 78.1297 82.1619 78.2229 81.8946C78.6673 80.625 79.0714 79.3213 79.4225 78.016C79.4956 77.7425 79.7768 77.5809 80.0503 77.6539C80.3238 77.727 80.4854 78.0082 80.4124 78.2817C80.0534 79.6103 79.6432 80.9405 79.1894 82.2333C79.1149 82.4447 78.9175 82.5768 78.7062 82.5768V82.5752ZM24.7074 80.6779C24.6173 80.6779 24.5256 80.6546 24.4417 80.6033C23.2576 79.8854 22.1139 79.0727 21.0433 78.19C20.8242 78.0098 20.7947 77.6866 20.9734 77.469C21.1536 77.2499 21.4768 77.2188 21.6944 77.3991C22.7262 78.2506 23.8295 79.0338 24.9716 79.7269C25.214 79.8729 25.2902 80.1884 25.1441 80.4308C25.0478 80.5893 24.8784 80.6779 24.7059 80.6779H24.7074ZM59.6955 79.7921C59.5292 79.7921 59.3661 79.7113 59.2666 79.5621C59.1112 79.3259 59.1749 79.0074 59.4111 78.852C60.5004 78.1325 61.5835 77.3214 62.6293 76.4419C62.8453 76.2601 63.1701 76.288 63.3519 76.504C63.5337 76.72 63.5057 77.0432 63.2897 77.2266C62.2144 78.131 61.0987 78.9654 59.9768 79.7082C59.8898 79.7657 59.7919 79.7937 59.6955 79.7937V79.7921ZM18.4063 75.48C18.2664 75.48 18.1281 75.4241 18.0271 75.3122C17.101 74.2944 16.2324 73.1942 15.443 72.0427C15.2829 71.8096 15.342 71.4895 15.5766 71.331C15.8097 71.171 16.1298 71.23 16.2883 71.4647C17.0513 72.5773 17.8904 73.6402 18.7854 74.6238C18.9766 74.8336 18.961 75.1568 18.7513 75.3479C18.6534 75.438 18.529 75.4816 18.4063 75.4816V75.48ZM80.8397 74.6673C80.8071 74.6673 80.7744 74.6642 80.7418 74.658C80.4637 74.6051 80.2819 74.3363 80.3347 74.0582C80.5895 72.7342 80.7993 71.3839 80.9578 70.0459C80.9904 69.7647 81.2468 69.5596 81.5265 69.5969C81.8078 69.6295 82.0083 69.8843 81.9756 70.1656C81.814 71.5299 81.6011 72.9052 81.3416 74.2524C81.295 74.4979 81.079 74.6688 80.8382 74.6688L80.8397 74.6673ZM65.9563 74.5601C65.8273 74.5601 65.6983 74.5119 65.5973 74.414C65.3953 74.2167 65.3906 73.8919 65.5895 73.6899C66.4924 72.7669 67.4045 71.7537 68.3027 70.6784C68.4829 70.4608 68.8077 70.4313 69.0237 70.6131C69.2413 70.7949 69.2708 71.1181 69.089 71.3341C68.1737 72.4312 67.2429 73.4646 66.3214 74.4062C66.2204 74.5088 66.0883 74.5601 65.9547 74.5601H65.9563ZM194.703 72.0365C194.49 72.0365 194.291 71.9029 194.218 71.69C194.214 71.676 193.72 70.2448 192.68 67.9077C192.565 67.6498 192.68 67.3468 192.94 67.2318C193.199 67.1152 193.501 67.2318 193.615 67.4913C194.675 69.875 195.166 71.2984 195.186 71.3574C195.278 71.6247 195.135 71.9169 194.868 72.0085C194.814 72.0272 194.758 72.0365 194.702 72.0365H194.703ZM13.7803 68.7422C13.5938 68.7422 13.4135 68.6396 13.3234 68.4609C12.7034 67.2364 12.1487 65.9514 11.6778 64.6399C11.5815 64.3726 11.7213 64.0804 11.987 63.9841C12.2543 63.8877 12.5465 64.0276 12.6428 64.2933C13.0997 65.5644 13.6358 66.8107 14.2371 67.9979C14.3645 68.2512 14.2651 68.5588 14.0118 68.6863C13.9372 68.7235 13.858 68.7422 13.7803 68.7422ZM71.2209 68.2916C71.1153 68.2916 71.0081 68.2589 70.9179 68.1921C70.6895 68.0243 70.6413 67.7026 70.8092 67.4758C71.5752 66.4346 72.3413 65.3438 73.1509 64.1364C73.3094 63.9017 73.6264 63.838 73.8626 63.9965C74.0972 64.155 74.161 64.472 74.0025 64.7082C73.1851 65.9281 72.4112 67.0313 71.6343 68.0849C71.5333 68.2216 71.3779 68.2931 71.2209 68.2931V68.2916ZM81.8 66.5325C81.8 66.5325 81.7845 66.5325 81.7767 66.5325C81.4939 66.5201 81.2748 66.2808 81.2872 65.998C81.3245 65.1775 81.3432 64.3446 81.3432 63.5226C81.3432 62.9927 81.3354 62.4597 81.3199 61.936C81.3121 61.6532 81.5343 61.417 81.8171 61.4093C82.0999 61.3922 82.3361 61.6237 82.3439 61.9065C82.3594 62.4395 82.3672 62.9834 82.3672 63.5226C82.3672 64.3601 82.3486 65.207 82.3113 66.043C82.2988 66.3181 82.072 66.5325 81.8 66.5325ZM191.386 64.5C191.199 64.5 191.017 64.3974 190.927 64.2187C190.323 63.0191 189.675 61.807 189.005 60.6136C188.867 60.3666 188.954 60.0542 189.201 59.9159C189.446 59.7776 189.76 59.8647 189.898 60.1117C190.576 61.3176 191.23 62.5452 191.842 63.7572C191.97 64.0105 191.869 64.3182 191.616 64.4456C191.541 64.4829 191.463 64.5 191.386 64.5ZM75.805 61.4885C75.7118 61.4885 75.617 61.4636 75.5331 61.4108C75.2938 61.2601 75.2207 60.9446 75.3715 60.7038C76.0257 59.6626 76.7063 58.5531 77.5143 57.2152C77.6604 56.9728 77.9758 56.8951 78.2182 57.0412C78.4607 57.1872 78.5384 57.5027 78.3923 57.7451C77.5811 59.0892 76.8974 60.2034 76.2401 61.2492C76.1422 61.4046 75.9759 61.4885 75.805 61.4885ZM11.0127 61.0472C10.7796 61.0472 10.5683 60.8871 10.5139 60.6494C10.2078 59.3068 9.97627 57.9269 9.82865 56.5486C9.79757 56.2673 10.0011 56.014 10.2824 55.9845C10.5637 55.9534 10.8169 56.157 10.8465 56.4383C10.991 57.7762 11.2147 59.1157 11.5131 60.421C11.5753 60.6976 11.4028 60.971 11.1277 61.0348C11.0889 61.0441 11.0516 61.0472 11.0127 61.0472ZM81.5623 58.3449C81.3028 58.3449 81.0806 58.1491 81.0526 57.885C80.9221 56.6403 80.748 55.3925 80.532 54.1695C80.5212 54.1866 80.5118 54.2037 80.501 54.2208C80.3564 54.4648 80.041 54.5425 79.7986 54.3995C79.5546 54.255 79.4754 53.9396 79.6199 53.6971C80.3207 52.5208 81.0231 51.343 81.7317 50.1682C81.8777 49.9258 82.1932 49.8481 82.4356 49.9942C82.678 50.1402 82.7557 50.4557 82.6096 50.6981C82.0922 51.5543 81.5794 52.4136 81.0681 53.2714C81.2733 53.3071 81.4457 53.4672 81.4846 53.6847C81.7301 55.0289 81.9275 56.4072 82.072 57.7808C82.1015 58.0621 81.8964 58.3138 81.6151 58.3434C81.5965 58.3449 81.5794 58.3465 81.5607 58.3465L81.5623 58.3449ZM187.364 57.338C187.193 57.338 187.025 57.2525 186.929 57.0956C186.213 55.941 185.462 54.7896 184.701 53.6738C184.541 53.4407 184.601 53.1206 184.834 52.9621C185.069 52.8036 185.387 52.8627 185.546 53.0958C186.317 54.2239 187.075 55.3878 187.799 56.5548C187.948 56.7957 187.875 57.1111 187.634 57.2603C187.551 57.3131 187.457 57.338 187.364 57.338ZM10.1348 52.9124H10.1301C9.8473 52.9093 9.61887 52.6793 9.62198 52.395C9.63286 51.0089 9.72609 49.6134 9.89858 48.246C9.93432 47.9647 10.1907 47.7689 10.4704 47.8016C10.7517 47.8373 10.9506 48.0937 10.9148 48.3734C10.7486 49.7005 10.6569 51.057 10.646 52.4027C10.6429 52.684 10.4145 52.9109 10.1332 52.9109L10.1348 52.9124ZM182.732 50.5598C182.576 50.5598 182.423 50.4883 182.322 50.3547C181.504 49.2669 180.654 48.1885 179.796 47.1505C179.616 46.9329 179.647 46.6097 179.865 46.4295C180.084 46.2492 180.406 46.2803 180.586 46.4978C181.455 47.5483 182.314 48.6391 183.141 49.7393C183.31 49.9662 183.265 50.2863 183.039 50.4572C182.948 50.5271 182.839 50.5598 182.732 50.5598ZM80.083 50.2863C79.8561 50.2863 79.6494 50.1356 79.5888 49.9056C79.2376 48.5941 78.8305 47.2919 78.3783 46.0348C78.282 45.7675 78.4203 45.4738 78.6875 45.379C78.9533 45.2842 79.2469 45.421 79.3433 45.6867C79.8064 46.9702 80.2213 48.3004 80.5802 49.6399C80.6532 49.9133 80.4916 50.1946 80.2181 50.2676C80.1731 50.2801 80.1296 50.2847 80.0861 50.2847L80.083 50.2863ZM84.3174 47.4442C84.2242 47.4442 84.1309 47.4193 84.0454 47.3665C83.8061 47.2157 83.7331 46.9003 83.8823 46.6594C84.667 45.4054 85.3958 44.2742 86.1091 43.202C86.266 42.9658 86.583 42.9021 86.8192 43.059C87.0554 43.216 87.1191 43.5345 86.9622 43.7691C86.2536 44.8336 85.5294 45.9571 84.7509 47.2018C84.653 47.3571 84.4868 47.4426 84.3158 47.4426L84.3174 47.4442ZM11.1604 44.7947C11.12 44.7947 11.078 44.7901 11.036 44.7792C10.761 44.7108 10.5947 44.4327 10.6631 44.1576C11.0003 42.8073 11.423 41.4725 11.9187 40.192C12.0212 39.9279 12.318 39.7973 12.5822 39.8983C12.8464 40.0009 12.9769 40.2977 12.8759 40.5619C12.3957 41.8034 11.987 43.0963 11.6592 44.4062C11.6017 44.6393 11.3919 44.7947 11.1619 44.7947H11.1604ZM177.501 44.2369C177.361 44.2369 177.223 44.1809 177.122 44.0691C176.205 43.0621 175.256 42.0723 174.302 41.1259C174.101 40.927 174.1 40.6023 174.299 40.4018C174.499 40.2013 174.822 40.1982 175.024 40.3987C175.991 41.3575 176.951 42.3597 177.88 43.3791C178.072 43.5889 178.056 43.9121 177.848 44.1032C177.75 44.1934 177.626 44.2369 177.503 44.2369H177.501ZM77.303 42.5819C77.1103 42.5819 76.9254 42.4716 76.8384 42.2852C76.2665 41.0529 75.6356 39.8455 74.9628 38.6971C74.8198 38.4532 74.9022 38.1393 75.1461 37.9963C75.3901 37.8534 75.704 37.9357 75.847 38.1797C76.5369 39.3576 77.1833 40.5929 77.7676 41.8547C77.8873 42.1111 77.7754 42.4157 77.519 42.5353C77.4491 42.568 77.376 42.5835 77.303 42.5835V42.5819ZM88.875 40.6271C88.7709 40.6271 88.6653 40.596 88.5751 40.5292C88.3451 40.363 88.2954 40.0428 88.4617 39.8129C89.2993 38.6567 90.143 37.5535 90.9682 36.5341C91.1453 36.3134 91.4685 36.2792 91.6892 36.4579C91.9098 36.6351 91.944 36.9583 91.7653 37.179C90.9511 38.1859 90.1197 39.2737 89.293 40.4158C89.192 40.5541 89.0366 40.6271 88.8781 40.6271H88.875ZM171.677 38.4641C171.556 38.4641 171.433 38.4205 171.337 38.3335C170.321 37.426 169.275 36.5419 168.226 35.7059C168.005 35.5287 167.968 35.207 168.145 34.9848C168.322 34.7642 168.644 34.7284 168.866 34.904C169.928 35.7525 170.989 36.6491 172.019 37.5674C172.23 37.7555 172.249 38.0802 172.06 38.2916C171.958 38.405 171.819 38.4625 171.677 38.4625V38.4641ZM14.1159 37.1728C14.0336 37.1728 13.9496 37.1526 13.872 37.1106C13.6233 36.9754 13.5316 36.6646 13.6668 36.416C14.3335 35.1915 15.084 34.009 15.8983 32.8995C16.0661 32.671 16.3862 32.6229 16.6146 32.7891C16.843 32.957 16.8912 33.2771 16.7249 33.5055C15.9371 34.5777 15.2114 35.7214 14.5666 36.9055C14.4733 37.0764 14.2977 37.1728 14.1159 37.1728ZM73.1602 35.5225C73.0017 35.5225 72.8463 35.4495 72.7469 35.3127C71.9466 34.2172 71.0858 33.1636 70.1922 32.1831C70.0011 31.9733 70.0167 31.6501 70.2264 31.459C70.4362 31.2679 70.7594 31.2834 70.9506 31.4932C71.8689 32.5017 72.7516 33.5832 73.5751 34.7082C73.7414 34.9367 73.6917 35.2568 73.4632 35.4246C73.3716 35.4914 73.2659 35.524 73.1618 35.524L73.1602 35.5225ZM94.0418 34.2669C93.9175 34.2669 93.7932 34.2219 93.6937 34.1302C93.4855 33.9375 93.4731 33.6143 93.6658 33.406C94.6214 32.3711 95.6035 31.3891 96.584 30.4862C96.7923 30.2951 97.117 30.3091 97.3082 30.5158C97.4993 30.724 97.4869 31.0488 97.2786 31.2399C96.3183 32.1241 95.3564 33.0875 94.4179 34.1022C94.3169 34.211 94.1786 34.2669 94.0418 34.2669ZM165.272 33.3517C165.169 33.3517 165.065 33.3206 164.975 33.2569C163.867 32.4706 162.728 31.7107 161.591 30.999C161.35 30.8498 161.278 30.5329 161.428 30.2935C161.577 30.0527 161.894 29.9797 162.133 30.1304C163.288 30.8514 164.444 31.6221 165.567 32.4209C165.799 32.584 165.853 32.9041 165.688 33.1357C165.589 33.2771 165.43 33.3517 165.27 33.3517H165.272ZM18.9564 30.5903C18.8274 30.5903 18.6984 30.5422 18.599 30.4458C18.3954 30.2485 18.3923 29.9237 18.5897 29.7201C19.5546 28.7287 20.6004 27.7964 21.6975 26.9448C21.9213 26.7708 22.2429 26.8112 22.417 27.0365C22.591 27.2603 22.549 27.582 22.3253 27.756C21.2655 28.5765 20.2555 29.4793 19.3247 30.435C19.2237 30.5391 19.0916 30.5903 18.9579 30.5903H18.9564ZM67.6454 29.484C67.5257 29.484 67.4061 29.442 67.3082 29.3581C66.2919 28.4708 65.2182 27.641 64.118 26.8905C63.8833 26.7304 63.8243 26.4119 63.9828 26.1788C64.1428 25.9457 64.4614 25.8851 64.6945 26.0436C65.8288 26.8174 66.9352 27.6736 67.981 28.5873C68.1939 28.7738 68.2157 29.097 68.0307 29.3099C67.9297 29.4265 67.7868 29.4855 67.6438 29.4855L67.6454 29.484ZM158.324 29.01C158.242 29.01 158.158 28.9898 158.079 28.9479C156.89 28.2999 155.669 27.683 154.452 27.1127C154.196 26.993 154.085 26.6885 154.205 26.4321C154.325 26.1757 154.629 26.0653 154.886 26.185C156.122 26.763 157.361 27.3908 158.568 28.0481C158.817 28.1833 158.909 28.4957 158.773 28.7427C158.68 28.9137 158.505 29.01 158.323 29.01H158.324ZM100.063 28.7427C99.9094 28.7427 99.7556 28.6728 99.6561 28.5407C99.4852 28.3154 99.5271 27.9937 99.7525 27.8228C100.86 26.979 102.01 26.1912 103.168 25.4842C103.409 25.3365 103.724 25.4142 103.872 25.6551C104.02 25.896 103.943 26.2114 103.701 26.359C102.573 27.0474 101.452 27.815 100.372 28.6386C100.279 28.7101 100.17 28.7427 100.062 28.7427H100.063ZM25.4114 25.5821C25.2342 25.5821 25.0617 25.4904 24.9669 25.3257C24.8255 25.0801 24.9095 24.7663 25.155 24.6264C26.3406 23.9442 27.5962 23.3258 28.889 22.7897C29.1501 22.6809 29.45 22.8052 29.5588 23.0663C29.6676 23.3273 29.5432 23.6272 29.2822 23.736C28.0313 24.255 26.8146 24.8533 25.6678 25.5137C25.587 25.5603 25.4999 25.5821 25.4129 25.5821H25.4114ZM150.908 25.5401C150.845 25.5401 150.782 25.5292 150.719 25.5044C149.462 25.0087 148.176 24.5456 146.895 24.1307C146.626 24.0437 146.479 23.7547 146.566 23.4858C146.653 23.217 146.943 23.0694 147.211 23.1564C148.511 23.5791 149.818 24.0483 151.096 24.5518C151.358 24.6559 151.489 24.9543 151.385 25.2169C151.305 25.4189 151.113 25.5417 150.908 25.5417V25.5401ZM60.8889 24.8781C60.8097 24.8781 60.7289 24.8595 60.6543 24.8206C59.4686 24.2084 58.2271 23.6599 56.9668 23.1906C56.7011 23.0927 56.5659 22.7974 56.6654 22.5317C56.7648 22.266 57.0601 22.1324 57.3242 22.2303C58.6233 22.7135 59.9037 23.2776 61.1251 23.91C61.3769 24.0406 61.4748 24.3498 61.3442 24.6C61.2525 24.7756 61.0738 24.8766 60.8889 24.8766V24.8781ZM107.033 24.4974C106.84 24.4974 106.655 24.3886 106.568 24.2022C106.448 23.9458 106.559 23.6412 106.813 23.52C108.054 22.9388 109.345 22.4183 110.65 21.9723C110.919 21.8822 111.21 22.0236 111.301 22.2924C111.393 22.5597 111.25 22.8518 110.981 22.9435C109.71 23.377 108.454 23.8836 107.249 24.4493C107.179 24.4819 107.104 24.4974 107.031 24.4974H107.033ZM143.124 23.0088C143.082 23.0088 143.038 23.0041 142.995 22.9917C141.694 22.656 140.361 22.3546 139.032 22.0951C138.754 22.0407 138.574 21.7718 138.628 21.4937C138.683 21.2155 138.955 21.0337 139.23 21.0897C140.58 21.3523 141.934 21.66 143.253 22.0003C143.526 22.0718 143.691 22.3499 143.621 22.6249C143.562 22.8565 143.354 23.0088 143.126 23.0088H143.124ZM32.9556 22.4369C32.7319 22.4369 32.5252 22.2893 32.4631 22.0624C32.3869 21.7905 32.5454 21.5077 32.8189 21.4315C34.1242 21.0664 35.487 20.7649 36.8715 20.5349C37.1497 20.4883 37.4138 20.6779 37.4605 20.956C37.5071 21.2357 37.3175 21.4984 37.0394 21.545C35.6921 21.7687 34.3651 22.0624 33.0955 22.4167C33.0489 22.4292 33.0023 22.4354 32.9572 22.4354L32.9556 22.4369ZM53.2297 22.0267C53.1893 22.0267 53.1488 22.022 53.1084 22.0127C51.8187 21.7004 50.4823 21.4548 49.1382 21.2855C48.8569 21.2497 48.658 20.9933 48.6938 20.7121C48.7295 20.4308 48.9843 20.2366 49.2672 20.2676C50.6486 20.4432 52.0223 20.695 53.3493 21.0166C53.6243 21.0835 53.7937 21.3601 53.7269 21.6351C53.671 21.8697 53.4596 22.0267 53.2297 22.0267ZM114.743 21.8589C114.509 21.8589 114.297 21.6973 114.244 21.4595C114.182 21.1829 114.355 20.9094 114.631 20.8457C115.949 20.5474 117.318 20.3065 118.699 20.1294C118.981 20.0967 119.237 20.2925 119.273 20.5738C119.309 20.855 119.11 21.1114 118.83 21.1472C117.481 21.3181 116.145 21.5543 114.86 21.8449C114.821 21.8542 114.784 21.8573 114.746 21.8573L114.743 21.8589ZM135.092 21.4378C135.068 21.4378 135.045 21.4378 135.022 21.4331C133.692 21.2528 132.332 21.1083 130.98 21.0027C130.697 20.9809 130.487 20.7338 130.509 20.4526C130.531 20.1698 130.775 19.9507 131.061 19.9817C132.431 20.0889 133.811 20.235 135.16 20.4168C135.44 20.4541 135.637 20.7121 135.6 20.9933C135.566 21.2513 135.345 21.4378 135.093 21.4378H135.092ZM41.0221 21.0819C40.7548 21.0819 40.5295 20.8752 40.5108 20.6049C40.4922 20.322 40.705 20.0781 40.9879 20.0594C41.9016 19.9973 42.8401 19.9615 43.7787 19.9538H44.1594C44.4842 19.9522 44.809 19.9553 45.1306 19.9631C45.4134 19.9693 45.6372 20.2039 45.631 20.4868C45.6248 20.7696 45.3963 20.9995 45.1073 20.9871C44.7934 20.9793 44.478 20.9762 44.161 20.9762H43.788C42.8697 20.9856 41.9513 21.0213 41.0578 21.0819C41.0454 21.0819 41.0345 21.0819 41.0221 21.0819ZM122.831 20.8162C122.558 20.8162 122.331 20.6002 122.32 20.3236C122.309 20.0408 122.53 19.803 122.811 19.7906C123.388 19.7673 123.975 19.7549 124.561 19.7502H125.06C125.692 19.7486 126.318 19.7564 126.94 19.7704C127.223 19.7782 127.446 20.0113 127.44 20.2956C127.434 20.5784 127.216 20.8053 126.915 20.796C126.301 20.782 125.683 20.7742 125.06 20.7742H124.567C123.994 20.7789 123.416 20.7929 122.852 20.8146C122.845 20.8146 122.838 20.8146 122.831 20.8146V20.8162Z" fill="black"/>
</svg>
