<svg width="245" height="245" viewBox="0 0 245 245" fill="none" xmlns="http://www.w3.org/2000/svg">
<path d="M184.602 222.909C239.814 187.542 244.497 115.434 244.473 112.28C244.179 73.5953 228.427 27.9942 185.651 8.91579C165.378 -0.12591 133.332 -4.8097 110.483 10.4183C89.149 24.6379 98.395 41.1828 74.8572 69.582C47.7495 102.288 25.9465 97.8717 7.77099 126.437C-4.23431 145.304 1.0625 168.139 2.58102 174.689C13.7169 222.707 72.1647 239.213 78.7223 240.958C130.762 254.799 175.856 228.513 184.602 222.91V222.909Z" fill="#FFF5F1"/>
<path d="M44.0806 154.412H39.1777L44.1433 133.75H52.6094L44.0806 154.412Z" fill="#FFC7B5"/>
<path d="M20.5298 154.412H15.627L20.5925 133.75H29.0586L20.5298 154.412Z" fill="#FFC7B5"/>
<path d="M181.408 154.412H186.31L181.345 133.75H172.879L181.408 154.412Z" fill="#FFC7B5"/>
<path d="M158.21 154.412H163.996L159.03 133.75H149.681L158.21 154.412Z" fill="#FFC7B5"/>
<path d="M163.34 135.269H22.2879C17.3984 135.269 13.1207 131.94 11.8639 127.156L0.856271 85.4662C-0.962754 78.5374 3.9601 71.7461 11.0425 71.7461H152.331C157.22 71.7461 161.498 75.0756 162.755 79.8596L173.762 121.549C175.582 128.478 170.421 135.27 163.338 135.27L163.34 135.269Z" fill="white"/>
<path d="M143.755 135.508H181.816C184.964 135.508 187.719 133.365 188.527 130.285L195.615 103.288C196.786 98.8271 193.463 94.4531 188.904 94.4531H150.843C147.695 94.4531 144.94 96.5967 144.132 99.6765L137.044 126.673C135.873 131.134 139.196 135.508 143.755 135.508Z" fill="#FFC7B5"/>
<path d="M58.7433 127.113L51.2362 99.6313C50.4282 96.5515 47.6729 94.3358 44.525 94.3358H27.0493C24.6466 94.3358 22.5445 92.6997 21.9261 90.3492L18.3842 76.8681C17.6296 73.9953 15.1829 71.9198 12.3034 71.6621H10.8076C3.35522 71.5352 -0.811705 77.7108 0.133868 84.1896L5.02066 102.867C5.04871 103.008 5.08076 103.148 5.11815 103.288L11.7305 128.375C12.8777 132.531 17.4066 135.974 21.1515 135.974H52.0335C56.5931 135.974 59.9159 131.575 58.7447 127.114L58.7433 127.113Z" fill="#FFC7B5"/>
<path d="M60.05 135.972H181.838C185.234 135.732 187.741 133.824 188.549 130.744L195.637 103.772C196.808 99.3115 193.485 94.9629 188.926 94.9629H183.131C179.983 94.9629 177.227 97.1853 176.419 100.265L169.095 128.297H58.8132L60.05 135.971V135.972Z" fill="white"/>
<path d="M12.3491 72.7279C12.106 72.7279 11.9083 72.5315 11.907 72.2885C11.907 72.0441 12.1033 71.8451 12.3464 71.8437L44.3636 71.6821C44.6147 71.6701 44.807 71.8771 44.8084 72.1215C44.8084 72.3659 44.612 72.5649 44.369 72.5663L12.3517 72.7279H12.3491Z" fill="#FFC7B5"/>
<path d="M169.499 130.055L59.2822 128.298C56.6178 128.298 54.4248 125.715 54.4248 123.049V119.659C54.4248 116.995 56.5857 114.834 59.2502 114.834H169.189C171.853 114.834 174.014 116.995 174.014 119.659V123.049C174.014 125.713 172.165 130.055 169.499 130.055Z" fill="white"/>
<path d="M56.9687 115.739C56.7256 115.739 56.5279 115.542 56.5266 115.298C56.5266 115.054 56.7229 114.855 56.9673 114.855L91.1308 114.709H91.1322C91.3752 114.709 91.5729 114.905 91.5742 115.15C91.5742 115.394 91.3779 115.593 91.1335 115.593L56.97 115.739H56.9687Z" fill="black"/>
<path d="M132.703 37.9957C135.043 35.7146 138.522 35.2338 141.137 35.8775C144.447 36.6922 146.115 39.2712 147.291 41.0902C149.372 44.3062 148.366 45.4708 150.002 47.3379C152.898 50.6461 159.923 48.4558 163.343 50.996C171.562 57.1008 167.081 67.1909 159.797 71.9548C154.939 75.1308 148.33 73.2944 146.533 72.7949C141.076 71.2777 132.034 68.3061 131.159 61.209C130.57 56.437 135.978 52.6107 133.073 48.6321C132.333 47.6184 131.72 47.3446 131.171 46.0771C130.279 44.0204 130.079 40.556 132.703 37.997V37.9957Z" fill="black"/>
<path d="M141.243 38.5582C140 37.6501 140.786 34.9696 141.582 33.5245C141.88 32.9823 143.214 30.5583 144.969 30.6531C146.772 30.7493 148.498 33.4751 147.854 35.6347C147.05 38.3339 142.699 39.624 141.243 38.5582Z" fill="black"/>
<path d="M114.966 168.207C117.305 167.537 118.599 162.52 119.185 160.47C119.772 158.417 121.842 161.364 122.691 160.816C123.539 160.271 122.347 158.417 121.859 156.426C121.373 154.435 119.148 152.672 119.148 152.672L118.678 152.855L113.481 154.876C113.481 154.876 112.62 158.582 112.39 160.96C112.314 161.732 113.142 162.433 112.525 163.244C111.24 164.928 108.004 166.644 107.521 167.36C106.807 168.419 112.63 168.879 114.969 168.208L114.966 168.207Z" fill="#FF5A24"/>
<path d="M111.899 168.965C109.838 168.965 107.659 168.646 107.16 167.961C106.972 167.702 106.968 167.384 107.152 167.112C107.386 166.767 107.947 166.366 108.919 165.687C110.049 164.897 111.454 163.916 112.171 162.975C112.394 162.683 112.322 162.446 112.153 161.982C112.038 161.669 111.908 161.314 111.948 160.916C112.179 158.537 113.014 154.927 113.049 154.775C113.082 154.632 113.184 154.516 113.319 154.463L118.985 152.259C119.132 152.201 119.297 152.227 119.421 152.324C119.517 152.4 121.771 154.206 122.287 156.32C122.44 156.947 122.674 157.58 122.88 158.139C123.373 159.475 123.799 160.629 122.928 161.187C122.35 161.56 121.671 161.127 121.015 160.709C120.636 160.467 120.066 160.101 119.843 160.185C119.76 160.217 119.672 160.368 119.609 160.591L119.508 160.949C118.818 163.389 117.535 167.929 115.088 168.631C114.326 168.85 113.133 168.964 111.899 168.964V168.965ZM107.962 167.516C108.718 168.014 112.838 168.358 114.845 167.783C116.819 167.217 118.108 162.657 118.658 160.712L118.761 160.351C118.909 159.833 119.168 159.499 119.532 159.361C120.167 159.121 120.84 159.55 121.492 159.966C121.777 160.148 122.304 160.486 122.456 160.444C122.724 160.272 122.351 159.261 122.052 158.448C121.837 157.867 121.595 157.208 121.429 156.533C121.065 155.037 119.593 153.642 119.064 153.18L113.861 155.204C113.673 156.042 113.022 159.017 112.83 161.004C112.81 161.202 112.895 161.434 112.985 161.68C113.161 162.162 113.401 162.822 112.877 163.512C112.075 164.562 110.606 165.589 109.427 166.413C108.824 166.834 108.205 167.266 107.963 167.518L107.962 167.516Z" fill="black"/>
<path d="M113.48 154.874C113.48 154.874 112.618 158.58 112.389 160.959C112.313 161.731 112.569 162.909 111.952 163.72C112.393 164.524 112.808 164.674 114.075 164.427C115.517 164.146 115.905 161.424 116.369 159.458C116.518 158.817 116.678 158.256 116.883 157.887C117.466 156.844 118.495 156.206 118.701 154.962C118.819 154.26 118.738 153.56 118.676 152.855C118.666 152.735 118.655 152.617 118.648 152.497C118.591 151.617 118.638 150.735 118.718 149.858C119.082 145.76 120.143 141.75 121.458 137.859C125.868 124.796 123.737 115.925 123.737 115.925C122.612 107.493 116.61 106.177 111.44 109.197C106.271 112.217 111.935 143.064 112.387 147.553C112.577 149.452 113.551 154.55 113.481 154.876L113.48 154.874Z" fill="white"/>
<path d="M113.175 164.979C112.475 164.979 111.991 164.713 111.563 163.933C111.478 163.779 111.493 163.591 111.599 163.452C111.954 162.985 111.943 162.318 111.932 161.673C111.928 161.405 111.923 161.151 111.947 160.916C112.169 158.632 112.948 155.213 113.04 154.81C113.034 154.533 112.802 153.138 112.596 151.902C112.336 150.338 112.041 148.565 111.945 147.597C111.872 146.877 111.655 145.413 111.381 143.562C109.03 127.705 107.173 111.176 111.215 108.816C114.12 107.12 117.149 106.814 119.525 107.976C121.277 108.832 123.504 110.893 124.17 115.845C124.313 116.461 126.208 125.167 121.876 138.001C120.338 142.548 119.474 146.328 119.156 149.896C119.092 150.603 119.027 151.534 119.088 152.469C119.095 152.565 119.103 152.66 119.111 152.756L119.134 153.01C119.193 153.665 119.254 154.342 119.136 155.037C118.987 155.937 118.481 156.542 117.989 157.127C117.719 157.449 117.464 157.753 117.268 158.103C117.069 158.461 116.913 159.069 116.798 159.559C116.736 159.817 116.678 160.088 116.616 160.364C116.184 162.332 115.693 164.562 114.159 164.863C113.786 164.935 113.462 164.98 113.175 164.98V164.979ZM112.469 163.731C112.712 164.101 112.976 164.191 113.991 163.993C114.956 163.805 115.398 161.791 115.754 160.173C115.815 159.893 115.876 159.618 115.938 159.356C116.13 158.536 116.297 158.031 116.496 157.672C116.734 157.247 117.028 156.897 117.312 156.558C117.765 156.019 118.155 155.554 118.264 154.89C118.363 154.308 118.31 153.716 118.254 153.088L118.231 152.831C118.222 152.728 118.214 152.628 118.207 152.525C118.141 151.53 118.211 150.555 118.276 149.818C118.601 146.178 119.478 142.333 121.038 137.717C125.351 124.944 123.326 116.116 123.305 116.028C123.301 116.013 123.298 115.999 123.297 115.984C122.813 112.358 121.375 109.864 119.138 108.769C117.032 107.74 114.307 108.033 111.661 109.579C107.591 111.956 110.98 134.823 112.256 143.431C112.543 145.368 112.75 146.766 112.825 147.507C112.918 148.447 113.211 150.205 113.47 151.755C113.894 154.305 113.956 154.755 113.912 154.965C113.912 154.967 113.912 154.97 113.91 154.973C113.902 155.01 113.053 158.679 112.829 161C112.81 161.186 112.814 161.414 112.818 161.657C112.829 162.294 112.842 163.068 112.471 163.73L112.469 163.731Z" fill="black"/>
<path d="M126.679 167.564C128.826 166.423 129.102 160.148 129.248 158.022C129.397 155.893 131.982 159.443 132.7 158.731C133.417 158.022 131.865 156.456 130.973 154.609C130.083 152.762 127.54 151.5 127.54 151.5L127.118 151.776L122.455 154.832C122.455 154.832 122.382 158.637 122.651 161.01C122.736 161.781 122.457 162.695 122.023 163.615C121.115 165.529 119.542 167.481 119.217 168.281C118.739 169.466 124.531 168.706 126.679 167.564Z" fill="#FF5A24"/>
<path d="M120.709 169.317C119.914 169.317 119.284 169.206 118.991 168.943C118.752 168.728 118.684 168.418 118.807 168.114C118.963 167.728 119.336 167.168 119.807 166.46C120.392 165.582 121.12 164.487 121.624 163.423C122.08 162.455 122.279 161.659 122.213 161.057C121.944 158.682 122.011 154.977 122.014 154.821C122.016 154.676 122.091 154.539 122.214 154.459L127.3 151.127C127.431 151.042 127.598 151.031 127.739 151.1C127.849 151.155 130.429 152.452 131.373 154.414C131.654 154.993 132.014 155.565 132.332 156.07C133.092 157.275 133.748 158.315 133.013 159.041C132.44 159.61 131.627 159.016 130.84 158.442C130.531 158.216 129.97 157.806 129.744 157.773C129.728 157.811 129.704 157.894 129.693 158.049L129.664 158.483C129.397 162.578 128.858 166.905 126.89 167.951C125.564 168.656 122.652 169.315 120.713 169.315L120.709 169.317ZM119.675 168.338C120.501 168.675 124.622 168.155 126.472 167.172C128.271 166.217 128.639 160.557 128.778 158.427L128.808 157.989C128.845 157.46 129.028 157.114 129.353 156.963C129.938 156.691 130.628 157.194 131.359 157.729C131.678 157.961 132.197 158.342 132.415 158.379C132.567 158.104 132.024 157.241 131.582 156.541C131.252 156.018 130.876 155.423 130.575 154.798C129.91 153.415 128.177 152.354 127.564 152.011L122.894 155.071C122.883 155.93 122.866 158.975 123.09 160.958C123.177 161.737 122.958 162.666 122.422 163.801C121.891 164.923 121.143 166.046 120.542 166.951C120.163 167.521 119.83 168.022 119.675 168.338Z" fill="black"/>
<path d="M122.454 154.832C122.454 154.832 122.381 158.637 122.65 161.01C122.735 161.781 122.456 162.694 122.022 163.614C122.62 164.31 123.832 164.557 125.022 164.052C126.372 163.478 126.188 160.734 126.233 158.714C126.246 158.056 126.287 157.474 126.411 157.072C126.765 155.931 127.638 155.092 127.582 153.833C127.553 153.121 127.327 152.453 127.12 151.776C127.085 151.661 127.05 151.548 127.018 151.433C126.779 150.585 126.643 149.711 126.538 148.836C126.043 144.752 126.248 140.609 126.726 136.531C128.326 122.837 124.398 114.602 124.398 114.602C121.547 106.588 115.403 106.548 110.972 110.574C106.542 114.602 118.491 143.6 119.865 147.896C120.445 149.714 122.456 154.499 122.456 154.832H122.454Z" fill="white"/>
<path d="M123.749 164.759C122.926 164.759 122.169 164.463 121.687 163.903C121.573 163.771 121.548 163.584 121.622 163.426C122.081 162.458 122.278 161.661 122.211 161.06C121.954 158.78 122.004 155.274 122.012 154.859C121.95 154.589 121.433 153.272 120.976 152.108C120.396 150.632 119.739 148.958 119.443 148.03C119.222 147.341 118.706 145.955 118.053 144.2C112.459 129.178 107.209 113.395 110.672 110.247C113.16 107.985 116.06 107.057 118.627 107.699C120.518 108.173 123.124 109.727 124.805 114.433C125.074 115.005 128.736 123.129 127.162 136.582C126.604 141.35 126.544 145.227 126.974 148.783C127.058 149.489 127.188 150.413 127.441 151.313C127.467 151.404 127.494 151.493 127.522 151.583L127.598 151.833C127.791 152.462 127.992 153.111 128.021 153.814C128.061 154.727 127.691 155.422 127.333 156.097C127.136 156.468 126.95 156.818 126.831 157.201C126.711 157.593 126.684 158.22 126.674 158.723C126.668 158.988 126.666 159.265 126.664 159.548C126.649 161.562 126.633 163.846 125.194 164.458C124.717 164.659 124.221 164.758 123.749 164.758V164.759ZM122.553 163.511C123.049 163.886 123.921 164.038 124.846 163.646C125.752 163.261 125.767 161.199 125.777 159.543C125.78 159.256 125.781 158.974 125.788 158.704C125.805 157.861 125.864 157.334 125.984 156.941C126.129 156.476 126.344 156.073 126.551 155.682C126.881 155.061 127.166 154.524 127.136 153.852C127.112 153.262 126.935 152.694 126.75 152.093L126.672 151.839C126.643 151.743 126.613 151.648 126.587 151.551C126.317 150.592 126.181 149.624 126.093 148.888C125.653 145.26 125.713 141.318 126.281 136.478C127.849 123.066 124.032 114.872 123.993 114.791C123.986 114.778 123.981 114.763 123.976 114.748C122.75 111.302 120.824 109.16 118.409 108.555C116.135 107.985 113.53 108.84 111.264 110.899C107.777 114.07 115.841 135.734 118.878 143.89C119.56 145.725 120.055 147.05 120.282 147.76C120.569 148.661 121.22 150.319 121.795 151.783C122.739 154.188 122.894 154.616 122.894 154.831C122.894 154.834 122.894 154.836 122.894 154.839C122.894 154.876 122.824 158.643 123.088 160.96C123.166 161.67 122.991 162.506 122.553 163.509V163.511Z" fill="black"/>
<path d="M100.6 53.1941C101.814 53.2489 103.937 55.363 105.162 56.5984C105.513 56.9537 105.791 57.2355 105.953 57.3757C105.953 57.3757 117.685 72.3032 118.861 72.6451C121.504 69.8859 131.773 58.2278 133.792 58.7447C134.736 61.5894 132.052 73.1353 129.724 74.9249C127.398 76.7145 119.52 85.0391 115.671 82.6217C111.822 80.2057 102.047 59.3737 102.047 59.3737C97.2554 60.967 95.6581 55.5647 95.6581 55.5647C95.6581 55.5647 91.5312 53.9594 90.9196 52.9711C90.3079 51.9841 99.0371 53.122 100.6 53.1928V53.1941Z" fill="white"/>
<path d="M117.284 83.5026C116.618 83.5026 115.996 83.3476 115.437 82.9977C111.755 80.6859 103.149 62.732 101.812 59.9087C100.517 60.2586 99.3253 60.1571 98.2662 59.6042C96.4057 58.6332 95.5443 56.5711 95.3052 55.902C94.2915 55.4987 91.1543 54.1898 90.5453 53.2055C90.4211 53.0039 90.4158 52.7715 90.5346 52.5818C90.8832 52.0222 92.156 51.9381 98.6134 52.5738C99.5403 52.6646 100.271 52.7368 100.621 52.7528C101.926 52.8115 103.811 54.6079 105.477 56.288L105.564 56.3761C105.856 56.6713 106.109 56.9264 106.243 57.0439L106.301 57.104C110.464 62.4008 117.251 70.7841 118.792 72.0769C119.212 71.6335 119.767 71.0298 120.395 70.35C127.72 62.4142 132.281 57.9027 133.903 58.3167L134.136 58.3768L134.213 58.6052C135.177 61.5087 132.523 73.3297 129.995 75.2742C129.586 75.5894 128.973 76.1357 128.265 76.7674C125.323 79.3931 120.721 83.4999 117.286 83.4999L117.284 83.5026ZM102.282 58.8309L102.449 59.1861C102.547 59.3932 112.212 79.9273 115.907 82.2485C118.779 84.0502 124.566 78.8856 127.676 76.1103C128.428 75.4398 129.021 74.9096 129.455 74.5757C131.587 72.9357 134.044 62.2793 133.453 59.1995C132.981 59.3397 131.699 60.0489 128.412 63.2489C125.856 65.7357 122.961 68.8743 121.044 70.9497C120.248 71.8125 119.619 72.4936 119.181 72.9517L118.995 73.1453L118.738 73.0706C117.524 72.7166 108.432 61.2456 105.63 57.681C105.47 57.5381 105.234 57.2977 104.937 56.9998L104.849 56.9104C103.892 55.9447 101.65 53.6837 100.581 53.6356C100.207 53.6196 99.4655 53.5461 98.5266 53.4526C96.7597 53.279 92.8999 52.8983 91.5911 53.0386C92.3871 53.6703 94.4077 54.6052 95.8194 55.1541L96.0211 55.2329L96.0825 55.4412C96.0892 55.4653 96.8224 57.8573 98.6788 58.8229C99.6177 59.3117 100.705 59.3571 101.908 58.9564L102.281 58.8322L102.282 58.8309Z" fill="black"/>
<path d="M100.803 54.7188L97.6528 54.9418L97.7997 55.245C98.0415 55.7445 98.4702 56.1291 98.9951 56.3107C99.4799 56.479 100.089 56.7982 100.491 57.4005C101.249 58.5398 102.93 58.2833 102.93 58.2833L100.803 54.7188Z" fill="white"/>
<path d="M102.383 58.8177C101.745 58.8177 100.621 58.6694 99.9844 57.7132C99.6425 57.2003 99.1042 56.9319 98.7129 56.7956C98.0745 56.5753 97.559 56.1158 97.2638 55.5042L97.1169 55.201C97.0528 55.0688 97.0595 54.9138 97.1329 54.787C97.2064 54.6601 97.3386 54.5773 97.4842 54.5679L100.635 54.3449C100.875 54.3275 101.09 54.5105 101.106 54.7549C101.122 54.9993 100.941 55.2103 100.696 55.2277L98.2308 55.4026C98.4258 55.6604 98.6915 55.8541 99.0014 55.9622C99.5223 56.1425 100.242 56.5072 100.72 57.2243C101.311 58.1112 102.71 57.9175 102.725 57.9148C102.964 57.8801 103.191 58.0457 103.227 58.2861C103.263 58.5265 103.099 58.7522 102.857 58.7883C102.833 58.7923 102.651 58.819 102.382 58.819L102.383 58.8177Z" fill="black"/>
<path d="M132.226 58.7298C131.841 59.0383 131.293 59.1598 130.498 60.7211C128.483 64.6837 125.474 72.3644 126.951 76.2803C129.009 81.74 135.162 89.4742 132.631 97.0642C130.1 104.655 102.399 97.1537 103.815 111.628C103.815 111.628 107.124 118.369 113.703 116.778C120.282 115.188 119.41 124.929 122.988 131.606C126.897 138.9 132.746 133.728 132.881 142.052C133.015 150.376 138.977 140.195 141.12 133.751C142.862 128.506 145.472 120.372 144.858 121.267C144.858 121.267 170.54 115.323 156.488 97.0642C156.488 97.0642 152.055 86.3237 151.811 77.6426C151.565 68.9615 150.965 58.5855 141.361 57.3555C135.025 56.5435 133.194 57.9525 132.227 58.7298H132.226Z" fill="#FF5A24"/>
<path d="M104.813 80.5718C106.842 81.4519 111.816 80.6386 111.816 80.6386C111.816 80.6386 108.787 78.9544 108.861 77.4426C108.915 76.3514 110.285 76.8963 112.624 78.0756C114.79 79.1695 116.477 80.923 116.478 80.923C120.573 81.6042 128.044 82.8422 129.568 83.2015C131.91 83.7531 133.576 83.9708 133.576 83.9708C133.91 80.505 134.858 68.879 135.666 66.5899C136.303 64.7869 138.867 62.9425 141.848 64.0416C145.74 65.476 142.357 86.3187 139.846 91.3965C139.064 92.9791 136.467 92.7267 135.515 92.4849C133.891 92.0722 118.322 85.9834 116.39 85.1354L114.809 84.8349C114.809 84.8349 110.957 85.7871 106.926 85.0486C105.859 84.8536 104.7 84.1577 104.085 83.0092C103.41 81.7457 103.752 80.111 104.813 80.5718Z" fill="white"/>
<path d="M137.04 93.1027C136.376 93.1027 135.774 93.0078 135.406 92.9143C133.72 92.4856 118.302 86.4462 116.26 85.5608L114.82 85.287C114.182 85.4339 110.62 86.1751 106.848 85.4846C105.522 85.2416 104.315 84.3735 103.698 83.2182C103.162 82.2179 103.166 80.9758 103.706 80.3895C104.033 80.0343 104.502 79.9541 104.992 80.1665C106.295 80.7314 109 80.5364 110.563 80.3601C109.606 79.675 108.366 78.5598 108.422 77.4219C108.447 76.9131 108.691 76.6673 108.892 76.5511C109.56 76.1625 110.692 76.6059 112.825 77.6823C114.676 78.6172 116.181 80.0009 116.685 80.5097L117.077 80.5751C121.236 81.267 128.196 82.4249 129.672 82.7721C131.256 83.1448 132.538 83.3651 133.183 83.4666C133.226 83.0099 133.275 82.4623 133.331 81.8453C133.92 75.3571 134.604 68.2827 135.253 66.4436C135.643 65.3391 136.598 64.3415 137.809 63.7725C138.729 63.3398 140.204 62.9645 142.004 63.6283C142.582 63.842 143.043 64.3695 143.373 65.1989C145.438 70.3822 142.438 87.1608 140.245 91.5935C139.652 92.7915 138.245 93.1027 137.043 93.1027H137.04ZM114.81 84.3935C114.838 84.3935 114.864 84.3962 114.892 84.4015L116.474 84.702C116.507 84.7087 116.538 84.718 116.568 84.7314C118.339 85.5087 134.02 91.6496 135.624 92.0582C136.408 92.2572 138.793 92.5284 139.451 91.2022C141.535 86.9871 144.5 70.4223 142.549 65.5261C142.315 64.9398 142.028 64.5806 141.696 64.4577C140.182 63.8994 138.95 64.2119 138.182 64.5725C137.195 65.036 136.391 65.8654 136.082 66.7388C135.416 68.6273 134.629 77.279 134.207 81.9267C134.131 82.7708 134.066 83.488 134.015 84.0155C134.003 84.1344 133.944 84.2439 133.851 84.3187C133.757 84.3935 133.638 84.4269 133.518 84.4109C133.449 84.4015 131.805 84.1838 129.466 83.6336C128.02 83.293 121.077 82.1378 116.929 81.4486L116.406 81.3618C116.311 81.3458 116.224 81.299 116.158 81.2309C116.129 81.2015 114.496 79.5174 112.424 78.473C110.593 77.5488 109.553 77.1601 109.334 77.3177C109.334 77.3177 109.308 77.3525 109.303 77.4673C109.259 78.3688 110.952 79.655 112.03 80.2546C112.195 80.3454 112.284 80.5311 112.251 80.7167C112.219 80.9024 112.072 81.0466 111.886 81.0773C111.678 81.1107 106.759 81.9 104.637 80.9798C104.44 80.8944 104.386 80.9545 104.352 80.9905C104.133 81.2282 104.073 82.0523 104.474 82.8029C105.064 83.906 106.167 84.4629 107.005 84.6165C110.896 85.3297 114.664 84.4175 114.701 84.4082C114.736 84.4002 114.772 84.3948 114.807 84.3948L114.81 84.3935Z" fill="black"/>
<path d="M131.983 47.4816C131.692 47.2572 131.648 46.8312 131.895 46.5587C133.427 44.8652 135.143 41.4502 135.154 41.5798C135.27 42.9861 137.431 42.5293 139.526 43.6111C140.775 44.2562 140.835 45.2459 140.68 45.9403C140.629 46.1647 140.869 46.3477 141.073 46.2408C141.635 45.947 142.366 45.8428 142.694 47.0315C143.059 48.3524 141.245 49.9083 140.118 50.1166C140.183 50.4331 140.911 53.577 141.807 57.2044C141.985 57.9229 143.817 58.564 143.817 58.564C137.775 61.1817 134.817 60.1039 133.984 58.5186L133.789 58.1473C133.587 57.7627 133.783 57.2885 134.199 57.1617L135.163 56.8652C135.979 56.5633 136.305 55.778 136.341 54.9901L136.293 52.2121C135.817 52.3924 135.24 52.5807 134.781 52.6248C133.868 52.7103 133.094 52.1787 132.83 51.2999C132.467 50.0952 132.394 48.9333 132.611 47.9664L131.98 47.4816H131.983Z" fill="white"/>
<path d="M137.582 60.5871C135.44 60.5871 134.151 59.7897 133.593 58.7253L133.398 58.354C133.24 58.0535 133.224 57.7023 133.355 57.3897C133.486 57.0772 133.747 56.8395 134.07 56.7407L135.034 56.4442C135.739 56.1824 135.881 55.4091 135.9 54.971L135.862 52.8328C135.458 52.961 135.11 53.0385 134.823 53.0652C133.707 53.1707 132.734 52.5123 132.407 51.4278C132.057 50.2646 131.961 49.1387 132.125 48.1517L131.711 47.8338C131.474 47.6509 131.321 47.3744 131.295 47.0753C131.268 46.7801 131.367 46.4836 131.564 46.2646C132.638 45.0773 133.831 42.9738 134.405 41.9627C134.842 41.1921 134.909 41.0733 135.245 41.1481C135.435 41.1895 135.576 41.3537 135.592 41.5474C135.631 42.0175 136.064 42.1564 137.196 42.4035C137.926 42.5624 138.832 42.7614 139.727 43.2222C141.082 43.9207 141.246 44.9878 141.163 45.7197C141.556 45.5754 141.914 45.5727 142.233 45.7103C142.648 45.8906 142.946 46.2966 143.117 46.9177C143.268 47.4639 143.149 48.0716 142.772 48.6726C142.296 49.4352 141.435 50.1283 140.638 50.4288C140.867 51.4265 141.488 54.0749 142.235 57.1013C142.298 57.355 143.121 57.8545 143.962 58.1497C144.135 58.2098 144.251 58.3687 144.257 58.5517C144.264 58.7333 144.159 58.9002 143.992 58.9724C141.327 60.1263 139.208 60.5871 137.581 60.5871H137.582ZM136.294 51.7711C136.38 51.7711 136.467 51.7964 136.542 51.8472C136.661 51.9273 136.734 52.0622 136.736 52.2051L136.784 54.9831C136.733 56.1276 136.199 56.9543 135.317 57.2816L134.329 57.5861C134.23 57.6168 134.187 57.6889 134.17 57.7303C134.153 57.7717 134.131 57.8532 134.179 57.944L134.374 58.3153C135.092 59.6815 137.689 60.4976 142.679 58.557C142.106 58.2578 141.505 57.8305 141.377 57.3136C140.468 53.6408 139.746 50.5143 139.683 50.2098C139.659 50.0936 139.683 49.9721 139.749 49.8732C139.815 49.7744 139.918 49.7063 140.034 49.6849C140.614 49.5781 141.552 48.957 142.023 48.2038C142.191 47.934 142.37 47.5333 142.265 47.1527C142.171 46.8121 142.034 46.5878 141.88 46.521C141.707 46.4449 141.454 46.541 141.274 46.6358C141.025 46.7654 140.732 46.74 140.509 46.5677C140.286 46.3968 140.184 46.1203 140.245 45.8465C140.428 45.0252 140.127 44.4228 139.32 44.0075C138.529 43.5988 137.72 43.4225 137.007 43.2662C136.258 43.102 135.535 42.9444 135.105 42.5183C134.493 43.5961 133.317 45.6449 132.219 46.8576C132.173 46.9083 132.171 46.9657 132.173 46.9951C132.176 47.0272 132.189 47.0873 132.25 47.1327L132.88 47.6175C133.016 47.7217 133.079 47.8966 133.041 48.0649C132.838 48.9691 132.912 50.0442 133.253 51.1741C133.458 51.8539 134.04 52.2505 134.739 52.1864C135.077 52.1544 135.546 52.0248 136.135 51.8018C136.185 51.7831 136.239 51.7724 136.292 51.7724L136.294 51.7711Z" fill="black"/>
<path d="M136.296 52.6536C136.129 52.6536 135.968 52.5588 135.894 52.3972C135.791 52.1755 135.888 51.9124 136.109 51.8109L136.811 51.4863C137.033 51.3835 137.296 51.481 137.397 51.7013C137.5 51.923 137.403 52.1862 137.182 52.2877L136.48 52.6122C136.42 52.6402 136.357 52.6536 136.294 52.6536H136.296Z" fill="black"/>
<path d="M85.0743 156.854C85.6339 156.289 88.8633 146.24 88.8633 146.24L95.2459 150.794L88.2476 160.198L85.073 156.853L85.0743 156.854Z" fill="white"/>
<path d="M88.2493 160.641C88.1291 160.641 88.0129 160.592 87.9287 160.504L84.7541 157.159C84.5925 156.99 84.5925 156.724 84.7514 156.554C85.1294 156.051 86.9337 150.802 88.4429 146.108C88.4856 145.973 88.5912 145.867 88.7247 145.823C88.8583 145.779 89.0052 145.8 89.12 145.883L95.5026 150.438C95.5988 150.507 95.6643 150.611 95.683 150.729C95.7016 150.846 95.6723 150.966 95.6015 151.061L88.6032 160.465C88.5257 160.569 88.4055 160.634 88.2746 160.643C88.2653 160.643 88.2573 160.643 88.2479 160.643L88.2493 160.641ZM85.6195 156.787L88.2078 159.514L94.6225 150.893L89.0987 146.952C88.1518 149.881 86.3768 155.258 85.6195 156.787Z" fill="black"/>
<path d="M96.575 169.557L92.3306 169.532C89.5219 169.516 86.9096 168.088 85.379 165.735L81.1814 159.09C80.0221 157.254 80.6699 154.821 82.5877 153.802C84.34 152.871 86.175 151.964 86.6051 152.005C87.4785 152.088 87.8311 156.219 87.8311 156.219L91.6121 156.365C91.6121 156.365 93.4805 164.133 95.1246 165.016C96.3226 165.66 97.1586 166.604 97.7209 167.467C98.3099 168.37 97.6528 169.565 96.575 169.558V169.557Z" fill="#FF5A24"/>
<path d="M96.5836 169.999H96.5729L92.3285 169.974C89.3622 169.957 86.6257 168.462 85.0083 165.975L80.808 159.326C80.1896 158.348 80.0067 157.146 80.3031 156.028C80.601 154.909 81.3582 153.954 82.3813 153.411C85.9766 151.499 86.432 151.543 86.6484 151.563C87.61 151.656 88.0427 153.829 88.2377 155.79L91.6313 155.921C91.829 155.929 91.9973 156.067 92.044 156.259C92.7492 159.188 94.265 164.05 95.3361 164.625C96.4219 165.209 97.3488 166.082 98.0927 167.223C98.4587 167.784 98.4854 168.472 98.1635 169.061C97.847 169.64 97.2433 169.998 96.5836 169.998V169.999ZM86.5362 152.448C86.3813 152.472 85.6547 152.672 82.7966 154.192C81.9779 154.627 81.3956 155.36 81.1579 156.255C80.9202 157.149 81.0617 158.072 81.5559 158.854L85.7535 165.499C87.2053 167.73 89.6667 169.074 92.3338 169.09L96.5782 169.115C96.9215 169.111 97.2233 168.939 97.3876 168.639C97.5505 168.339 97.5371 167.992 97.3515 167.708C96.6891 166.693 95.8704 165.918 94.9168 165.405C93.2994 164.536 91.7235 158.645 91.264 156.793L87.8156 156.661C87.5926 156.653 87.411 156.48 87.3923 156.257C87.24 154.472 86.8447 152.727 86.5362 152.448Z" fill="black"/>
<path d="M96.1491 168.341C96.1277 168.341 96.105 168.34 96.0823 168.336L90.2766 167.461C88.8382 167.245 87.5855 166.405 86.8376 165.158L81.7077 156.587C81.5822 156.378 81.6503 156.106 81.86 155.981C82.0697 155.855 82.3408 155.923 82.4663 156.133L87.5962 164.703C88.2065 165.724 89.2322 166.41 90.4075 166.588L96.2132 167.463C96.4549 167.499 96.6205 167.724 96.5845 167.966C96.5511 168.185 96.3628 168.343 96.1477 168.343L96.1491 168.341Z" fill="black"/>
<path d="M106.852 154.937L114.18 162.839L118.191 160.939L112.521 151.023L106.852 154.937Z" fill="white"/>
<path d="M114.18 163.281C114.06 163.281 113.941 163.232 113.856 163.14L106.527 155.237C106.441 155.144 106.398 155.015 106.413 154.889C106.427 154.762 106.495 154.646 106.601 154.573L112.27 150.66C112.372 150.589 112.499 150.565 112.619 150.593C112.739 150.622 112.843 150.698 112.905 150.804L118.574 160.72C118.635 160.826 118.649 160.955 118.611 161.072C118.574 161.19 118.49 161.286 118.379 161.339L114.368 163.24C114.308 163.268 114.243 163.283 114.179 163.283L114.18 163.281ZM107.522 155.01L114.283 162.301L117.57 160.744L112.376 151.661L107.522 155.01Z" fill="black"/>
<path d="M111.923 161.216C111.923 161.216 111.565 164.384 112.172 167.182C112.496 168.674 113.84 169.723 115.367 169.723H133.555C134.854 169.723 135.444 168.1 134.447 167.265C131.213 164.555 125.263 160.419 117.95 159.205L115.911 162.06L111.924 161.216H111.923Z" fill="#FF5A24"/>
<path d="M133.554 170.165H115.366C113.629 170.165 112.103 168.95 111.74 167.277C111.125 164.439 111.468 161.299 111.484 161.166C111.498 161.042 111.564 160.93 111.664 160.858C111.766 160.786 111.892 160.758 112.014 160.784L115.717 161.57L117.589 158.951C117.686 158.813 117.854 158.744 118.021 158.772C125.586 160.027 131.736 164.421 134.729 166.929C135.327 167.43 135.542 168.229 135.275 168.961C135.008 169.694 134.332 170.167 133.552 170.167L133.554 170.165ZM112.32 161.753C112.25 162.734 112.157 165.03 112.604 167.09C112.881 168.36 114.041 169.283 115.366 169.283H133.554C134.044 169.283 134.336 168.961 134.446 168.659C134.555 168.357 134.539 167.922 134.163 167.606C131.275 165.186 125.383 160.97 118.148 159.691L116.269 162.32C116.168 162.463 115.991 162.533 115.818 162.495L112.32 161.754V161.753Z" fill="black"/>
<path d="M132.689 167.665H113.84C113.596 167.665 113.398 167.468 113.398 167.223C113.398 166.979 113.596 166.781 113.84 166.781H132.689C132.933 166.781 133.131 166.979 133.131 167.223C133.131 167.468 132.933 167.665 132.689 167.665Z" fill="black"/>
<path d="M67.6264 102.837C67.6264 102.837 101.495 98.894 111.565 107.611C121.636 116.328 95.6677 153.815 95.6677 153.815L87.4554 147.725L95.2457 121.23L63.939 112.339L67.6278 102.835L67.6264 102.837Z" fill="#FF5A24"/>
<path d="M95.6689 154.259C95.5741 154.259 95.4819 154.228 95.4058 154.172L87.1935 148.082C87.0452 147.971 86.9798 147.78 87.0332 147.602L94.698 121.535L63.82 112.767C63.6998 112.734 63.6009 112.651 63.5448 112.539C63.4901 112.428 63.4834 112.298 63.5288 112.182L67.2176 102.678C67.2764 102.526 67.4153 102.418 67.5782 102.399C68.9685 102.238 101.755 98.5354 111.857 107.279C122.11 116.154 97.1033 152.525 96.0335 154.069C95.9654 154.168 95.8599 154.233 95.7424 154.253C95.7183 154.257 95.6943 154.259 95.6703 154.259H95.6689ZM87.9681 147.556L95.5634 153.188C98.2305 149.248 120.409 115.851 111.278 107.947C101.931 99.8576 71.1281 102.907 67.9428 103.247L64.5265 112.048L95.3671 120.806C95.4806 120.838 95.5768 120.914 95.6329 121.018C95.6903 121.121 95.7036 121.242 95.6703 121.356L87.9668 147.556H87.9681Z" fill="black"/>
<path d="M48.9877 120.09C53.9079 121.651 62.7092 123.669 75.0123 123.502C78.5074 123.454 81.7355 125.385 83.3235 128.5C86.9682 135.646 94.8546 148.513 107.703 156.852L114.786 152.671L98.1775 118.293C96.7471 115.075 94.0733 112.573 90.7665 111.36L59.7269 99.9789C59.7269 99.9789 50.1029 97.2891 45.3844 105.881C44.5416 107.415 43.9687 108.799 43.5961 110.037C42.3179 114.281 44.762 118.749 48.9877 120.09Z" fill="#FF5A24"/>
<path d="M107.703 157.295C107.619 157.295 107.535 157.271 107.463 157.224C94.473 148.792 86.5171 135.734 82.9298 128.701C81.41 125.721 78.3796 123.904 75.018 123.944C62.8498 124.111 54.0752 122.169 48.8532 120.511C44.3884 119.094 41.8388 114.338 43.1717 109.91C43.5791 108.558 44.1921 107.132 44.9961 105.668C49.8281 96.8706 59.746 99.5257 59.8461 99.5537C59.8568 99.5564 59.8688 99.5604 59.8795 99.5644L90.9191 110.946C94.3181 112.192 97.1121 114.806 98.5812 118.114L115.183 152.479C115.284 152.686 115.208 152.936 115.01 153.052L107.926 157.234C107.857 157.275 107.779 157.295 107.702 157.295H107.703ZM75.1422 123.059C78.787 123.059 82.0644 125.057 83.7165 128.299C87.241 135.212 95.0326 148.008 107.714 156.332L114.21 152.496L97.7785 118.485C96.3989 115.381 93.7892 112.94 90.6133 111.775L59.591 100.4C59.0248 100.247 50.2088 98.0112 45.7707 106.094C44.9961 107.503 44.4071 108.872 44.0185 110.165C42.8232 114.134 45.1123 118.397 49.1203 119.67C54.2809 121.307 62.962 123.225 75.006 123.061C75.0514 123.061 75.0968 123.061 75.1422 123.061V123.059Z" fill="black"/>
<path d="M109.173 62.6482C109.417 62.1274 110.611 57.4022 111.993 56.6556C113.376 55.909 120.769 51.065 120.648 52.2256C120.526 53.3862 117.497 56.6409 117.497 56.6409C117.497 56.6409 118.413 62.2235 113.385 62.8766L112.349 64.7731L109.173 62.6482Z" fill="white"/>
<path d="M112.505 65.411L108.611 62.8053L108.772 62.4607C108.811 62.3779 108.918 62.04 109.022 61.7128C109.753 59.405 110.629 56.8915 111.783 56.2691C112.093 56.1022 112.723 55.7175 113.52 55.2301C119.08 51.8337 120.268 51.3543 120.826 51.7069C121.014 51.8257 121.112 52.0381 121.088 52.2731C120.967 53.4284 118.702 55.9833 117.962 56.79C118.04 57.4978 118.161 59.7389 116.905 61.4297C116.159 62.4314 115.071 63.0537 113.669 63.2821L112.507 65.4097L112.505 65.411ZM109.706 62.4754L112.193 64.1382L113.105 62.4688L113.328 62.4394C114.591 62.2751 115.556 61.7596 116.191 60.9075C117.448 59.222 117.065 56.7392 117.061 56.7139L117.026 56.5002L117.173 56.3412C118.211 55.226 119.633 53.4952 120.074 52.5763C118.832 53.0184 115.505 55.0524 113.981 55.9833C113.172 56.4775 112.533 56.8674 112.202 57.0464C111.266 57.5513 110.248 60.7686 109.865 61.9799C109.799 62.1856 109.749 62.3472 109.706 62.4754Z" fill="black"/>
<path d="M112.702 57.5704L115.649 56.3965V56.7344C115.649 57.2926 115.428 57.8269 115.033 58.2208C114.667 58.5841 114.257 59.1397 114.157 59.8596C113.969 61.2218 112.338 61.7227 112.338 61.7227L112.702 57.5704Z" fill="white"/>
<path d="M112.492 62.1663C112.303 62.1663 112.128 62.0448 112.07 61.8538C111.998 61.6201 112.128 61.373 112.362 61.3009C112.374 61.2969 113.726 60.8601 113.873 59.7997C113.991 58.9423 114.483 58.2972 114.874 57.9086C115.109 57.6749 115.264 57.3824 115.327 57.0618L113.019 57.982C112.792 58.0728 112.536 57.962 112.445 57.7349C112.354 57.5079 112.465 57.2515 112.692 57.1607L115.638 55.9867C115.774 55.932 115.928 55.9493 116.05 56.0308C116.171 56.1136 116.243 56.2498 116.243 56.3967V56.7346C116.243 57.4171 115.979 58.0555 115.498 58.5336C115.203 58.8274 114.833 59.3069 114.747 59.9199C114.523 61.5426 112.699 62.1222 112.621 62.1449C112.578 62.1583 112.534 62.165 112.492 62.165V62.1663Z" fill="black"/>
<path d="M67.6768 54.2086C67.6768 54.2086 78.7886 52.1719 85.3502 62.0576C91.9117 71.9448 101.986 73.1294 108.153 61.7238L114.469 64.7742C114.469 64.7742 107.126 86.0522 91.9157 82.1778C76.9669 78.3688 72.621 69.6075 72.621 69.6075L67.6768 54.2086Z" fill="#FF9A79"/>
<path d="M57.7454 54.1937C57.7454 54.1937 47.7769 54.9296 45.2593 64.9956C42.7418 75.0617 45.9151 102.226 42.623 110.378C40.9949 114.408 50.6697 117.415 56.3858 111.827C64.2402 104.149 76.8065 101.731 82.0872 101.968C87.368 102.204 82.0872 81.5752 82.0872 81.5752C82.0872 81.5752 76.7691 55.7563 71.71 54.804C66.6509 53.8518 57.7454 54.195 57.7454 54.195V54.1937Z" fill="#FF9A79"/>
<path d="M72.2353 55.8261L74.0664 70.1432L60.6667 56.8424C60.6667 56.8424 67.8413 55.0167 72.2353 55.8261Z" fill="#FEB9A3"/>
<path d="M74.2358 75.5768C74.2358 75.5768 75.0105 72.0376 76.0896 70.7902C77.1687 69.5428 78.7193 67.8239 78.1797 69.6443C77.6402 71.4646 77.7751 72.1885 77.9099 72.2139C78.0448 72.2393 80.8081 69.1381 82.157 67.4874C83.5059 65.8353 85.6375 66.8556 84.2471 70.1438C82.8555 73.4319 82.2251 75.3337 79.4685 76.6479C76.712 77.9621 76.4943 79.3177 76.4943 79.3177L74.2358 75.5768Z" fill="white"/>
<path d="M76.6981 80.498L76.1158 79.547L73.7666 75.6552L73.804 75.4829C73.836 75.3334 74.616 71.8195 75.7552 70.5027C77.3793 68.6249 77.9282 68.2082 78.425 68.4806C78.9072 68.7451 78.7015 69.4382 78.6026 69.7708C78.405 70.4386 78.3088 70.922 78.2647 71.2626C79.1435 70.3264 80.7796 68.4753 81.8133 67.2079C82.5452 66.3117 83.5482 66.0192 84.3108 66.4786C85.0681 66.9354 85.5555 68.1828 84.6527 70.3157L84.3696 70.9888C83.1662 73.8576 82.3716 75.7527 79.6564 77.0482C77.2003 78.2182 76.9292 79.3868 76.9279 79.3988L76.6968 80.498H76.6981ZM74.7068 75.5016L76.4537 78.3958C76.8571 77.8148 77.6651 77.0188 79.2771 76.2496C81.6878 75.101 82.3515 73.5183 83.5549 70.6469L83.8393 69.9711C84.4791 68.4606 84.3081 67.5084 83.8554 67.2359C83.4908 67.0169 82.9338 67.2359 82.4985 67.7675C81.8601 68.5501 80.8424 69.7307 79.9061 70.7751C78.1699 72.7143 78.1098 72.7023 77.8267 72.6502C77.6851 72.6235 77.5636 72.5367 77.4821 72.4045C77.2431 72.0118 77.3245 71.0262 77.7051 69.6853C77.4287 69.9538 77.02 70.3878 76.4217 71.081C75.6431 71.9811 74.9539 74.4305 74.7042 75.5016H74.7068Z" fill="black"/>
<path d="M63.7562 97.8145C55.5799 97.8145 51.039 77.5876 50.8494 76.7235C50.7973 76.4844 50.9482 76.2493 51.186 76.1973C51.425 76.1452 51.6601 76.2961 51.7122 76.5338C51.7576 76.7395 56.3225 97.0426 63.8136 96.9304C69.7261 96.8463 73.0757 87.074 74.2403 82.8764C74.6236 81.4941 75.2299 80.2066 76.0446 79.046L74.0159 76.0076L73.7501 76.3094C72.834 77.868 68.4814 85.1388 66.8173 85.5061C66.5368 85.5675 66.3365 85.4834 66.219 85.4006C64.9689 84.5351 63.6627 81.641 62.8921 78.0283C62.7692 77.4527 62.641 76.7849 62.5048 76.0784C61.8944 72.8998 60.9716 68.0985 59.4784 67.0741C59.2767 66.9365 59.226 66.6614 59.3636 66.4597C59.5011 66.2581 59.7776 66.2073 59.9779 66.3449C61.7702 67.5749 62.6584 72.1973 63.3716 75.9115C63.5064 76.614 63.6347 77.2777 63.7549 77.844C64.4467 81.0854 65.6353 83.8527 66.665 84.6326C67.5385 84.3789 70.6089 79.9088 73.0089 75.8246C73.0236 75.8006 73.0396 75.7779 73.0583 75.7565L73.7328 74.9926C73.8236 74.8898 73.9558 74.835 74.0934 74.8443C74.2309 74.8537 74.3552 74.9258 74.4313 75.0393L76.9488 78.8096C77.0516 78.9645 77.0476 79.1675 76.9368 79.3171C76.0954 80.4563 75.4743 81.7331 75.091 83.1114C73.8717 87.5001 70.3338 97.7197 63.8243 97.8132C63.8003 97.8132 63.7776 97.8132 63.7535 97.8132L63.7562 97.8145Z" fill="black"/>
<path d="M62.9453 43.1637L61.1022 52.132C60.8885 53.0522 60.1299 53.748 59.1883 53.8882L58.0625 54.0552C57.4695 54.1433 57.2892 54.8992 57.7767 55.2451C60.0591 56.8692 65.3867 59.6364 71.8641 56.1773C72.425 55.8421 72.3315 55.0087 71.7105 54.8004L70.2027 54.2955C69.3172 53.9991 68.6962 53.2057 68.6267 52.2815L69.3292 42.2168L62.9466 43.1637H62.9453Z" fill="white"/>
<path d="M65.5799 58.2651C61.8123 58.2651 58.9048 56.5916 57.5199 55.606C57.1499 55.3429 56.979 54.8888 57.0845 54.4507C57.19 54.0127 57.5479 53.6855 57.9967 53.6187L59.1225 53.4518C59.8905 53.3382 60.4982 52.7813 60.6704 52.0334L62.5108 43.0758C62.5482 42.8942 62.6951 42.7553 62.8794 42.7272L69.2621 41.7803C69.3943 41.7603 69.5292 41.8017 69.6267 41.8925C69.7255 41.9833 69.7762 42.1142 69.7669 42.2478L69.0671 52.2791C69.1338 53.0137 69.6307 53.6387 70.3398 53.8765L71.8477 54.3813C72.3018 54.5335 72.6156 54.9222 72.6677 55.3963C72.7185 55.8678 72.4968 56.3125 72.0881 56.5569C69.7469 57.807 67.5445 58.2638 65.5773 58.2638L65.5799 58.2651ZM63.3162 43.5566L61.5345 52.2217C61.2768 53.3369 60.3806 54.1583 59.2521 54.3265L58.1262 54.4935C57.9913 54.5135 57.9539 54.615 57.9432 54.6578C57.9325 54.7005 57.9205 54.8087 58.0314 54.8875C60.4835 56.6317 65.5145 59.0691 71.654 55.7903C71.7943 55.7062 71.7956 55.5539 71.7903 55.4938C71.7836 55.4324 71.7489 55.2828 71.5686 55.2214L70.0607 54.7165C69.0043 54.3626 68.2671 53.421 68.1843 52.3165C68.1829 52.2952 68.1829 52.2738 68.1843 52.2524L68.848 42.7353L63.3148 43.5566H63.3162Z" fill="black"/>
<path d="M75.8444 33.355C73.8945 32.6846 75.823 35.4024 69.0838 31.2275C66.4007 29.5647 66.9363 33.3497 66.2391 32.921C63.6642 31.3343 62.9536 30.9297 61.4885 30.9003C60.5189 30.8816 58.1109 32.1143 58.0735 33.4058C57.952 37.6221 60.0114 37.0759 60.2545 40.8515C60.4254 43.5026 60.9049 44.4308 61.785 45.0572C62.6745 45.6915 63.771 44.583 64.794 45.2027C66.1189 46.0054 65.1493 48.3854 66.2631 49.7984C66.9657 50.6892 68.9329 51.564 72.6618 50.9042C73.2655 50.7974 73.7062 50.2752 73.7075 49.6635C73.7075 48.8795 73.7035 47.8885 73.6207 46.943C73.2214 42.4328 72.0114 41.0986 72.8381 40.1917C74.1042 38.8014 76.9396 40.5991 77.8237 39.4131C78.7412 38.1817 78.5155 34.2712 75.8458 33.3537L75.8444 33.355Z" fill="black"/>
<path d="M66.9683 38.4376L67.2434 39.6449C67.3729 40.2139 67.4624 40.7895 67.5132 41.3691C67.6067 42.4576 67.8404 44.3207 67.9592 45.3691C68.3412 48.7414 73.0317 46.4709 73.0317 46.4709L73.5258 45.711L74.0881 45.6496C74.1963 45.6375 74.3045 45.6028 74.3926 45.5387C74.613 45.3771 74.6904 45.1033 74.6076 44.8629C74.1602 43.5461 73.2747 40.6212 73.3282 38.2346C73.3282 38.2346 70.3285 36.5023 66.9696 38.4376H66.9683Z" fill="white"/>
<path d="M70.0949 47.6561C69.5901 47.6561 69.0946 47.5693 68.6726 47.3355C68.0101 46.9696 67.6215 46.3245 67.5187 45.4177C67.4866 45.1305 67.4452 44.782 67.3998 44.4053C67.2836 43.4237 67.1394 42.203 67.0712 41.4057C67.0232 40.8488 66.9364 40.2878 66.8122 39.7416L66.537 38.5342C66.4943 38.3446 66.5798 38.1496 66.748 38.0534C70.2873 36.014 73.4178 37.7743 73.5487 37.8504C73.6889 37.9306 73.7731 38.0815 73.7691 38.2431C73.7156 40.5963 74.6292 43.5559 75.0245 44.7179C75.1714 45.1492 75.0218 45.622 74.6518 45.8931C74.5076 45.9987 74.33 46.0654 74.135 46.0868L73.7797 46.1255L73.3991 46.7105C73.355 46.7786 73.2936 46.832 73.2215 46.8668C73.1347 46.9095 71.5707 47.6547 70.0936 47.6547L70.0949 47.6561ZM67.4732 38.6638L67.6736 39.5453C67.8071 40.1316 67.9006 40.7326 67.9527 41.3309C68.0195 42.1135 68.1637 43.3275 68.2786 44.3025C68.324 44.6805 68.3641 45.0304 68.3975 45.3189C68.4669 45.9332 68.6966 46.3406 69.0986 46.5623C70.0896 47.1098 71.958 46.4728 72.7287 46.1242L73.1534 45.4698C73.2255 45.3589 73.3443 45.2855 73.4752 45.2708L74.0375 45.2093C74.0949 45.2027 74.1216 45.1866 74.1283 45.1813C74.1978 45.1305 74.2031 45.0531 74.1871 45.0037C73.6969 43.5613 72.8956 40.8488 72.8822 38.5035C72.1864 38.1817 69.9761 37.3723 67.4732 38.6638Z" fill="black"/>
<path d="M66.7529 42.3172C66.7529 42.3172 66.0958 39.4151 64.8337 39.9867C63.5729 40.5583 64.3769 43.7356 66.7529 42.3172Z" fill="white"/>
<path d="M58.9229 128.299L51.5653 100.267C50.7573 97.1872 48.0021 94.9648 44.8542 94.9648H39.0592C34.4996 94.9648 31.1768 99.3094 32.348 103.771L39.4358 130.759C40.2438 133.839 42.9991 135.974 46.147 135.974H60.5643L58.9229 128.3V128.299Z" fill="white"/>
<path d="M55.2804 115.498C55.0814 115.498 54.9011 115.363 54.8517 115.162L51.1776 100.199C50.411 97.2785 47.8267 95.2337 44.8951 95.2337H35.215C34.9706 95.2337 34.7729 95.0361 34.7729 94.7917C34.7729 94.5473 34.9706 94.3496 35.215 94.3496H44.8951C48.2273 94.3496 51.1629 96.6655 52.0336 99.9816L55.7091 114.951C55.7679 115.187 55.6223 115.427 55.3846 115.485C55.3498 115.494 55.3138 115.498 55.279 115.498H55.2804Z" fill="#FFC7B5"/>
<path d="M176.957 175.855L220.484 175.423C228.356 175.423 235.087 170.285 236.467 162.462L243.918 120.188C244.806 115.152 240.969 110.529 235.901 110.529H207.5L176.957 175.857V175.855Z" fill="#FFC7B5"/>
<path d="M210.203 225.12L210.085 175.346L202.923 175.606L203.042 225.12H210.203Z" fill="#FFC7B5"/>
<path d="M235.108 227.404V226.617C235.108 222.306 231.22 220.062 226.25 220.062H186.133C181.344 220.062 177.429 223.309 177.153 227.403H235.109L235.108 227.404Z" fill="#FFC7B5"/>
<path d="M228.534 161.083C228.508 161.083 228.483 161.08 228.456 161.076C228.216 161.033 228.055 160.805 228.097 160.565L234.673 123.2C234.716 122.959 234.946 122.799 235.185 122.84C235.425 122.883 235.585 123.112 235.544 123.352L228.968 160.717C228.93 160.932 228.743 161.083 228.532 161.083H228.534Z" fill="#CADDFF"/>
<path d="M144.242 212.796L140.811 216.453C139.505 217.846 138.766 219.688 138.746 221.608L138.717 224.373L128.625 221.57C130.826 219.192 133.049 216.997 134.54 214.109L137.662 208.064L144.242 212.796Z" fill="white"/>
<path d="M138.718 224.816C138.678 224.816 138.639 224.81 138.599 224.8L128.507 221.996C128.359 221.955 128.243 221.839 128.2 221.69C128.157 221.542 128.196 221.382 128.302 221.27C128.569 220.981 128.836 220.695 129.103 220.411C131.038 218.343 132.867 216.39 134.149 213.907L137.27 207.862C137.329 207.749 137.434 207.664 137.56 207.635C137.685 207.606 137.816 207.631 137.92 207.706L144.501 212.438C144.603 212.512 144.67 212.627 144.682 212.754C144.694 212.881 144.652 213.007 144.565 213.099L141.134 216.755C139.898 218.072 139.208 219.797 139.189 221.613L139.16 224.377C139.158 224.515 139.093 224.643 138.983 224.726C138.906 224.785 138.813 224.814 138.718 224.814V224.816ZM129.445 221.339L138.281 223.794L138.304 221.604C138.325 219.565 139.101 217.629 140.487 216.15L143.574 212.861L137.819 208.722L134.933 214.311C133.595 216.904 131.726 218.9 129.747 221.015C129.645 221.123 129.545 221.231 129.444 221.339H129.445Z" fill="black"/>
<path d="M140.558 220.92C140.765 222.407 140.77 225.098 140.797 227.569C140.814 229.121 139.663 230.43 138.143 230.627C133.844 231.185 123.106 231.737 114.799 230.973C114.23 230.921 113.224 230.502 112.944 229.065C112.004 224.239 120.299 223.056 129.392 219.554C129.749 219.417 130.152 219.498 130.426 219.766L131.406 220.728C132.388 221.69 133.843 221.962 135.099 221.42L139.397 220.257C139.905 220.038 140.479 220.366 140.556 220.919L140.558 220.92Z" fill="#FF5A24"/>
<path d="M124.114 231.786C120.904 231.786 117.645 231.679 114.759 231.414C113.911 231.336 112.813 230.696 112.512 229.149C111.717 225.071 116.743 223.403 123.104 221.29C125.075 220.636 127.115 219.959 129.235 219.141C129.752 218.942 130.341 219.064 130.737 219.451L131.717 220.413C132.572 221.251 133.831 221.486 134.926 221.015L134.986 220.994L139.256 219.838C139.615 219.694 140.012 219.721 140.351 219.911C140.704 220.11 140.939 220.455 140.996 220.859C141.186 222.214 141.209 224.529 141.231 226.767L141.239 227.563C141.259 229.332 139.953 230.837 138.2 231.065C135.191 231.456 129.73 231.785 124.112 231.785L124.114 231.786ZM129.746 219.932C129.681 219.932 129.616 219.944 129.553 219.968C127.414 220.792 125.364 221.472 123.383 222.13C117.201 224.183 112.733 225.667 113.38 228.98C113.648 230.356 114.644 230.516 114.841 230.534C123.367 231.316 134.189 230.695 138.087 230.189C139.396 230.019 140.371 228.895 140.357 227.574L140.349 226.778C140.326 224.568 140.303 222.281 140.121 220.982C140.104 220.853 140.029 220.744 139.918 220.681C139.856 220.646 139.727 220.597 139.575 220.662L139.515 220.684L135.247 221.839C133.828 222.437 132.203 222.126 131.098 221.044L130.118 220.083C130.018 219.984 129.883 219.932 129.746 219.932Z" fill="black"/>
<path d="M140.564 227.095C140.564 227.095 140.569 227.346 140.571 227.466C140.588 229.018 139.437 230.327 137.916 230.525C133.616 231.083 123.107 231.737 114.798 230.974C114.23 230.921 113.224 230.502 112.943 229.065C112.858 228.624 112.91 227.83 112.91 227.83L113.499 227.859C121.893 228.278 130.307 228.074 138.672 227.249L140.561 227.094L140.564 227.095Z" fill="white"/>
<path d="M123.315 231.765C120.454 231.765 117.512 231.667 114.761 231.415C113.913 231.337 112.815 230.698 112.513 229.15C112.419 228.666 112.468 227.888 112.473 227.801C112.489 227.561 112.691 227.376 112.936 227.388L113.525 227.418C121.87 227.834 130.317 227.63 138.632 226.809L140.529 226.654C140.652 226.644 140.771 226.684 140.861 226.766C140.952 226.847 141.004 226.964 141.007 227.085C141.007 227.085 141.012 227.339 141.014 227.46C141.034 229.229 139.726 230.735 137.974 230.962C135.37 231.3 129.539 231.763 123.315 231.763V231.765ZM113.34 228.294C113.337 228.531 113.346 228.803 113.38 228.98C113.648 230.356 114.645 230.515 114.841 230.533C123.506 231.329 134.092 230.576 137.86 230.086C139.135 229.92 140.094 228.849 140.13 227.574L138.713 227.69C130.36 228.514 121.87 228.72 113.481 228.3L113.34 228.294Z" fill="black"/>
<path d="M127.308 225.208C127.195 225.208 127.08 225.164 126.993 225.077L123.802 221.846C123.631 221.672 123.633 221.392 123.806 221.221C123.98 221.05 124.26 221.051 124.431 221.225L127.622 224.456C127.793 224.629 127.792 224.91 127.618 225.081C127.531 225.166 127.419 225.209 127.307 225.209L127.308 225.208Z" fill="black"/>
<path d="M124.174 225.543C124.058 225.543 123.94 225.497 123.853 225.405L121.304 222.723C121.135 222.547 121.142 222.267 121.32 222.098C121.496 221.93 121.777 221.937 121.945 222.114L124.494 224.796C124.663 224.973 124.656 225.253 124.478 225.421C124.393 225.503 124.283 225.543 124.174 225.543Z" fill="black"/>
<path d="M173.041 214.272C170.197 210.212 167.516 201.812 167.516 201.812L161.174 206.285L164.527 212.031C165.649 213.512 165.653 215.749 165.195 217.557L163.988 220.91L173.041 214.271V214.272Z" fill="white"/>
<path d="M163.988 221.354C163.894 221.354 163.802 221.324 163.723 221.266C163.567 221.149 163.506 220.945 163.573 220.762L164.772 217.43C165.283 215.388 165.062 213.471 164.175 212.3C164.164 212.285 164.155 212.271 164.145 212.256L160.792 206.51C160.676 206.313 160.732 206.059 160.919 205.927L167.261 201.454C167.376 201.372 167.523 201.351 167.657 201.396C167.79 201.442 167.894 201.547 167.937 201.681C167.964 201.764 170.631 210.063 173.404 214.021C173.541 214.218 173.497 214.489 173.303 214.632L164.25 221.271C164.172 221.328 164.08 221.356 163.988 221.356V221.354ZM164.895 211.787C165.931 213.175 166.204 215.37 165.623 217.666C165.619 217.68 165.615 217.694 165.611 217.708L164.895 219.698L172.437 214.167C170.078 210.597 167.922 204.43 167.283 202.518L161.76 206.413L164.896 211.786L164.895 211.787Z" fill="black"/>
<path d="M172.895 212.012C173.814 213.189 175.477 215.401 176.733 217.523C177.521 218.854 177.177 220.572 175.962 221.519C174.322 222.796 169.277 226.052 165.993 228.146C164.054 229.382 161.837 230.097 159.549 230.225L156.304 230.408C155.265 230.467 154.22 230.372 153.219 230.088C152.221 229.806 151.214 229.34 151.17 228.609C151.055 226.675 152.948 225.425 154.604 224.705C156.474 223.892 158.123 222.637 159.465 221.087C160.866 219.47 162.573 217.469 163.776 215.962C164.015 215.662 164.403 215.53 164.771 215.622L166.096 215.952C167.422 216.282 168.815 215.776 169.631 214.666L171.567 212.032C171.895 211.585 172.554 211.573 172.895 212.011V212.012Z" fill="#FF5A24"/>
<path d="M155.721 230.866C154.807 230.866 153.929 230.747 153.098 230.514C151.574 230.082 150.777 229.45 150.729 228.636C150.626 226.896 151.905 225.397 154.428 224.301C156.179 223.539 157.806 222.328 159.131 220.799C160.41 219.323 162.193 217.238 163.431 215.686C163.776 215.253 164.345 215.06 164.879 215.193L166.204 215.523C167.359 215.812 168.565 215.372 169.275 214.405L171.211 211.772C171.451 211.444 171.82 211.255 172.222 211.248C172.626 211.243 172.996 211.422 173.243 211.74C174.141 212.89 175.837 215.141 177.111 217.297C178.009 218.813 177.629 220.777 176.232 221.866C174.631 223.113 169.909 226.172 166.229 228.517C164.232 229.79 161.93 230.532 159.571 230.666L156.326 230.849C156.122 230.861 155.919 230.866 155.718 230.866H155.721ZM164.536 216.035C164.377 216.035 164.226 216.107 164.122 216.236C162.875 217.799 161.083 219.895 159.798 221.376C158.387 223.005 156.65 224.297 154.779 225.11C153.278 225.762 151.511 226.894 151.611 228.582C151.634 228.959 152.279 229.362 153.34 229.661C154.257 229.921 155.245 230.023 156.279 229.966L159.525 229.783C161.732 229.659 163.888 228.963 165.756 227.772C168.756 225.859 174.034 222.459 175.691 221.169C176.74 220.353 177.024 218.881 176.353 217.747C175.103 215.633 173.432 213.416 172.548 212.283C172.443 212.15 172.307 212.13 172.235 212.132C172.111 212.134 171.997 212.194 171.923 212.295L169.987 214.929C169.063 216.186 167.494 216.756 165.99 216.382L164.665 216.052C164.622 216.041 164.578 216.036 164.536 216.036V216.035Z" fill="black"/>
<path d="M176.544 217.205C176.544 217.205 176.673 217.419 176.735 217.523C177.523 218.854 177.179 220.572 175.964 221.519C173.422 223.497 168.361 227.095 162.779 230.169C159.603 231.919 153.977 231.142 152.779 230.963C151.944 230.837 151.254 230.265 151.225 229.413L151.181 228.05C151.181 228.05 158.53 229.125 161.292 227.313C166.192 224.098 170.883 221.343 175.621 217.882L176.544 217.208V217.205Z" fill="white"/>
<path d="M157.018 231.733C155.266 231.733 153.664 231.542 152.713 231.399C151.592 231.23 150.817 230.437 150.784 229.426L150.739 228.062C150.735 227.932 150.789 227.806 150.886 227.718C150.984 227.631 151.116 227.591 151.244 227.61C151.316 227.62 158.459 228.639 161.049 226.939C162.65 225.889 164.247 224.876 165.791 223.897C169.077 221.813 172.179 219.845 175.36 217.521L176.283 216.846C176.383 216.773 176.509 216.746 176.631 216.77C176.752 216.794 176.858 216.869 176.922 216.975C176.922 216.975 177.053 217.191 177.114 217.297C178.01 218.812 177.632 220.777 176.234 221.865C173.276 224.168 168.245 227.66 162.991 230.555C161.332 231.468 159.071 231.731 157.017 231.731L157.018 231.733ZM151.64 228.553L151.666 229.397C151.689 230.102 152.315 230.444 152.843 230.524C154.387 230.756 159.649 231.388 162.564 229.781C167.773 226.911 172.76 223.451 175.692 221.17C176.709 220.378 177.007 218.969 176.41 217.849L175.881 218.237C172.677 220.578 169.561 222.553 166.264 224.645C164.723 225.622 163.128 226.633 161.533 227.68C159.073 229.294 153.403 228.766 151.64 228.554V228.553Z" fill="black"/>
<path d="M164.565 221.972C164.528 221.972 164.489 221.966 164.452 221.957L160.087 220.794C159.851 220.731 159.711 220.489 159.774 220.253C159.836 220.016 160.079 219.876 160.314 219.939L164.679 221.102C164.915 221.165 165.056 221.407 164.993 221.643C164.941 221.841 164.762 221.972 164.565 221.972Z" fill="black"/>
<path d="M162.025 223.86C161.985 223.86 161.943 223.854 161.903 223.842L158.367 222.827C158.132 222.761 157.997 222.515 158.064 222.281C158.13 222.046 158.376 221.911 158.611 221.978L162.148 222.994C162.383 223.061 162.518 223.307 162.451 223.541C162.395 223.734 162.219 223.861 162.026 223.861L162.025 223.86Z" fill="black"/>
<path d="M194.024 146.527C194.024 146.527 154.032 145.178 139.817 153.743C126.306 161.883 162.947 211.738 162.947 211.738L170.572 207.512L160.933 174.083C160.261 171.632 161.67 169.092 164.088 168.398L198.605 158.476L194.023 146.527H194.024Z" fill="black"/>
<path d="M214.559 169.532C208.449 171.495 202.265 171.238 186.984 171.027C182.642 170.967 176.498 174.878 174.526 178.794C169.999 187.779 157.602 206.88 141.643 217.366L134.021 213.21L156.075 165.962C157.851 161.915 161.173 158.77 165.28 157.245L203.833 142.934C203.833 142.934 213.906 139.75 219.766 150.552C220.813 152.481 221.524 154.221 221.987 155.777C223.574 161.114 219.806 167.845 214.558 169.53L214.559 169.532Z" fill="black"/>
<path d="M145.448 187.985C145.388 187.985 145.326 187.973 145.268 187.946C145.045 187.846 144.946 187.584 145.045 187.363L154.474 166.317C156.18 162.428 160.561 158.525 165.126 156.832L183.589 149.979C183.818 149.894 184.072 150.011 184.156 150.24C184.242 150.468 184.124 150.723 183.896 150.807L165.433 157.66C161.075 159.277 156.902 162.985 155.282 166.675L145.851 187.723C145.778 187.887 145.616 187.985 145.448 187.985Z" fill="#FF5A24"/>
<path d="M157.151 204.896C157.045 204.896 156.938 204.857 156.852 204.78C156.672 204.614 156.661 204.335 156.825 204.155C158.068 202.805 159.553 200.969 161.239 198.702C161.385 198.505 161.663 198.465 161.858 198.611C162.054 198.756 162.094 199.033 161.949 199.229C160.243 201.521 158.738 203.379 157.476 204.753C157.389 204.848 157.27 204.896 157.15 204.896H157.151Z" fill="white"/>
<path d="M185.875 96.9844C185.875 96.9844 182.129 100.683 179.939 110.436C177.75 120.19 165.475 126.409 159.147 123.366C152.819 120.322 152.62 118.755 152.62 118.755L153.121 123.666C153.121 123.666 169.662 147.503 187.322 135.267C190.957 132.748 190.611 125.724 191.983 122.594C197.278 110.512 185.873 96.9844 185.873 96.9844H185.875Z" fill="#FF9A79"/>
<path d="M184.404 128.893C186.398 109.022 180.651 101.052 187.471 95.0563C193.714 89.5699 204.526 91.3462 209.205 92.1155C214.512 92.9876 218.909 93.7101 221.899 97.077C222.694 97.9719 223.256 98.9081 223.644 99.9044V99.9004C229.357 110.657 224.727 121.762 221.871 126.893C221.4 147.463 229.544 153.646 224.18 161.265C218.375 169.513 205.969 154.595 198.601 152.306C187.608 148.891 178.335 153.596 178.372 151.747C178.49 145.857 183.286 140.036 184.404 128.893Z" fill="#FF9A79"/>
<path d="M198.937 136.592C195.347 136.592 191.127 135.974 186.383 134.214C186.154 134.128 186.037 133.874 186.122 133.646C186.208 133.418 186.462 133.3 186.69 133.385C203.96 139.792 214.335 130.877 214.437 130.786C214.62 130.625 214.9 130.642 215.061 130.825C215.223 131.008 215.207 131.287 215.024 131.449C214.914 131.546 212.285 133.846 207.419 135.351C205.232 136.027 202.373 136.595 198.937 136.595V136.592Z" fill="black"/>
<path d="M192.605 122.799C191.789 122.799 190.944 122.756 190.065 122.667C189.822 122.641 189.646 122.425 189.67 122.182C189.695 121.939 189.91 121.762 190.155 121.786C198.208 122.605 204.481 119.573 208.799 112.777C212.038 107.678 212.898 102.275 212.906 102.221C212.943 101.979 213.169 101.815 213.409 101.851C213.651 101.888 213.817 102.114 213.779 102.354C213.744 102.583 212.882 107.996 209.544 113.25C206.702 117.722 201.513 122.796 192.604 122.796L192.605 122.799Z" fill="black"/>
<path d="M185.72 116.379C185.504 116.379 185.315 116.222 185.283 116.002C183.633 104.715 188.693 98.4817 188.909 98.2213C189.066 98.0343 189.343 98.009 189.532 98.1639C189.719 98.3201 189.745 98.5979 189.589 98.7862C189.538 98.8477 184.568 104.999 186.158 115.873C186.193 116.115 186.026 116.339 185.784 116.374C185.763 116.377 185.742 116.379 185.72 116.379Z" fill="black"/>
<path d="M187.835 122.228C187.835 122.228 175.608 117.771 171.791 109.623L163.921 102.289C163.921 102.289 164.032 105.834 166.369 107.313C166.369 107.313 164.363 111.353 167.322 114.141C167.322 114.141 169.542 115.905 170.866 115.937C170.866 115.937 174.741 128.668 185.205 132.458C185.205 132.458 188.144 127.99 187.834 122.226L187.835 122.228Z" fill="white"/>
<path d="M185.207 132.901C185.156 132.901 185.105 132.893 185.056 132.875C175.378 129.37 171.194 118.264 170.537 116.348C169.128 116.113 167.27 114.664 167.049 114.488C167.039 114.48 167.03 114.472 167.021 114.464C164.387 111.984 165.399 108.57 165.823 107.472C163.615 105.794 163.484 102.451 163.479 102.304C163.473 102.125 163.575 101.961 163.738 101.887C163.901 101.814 164.092 101.844 164.221 101.966L172.092 109.299C172.133 109.338 172.166 109.384 172.191 109.436C175.885 117.322 187.865 121.768 187.985 121.812C188.15 121.872 188.265 122.027 188.275 122.204C188.59 128.047 185.697 132.514 185.574 132.702C185.491 132.829 185.35 132.901 185.204 132.901H185.207ZM167.614 113.807C168.213 114.28 169.924 115.474 170.878 115.496C171.069 115.5 171.234 115.627 171.29 115.809C171.328 115.933 175.141 128.096 185.019 131.916C185.629 130.858 187.567 127.12 187.406 122.537C185.517 121.807 175.038 117.47 171.428 109.888L164.527 103.458C164.758 104.548 165.307 106.118 166.607 106.941C166.798 107.062 166.867 107.308 166.766 107.511C166.691 107.663 164.952 111.283 167.614 113.808V113.807Z" fill="black"/>
<path d="M153.876 111.404L177.992 139.424L165.939 141.315L141.122 114.196L153.876 111.404Z" fill="white"/>
<path d="M165.939 141.758C165.816 141.758 165.697 141.707 165.613 141.613L140.795 114.494C140.689 114.377 140.653 114.212 140.701 114.062C140.749 113.911 140.873 113.798 141.028 113.764L153.782 110.973C153.941 110.938 154.106 110.993 154.212 111.116L178.33 139.136C178.434 139.258 178.465 139.426 178.41 139.577C178.355 139.728 178.222 139.836 178.064 139.861L166.011 141.752C165.988 141.756 165.965 141.758 165.943 141.758H165.939ZM141.965 114.463L166.104 140.841L177.139 139.111L153.712 111.892L141.965 114.463Z" fill="black"/>
<path d="M155.569 130.054C155.569 130.054 151.503 128.458 149.809 126.478C148.114 124.496 149.763 117.623 149.763 117.623L155.569 130.054Z" fill="white"/>
<path d="M155.57 130.497C155.515 130.497 155.46 130.487 155.408 130.466C155.239 130.399 151.22 128.807 149.474 126.765C147.685 124.672 149.16 118.247 149.335 117.52C149.38 117.337 149.534 117.203 149.721 117.184C149.91 117.165 150.087 117.267 150.166 117.436L155.97 129.868C156.047 130.032 156.016 130.226 155.892 130.358C155.806 130.449 155.689 130.497 155.57 130.497ZM149.927 119.015C149.505 121.317 149.107 124.977 150.146 126.191C151.229 127.457 153.381 128.581 154.675 129.182L149.927 119.015Z" fill="black"/>
<path d="M206.385 84.2127C207.634 85.6885 208.466 87.8668 209.288 88.0738C211.007 88.5052 219.294 87.8868 224.858 82.7529C230.306 77.7259 231.672 68.8191 229.043 66.7223C227.154 65.2158 223.692 67.6091 220.853 65.2785C219.596 64.2475 219.985 63.5396 218.648 62.4458C216.396 60.6014 213.242 60.9273 210.824 61.2091C206.41 61.7233 206.436 62.932 202.541 63.5156C196.993 64.3476 194.078 62.327 192.849 63.9684C191.87 65.2772 192.237 70.0051 193.558 71.6171C196.288 74.9506 200.754 70.6528 202.81 73.6845C204.087 75.5676 203.648 77.9369 205.382 82.4644C205.521 82.8264 205.791 83.5102 206.386 84.2127H206.385Z" fill="white"/>
<path d="M210.606 88.6269C209.983 88.6269 209.494 88.5801 209.18 88.5013C208.524 88.3357 208.017 87.505 207.376 86.4513C206.986 85.8102 206.542 85.0836 206.047 84.4973C205.388 83.7187 205.093 82.9508 204.968 82.6222C204.098 80.3531 203.766 78.6169 203.499 77.2226C203.23 75.8229 203.037 74.8106 202.441 73.9318C201.642 72.7525 200.482 72.8767 198.655 73.1745C196.838 73.471 194.78 73.8076 193.215 71.895C191.81 70.1789 191.372 65.2013 192.495 63.7014C193.288 62.6423 194.562 62.8013 196.324 63.0216C197.905 63.2193 199.874 63.4664 202.476 63.0764C204.251 62.8106 205.164 62.4193 206.13 62.0066C207.232 61.5352 208.371 61.0477 210.773 60.7685C213.049 60.5041 216.487 60.1021 218.928 62.1028C219.679 62.7171 219.947 63.2407 220.184 63.7041C220.399 64.1235 220.586 64.4867 221.133 64.9368C222.566 66.1121 224.176 65.9679 225.732 65.8276C227.071 65.7074 228.337 65.5939 229.318 66.3752C230.204 67.0831 230.708 68.4093 230.772 70.2123C230.9 73.7942 229.199 79.3474 225.157 83.0763C220.458 87.4129 213.785 88.6255 210.605 88.6255L210.606 88.6269ZM206.723 83.9257C207.264 84.5641 207.724 85.3227 208.132 85.9905C208.559 86.693 209.091 87.5664 209.396 87.6426C211.137 88.0806 219.266 87.31 224.559 82.4259C228.395 78.8867 230.011 73.6299 229.889 70.243C229.834 68.7271 229.436 67.5986 228.767 67.0644C228.064 66.5034 227.02 66.5969 225.812 66.7051C224.16 66.8533 222.286 67.0216 220.574 65.6166C219.883 65.0503 219.625 64.5482 219.398 64.1048C219.181 63.6814 218.976 63.2821 218.369 62.7839C216.216 61.021 213.129 61.3816 210.876 61.6433C208.6 61.9091 207.571 62.3498 206.478 62.816C205.503 63.2326 204.495 63.664 202.607 63.9472C199.885 64.3558 197.764 64.0901 196.215 63.8951C194.508 63.6814 193.668 63.6066 193.203 64.2276C192.382 65.3241 192.667 69.8263 193.9 71.3314C195.143 72.85 196.781 72.5815 198.513 72.2984C200.236 72.0166 202.018 71.7254 203.174 73.4309C203.873 74.4606 204.09 75.6039 204.368 77.0516C204.629 78.4112 204.953 80.1047 205.794 82.3017C205.913 82.6129 206.162 83.2579 206.723 83.9217V83.9257Z" fill="black"/>
<path d="M201.793 88.6167C201.94 88.0544 202.126 87.0661 202.35 86.437C201.079 86.8217 198.971 87.3706 198.253 86.8831C197.367 86.2808 198.015 84.5392 197.755 83.2958C197.645 82.7749 197.728 82.1005 197.251 81.5342C196.997 81.2351 196.7 81.024 196.411 80.8731C196.054 80.6888 195.897 80.2628 196.036 79.8861L196.156 79.6658C197.097 77.9322 197.69 76.0317 197.902 74.0711L198.318 70.1994C200.515 69.5636 201.272 69.7813 201.528 70.1446C201.622 70.2782 201.771 70.3743 201.705 70.9713C201.391 73.8481 204.009 73.8014 206.227 73.4808C208.446 73.1603 207.297 77.1028 207.297 77.1028C207.297 77.1028 208.809 75.4962 210.159 77.1483C211.126 78.3329 210.68 80.4925 209.323 81.2858L209.37 88.5673C209.385 90.7803 209.104 91.627 211.063 92.8651C212.398 93.7078 213.843 94.7909 213.843 94.7909C213.843 94.7909 205.331 99.4707 196.785 94.015C196.785 94.015 198.179 92.6874 199.706 91.85C201.414 90.9125 201.425 90.0324 201.793 88.618V88.6167Z" fill="white"/>
<path d="M205.763 97.0796C202.976 97.0796 199.755 96.4332 196.547 94.3858C196.433 94.3124 196.358 94.1909 196.346 94.056C196.332 93.9211 196.383 93.7875 196.481 93.6927C196.539 93.6366 197.935 92.3157 199.494 91.4596C200.825 90.7291 200.974 90.1147 201.243 88.9982C201.282 88.8406 201.321 88.675 201.366 88.5027C201.413 88.3251 201.464 88.1034 201.517 87.863C201.574 87.6106 201.636 87.3408 201.701 87.0804C199.191 87.7575 198.389 87.5077 198.005 87.2446C197.245 86.7278 197.299 85.7421 197.353 84.7885C197.381 84.2984 197.409 83.7909 197.323 83.3822C197.29 83.2206 197.273 83.055 197.255 82.8934C197.215 82.4994 197.177 82.1268 196.913 81.8156C196.726 81.5939 196.489 81.4083 196.207 81.2613C195.657 80.9755 195.404 80.3171 195.621 79.7295C195.627 79.7094 195.637 79.6894 195.647 79.6707L195.768 79.4503C196.686 77.7595 197.257 75.9325 197.462 74.0186L197.879 70.1469C197.898 69.9679 198.023 69.8197 198.196 69.7702C200.271 69.1692 201.41 69.2053 201.89 69.8851L201.914 69.9158C202.07 70.1161 202.217 70.3659 202.146 71.0136C202.063 71.7696 202.197 72.3024 202.552 72.6457C203.291 73.3589 204.968 73.2106 206.166 73.0383C206.911 72.9315 207.34 73.2226 207.57 73.4871C208.121 74.1215 208.087 75.27 207.957 76.1328C208.223 76.022 208.531 75.9458 208.863 75.9579C209.477 75.9792 210.029 76.2851 210.503 76.866C211.029 77.5111 211.233 78.422 211.062 79.3662C210.902 80.257 210.425 81.0437 209.768 81.5204L209.814 88.5615C209.815 88.8313 209.814 89.081 209.811 89.3134C209.793 90.9722 209.788 91.5318 211.301 92.488C212.634 93.3308 214.095 94.4219 214.11 94.4339C214.23 94.5234 214.297 94.669 214.286 94.8186C214.276 94.9681 214.19 95.103 214.058 95.1752C214.003 95.2059 210.509 97.0783 205.764 97.0783L205.763 97.0796ZM197.522 93.9464C204.246 97.921 210.919 95.6039 212.983 94.7064C212.442 94.3164 211.611 93.7314 210.827 93.2359C208.897 92.0166 208.908 90.9962 208.925 89.3054C208.928 89.077 208.931 88.8326 208.928 88.5682L208.881 81.2867C208.881 81.1291 208.964 80.9822 209.1 80.9021C209.651 80.5802 210.059 79.9472 210.192 79.2099C210.316 78.5195 210.179 77.869 209.816 77.4256C209.512 77.0517 209.18 76.8554 208.835 76.842C208.185 76.8139 207.623 77.3989 207.618 77.4043C207.478 77.5512 207.253 77.5832 207.077 77.4817C206.901 77.3802 206.815 77.1719 206.873 76.9756C207.138 76.0594 207.323 74.5515 206.901 74.0667C206.821 73.9746 206.67 73.8597 206.292 73.9131C204.793 74.1295 202.943 74.2537 201.938 73.2814C201.381 72.7432 201.155 71.9485 201.267 70.9175C201.305 70.5729 201.259 70.5155 201.217 70.4594C201.199 70.438 201.183 70.4153 201.167 70.3939C201.135 70.3485 200.8 69.9786 198.726 70.5395L198.341 74.1135C198.123 76.1408 197.518 78.0787 196.545 79.8724L196.443 80.0593C196.395 80.2236 196.466 80.3986 196.614 80.476C196.999 80.675 197.327 80.9341 197.589 81.244C198.029 81.7622 198.087 82.3391 198.135 82.8012C198.15 82.9468 198.165 83.083 198.189 83.1992C198.298 83.7228 198.266 84.2891 198.236 84.8366C198.194 85.5765 198.155 86.2764 198.503 86.5127C198.651 86.6143 199.36 86.8774 202.222 86.0092C202.381 85.9612 202.556 86.0066 202.671 86.1281C202.786 86.2496 202.823 86.4246 202.767 86.5822C202.624 86.9829 202.495 87.5531 202.38 88.058C202.324 88.3077 202.27 88.5388 202.222 88.7244C202.178 88.8914 202.139 89.0516 202.103 89.2039C201.819 90.3832 201.595 91.3141 199.92 92.2329C198.957 92.7605 198.039 93.499 197.522 93.9451V93.9464Z" fill="black"/>
<path d="M202.469 86.883C202.271 86.883 202.092 86.7495 202.04 86.5492C201.98 86.3128 202.123 86.0724 202.359 86.0123C204.36 85.5034 205.113 83.8433 205.144 83.7739C205.241 83.5508 205.502 83.4493 205.726 83.5468C205.949 83.6443 206.052 83.9034 205.955 84.1265C205.917 84.2133 205.01 86.2513 202.577 86.8697C202.541 86.879 202.504 86.883 202.467 86.883H202.469Z" fill="black"/>
<path d="M112.715 206.325C112.144 206.325 111.57 206.308 111.011 206.272C110.767 206.256 110.582 206.046 110.597 205.803C110.613 205.56 110.826 205.375 111.065 205.391C112.195 205.461 113.365 205.459 114.542 205.381C114.786 205.365 114.996 205.549 115.012 205.793C115.028 206.036 114.844 206.247 114.6 206.263C113.969 206.304 113.334 206.325 112.715 206.325ZM118.078 205.827C117.869 205.827 117.683 205.678 117.644 205.464C117.6 205.224 117.76 204.994 118.001 204.95C119.113 204.748 120.257 204.48 121.4 204.154C121.635 204.087 121.879 204.223 121.946 204.457C122.013 204.692 121.877 204.936 121.643 205.003C120.473 205.337 119.3 205.612 118.16 205.819C118.133 205.825 118.106 205.826 118.081 205.826L118.078 205.827ZM107.538 205.805C107.509 205.805 107.478 205.802 107.447 205.795C106.264 205.548 105.101 205.212 103.988 204.796C103.76 204.711 103.644 204.456 103.729 204.227C103.815 203.999 104.07 203.883 104.298 203.968C105.368 204.369 106.488 204.692 107.628 204.93C107.867 204.979 108.02 205.214 107.969 205.453C107.925 205.662 107.742 205.805 107.537 205.805H107.538ZM124.874 203.905C124.695 203.905 124.528 203.797 124.46 203.62C124.373 203.391 124.488 203.136 124.716 203.049C125.775 202.647 126.861 202.188 127.943 201.686C128.163 201.583 128.427 201.679 128.53 201.899C128.633 202.121 128.537 202.384 128.317 202.487C127.216 202.999 126.11 203.466 125.031 203.876C124.979 203.896 124.927 203.905 124.875 203.905H124.874ZM100.943 203.327C100.87 203.327 100.794 203.308 100.725 203.27C100.231 202.989 99.7505 202.691 99.259 202.363C98.7234 202.005 98.2226 201.592 97.7712 201.137C97.5989 200.963 97.6002 200.684 97.7738 200.512C97.9475 200.339 98.2266 200.341 98.3989 200.514C98.8089 200.928 99.2643 201.304 99.7518 201.628C100.226 201.946 100.688 202.232 101.163 202.502C101.376 202.622 101.449 202.892 101.329 203.104C101.248 203.247 101.098 203.328 100.944 203.328L100.943 203.327ZM84.8337 202.61C84.1565 202.61 83.4794 202.587 82.821 202.543C82.5779 202.527 82.3936 202.316 82.4096 202.073C82.4257 201.83 82.634 201.644 82.8811 201.662C84.0096 201.738 85.1862 201.747 86.3642 201.688C86.6086 201.678 86.8156 201.865 86.8276 202.108C86.8397 202.352 86.6514 202.559 86.4083 202.571C85.8834 202.597 85.3532 202.61 84.835 202.61H84.8337ZM89.9021 202.211C89.6884 202.211 89.5001 202.054 89.4654 201.837C89.428 201.595 89.5936 201.369 89.834 201.332C90.9785 201.154 92.1285 200.916 93.2543 200.627C93.4907 200.565 93.7311 200.708 93.7926 200.944C93.854 201.181 93.7111 201.423 93.4747 201.483C92.3208 201.781 91.1415 202.024 89.9689 202.205C89.9462 202.209 89.9235 202.211 89.9008 202.211H89.9021ZM79.3485 202.077C79.3192 202.077 79.2898 202.074 79.2604 202.068C78.1091 201.835 76.9432 201.523 75.7933 201.139C75.5622 201.062 75.4367 200.812 75.5142 200.58C75.5916 200.349 75.8414 200.223 76.0738 200.301C77.1889 200.673 78.3202 200.975 79.4354 201.201C79.6744 201.249 79.8293 201.483 79.7813 201.722C79.7385 201.931 79.5542 202.077 79.3485 202.077ZM131.287 200.935C131.131 200.935 130.978 200.851 130.898 200.704C130.782 200.489 130.861 200.221 131.076 200.104C132.076 199.561 133.098 198.968 134.113 198.341C134.32 198.213 134.592 198.277 134.721 198.486C134.849 198.694 134.785 198.965 134.576 199.093C133.548 199.728 132.513 200.329 131.498 200.88C131.431 200.916 131.359 200.934 131.287 200.934V200.935ZM96.7415 200.438C96.5625 200.438 96.3929 200.329 96.3274 200.15C96.242 199.921 96.3582 199.666 96.5879 199.581C97.7378 199.152 98.8076 198.678 99.7678 198.169C99.9842 198.054 100.251 198.137 100.365 198.353C100.48 198.57 100.397 198.837 100.181 198.95C99.1869 199.477 98.0824 199.967 96.8964 200.409C96.8456 200.428 96.7935 200.437 96.7428 200.437L96.7415 200.438ZM72.6507 199.851C72.588 199.851 72.5239 199.837 72.4638 199.809C71.382 199.303 70.3202 198.731 69.3092 198.108C69.1008 197.98 69.0367 197.707 69.1649 197.5C69.2932 197.292 69.5656 197.228 69.7726 197.356C70.7556 197.961 71.7866 198.518 72.8391 199.009C73.0608 199.112 73.1556 199.375 73.0527 199.597C72.9779 199.757 72.8177 199.852 72.6521 199.852L72.6507 199.851ZM96.1511 198.333C95.9748 198.333 95.8079 198.227 95.7398 198.052C95.4006 197.185 95.2296 196.322 95.2296 195.486C95.2296 195.087 95.271 194.697 95.3511 194.329C95.4032 194.09 95.6396 193.939 95.8774 193.992C96.1164 194.044 96.2673 194.28 96.2153 194.518C96.1485 194.824 96.1138 195.15 96.1138 195.486C96.1138 196.201 96.2687 196.975 96.5638 197.73C96.6533 197.957 96.5398 198.213 96.3128 198.303C96.2593 198.323 96.2059 198.333 96.1525 198.333H96.1511ZM102.902 197.035C102.782 197.035 102.662 196.986 102.575 196.891C102.411 196.711 102.424 196.43 102.606 196.266C103.343 195.596 103.749 194.964 103.749 194.484C103.749 194.451 103.748 194.419 103.744 194.387C103.714 194.149 103.653 193.915 103.561 193.692C103.467 193.467 103.574 193.209 103.8 193.115C104.026 193.022 104.283 193.129 104.377 193.355C104.5 193.651 104.581 193.962 104.62 194.28C104.628 194.348 104.632 194.416 104.632 194.484C104.632 195.236 104.15 196.056 103.199 196.92C103.115 196.998 103.008 197.035 102.902 197.035ZM66.6447 196.147C66.5486 196.147 66.4511 196.116 66.371 196.051C65.4254 195.302 64.5279 194.494 63.7025 193.651C63.5316 193.476 63.5342 193.197 63.7092 193.026C63.8842 192.855 64.1633 192.858 64.3342 193.033C65.1329 193.85 66.0037 194.633 66.9199 195.359C67.1109 195.511 67.1429 195.789 66.992 195.98C66.9052 196.09 66.7756 196.147 66.6447 196.147ZM97.886 192.185C97.7231 192.185 97.5668 192.094 97.4894 191.939C97.3812 191.72 97.4707 191.455 97.6897 191.347C98.4643 190.964 99.283 190.77 100.122 190.77C100.569 190.77 101.011 190.826 101.437 190.938C101.674 191 101.814 191.242 101.752 191.478C101.691 191.714 101.449 191.855 101.213 191.793C100.86 191.701 100.493 191.653 100.122 191.653C99.4206 191.653 98.7328 191.816 98.081 192.139C98.0183 192.17 97.9515 192.185 97.886 192.185ZM61.7206 191.1C61.5857 191.1 61.4521 191.039 61.3653 190.922C60.6454 189.954 59.9937 188.934 59.4314 187.891C59.3152 187.676 59.3954 187.407 59.6104 187.291C59.8254 187.175 60.0939 187.255 60.2087 187.47C60.7523 188.476 61.38 189.46 62.0745 190.394C62.2201 190.59 62.18 190.866 61.9837 191.012C61.9049 191.071 61.8114 191.099 61.7206 191.099V191.1ZM58.3843 184.895C58.2027 184.895 58.0318 184.782 57.9677 184.6C57.571 183.478 57.2598 182.307 57.0421 181.118C56.998 180.878 57.157 180.648 57.3974 180.604C57.6364 180.56 57.8675 180.719 57.9116 180.959C58.1199 182.101 58.4191 183.227 58.801 184.305C58.8825 184.535 58.7623 184.787 58.5313 184.868C58.4818 184.886 58.4324 184.894 58.3843 184.894V184.895ZM57.0955 177.969C56.8591 177.969 56.6642 177.783 56.6548 177.544C56.6388 177.136 56.6294 176.714 56.6294 176.286C56.6294 175.548 56.6535 174.788 56.7042 173.965C56.7189 173.722 56.9313 173.538 57.1717 173.551C57.4147 173.566 57.6004 173.775 57.5857 174.018C57.5363 174.824 57.5136 175.566 57.5136 176.286C57.5136 176.7 57.5216 177.112 57.5376 177.508C57.547 177.753 57.3573 177.958 57.1142 177.968C57.1076 177.968 57.1022 177.968 57.0955 177.968V177.969ZM57.4682 170.913C57.4508 170.913 57.4348 170.913 57.4174 170.911C57.1743 170.882 57.0007 170.663 57.0288 170.422C57.0969 169.83 57.1677 169.24 57.2384 168.652C57.3092 168.07 57.3787 167.489 57.4455 166.911C57.4735 166.667 57.6925 166.493 57.9343 166.522C58.1773 166.55 58.351 166.769 58.3229 167.011C58.2561 167.592 58.1867 168.174 58.1159 168.759C58.0451 169.345 57.9743 169.933 57.9062 170.523C57.8808 170.749 57.6899 170.915 57.4682 170.915V170.913ZM58.2014 163.88C58.1934 163.88 58.1853 163.88 58.176 163.88C57.9316 163.867 57.746 163.658 57.7593 163.414C57.7954 162.761 57.8127 162.157 57.8127 161.568C57.8127 160.979 57.7954 160.456 57.762 159.934C57.746 159.691 57.9316 159.48 58.1747 159.465C58.4191 159.449 58.6288 159.634 58.6448 159.878C58.6795 160.42 58.6969 160.989 58.6969 161.57C58.6969 162.151 58.6782 162.794 58.6408 163.465C58.6274 163.7 58.4324 163.883 58.2 163.883L58.2014 163.88ZM57.6832 156.855C57.4842 156.855 57.3039 156.72 57.2545 156.517C56.982 155.399 56.5974 154.307 56.1112 153.272C56.0071 153.052 56.1019 152.787 56.3236 152.684C56.5453 152.58 56.8084 152.675 56.9112 152.897C57.4228 153.985 57.8274 155.132 58.1146 156.309C58.172 156.547 58.0264 156.786 57.79 156.843C57.7553 156.851 57.7192 156.855 57.6845 156.855H57.6832ZM54.7116 150.489C54.574 150.489 54.4391 150.424 54.3523 150.304L54.2842 150.211C53.9677 149.778 53.2304 148.768 52.1233 147.652C51.951 147.478 51.9523 147.199 52.1259 147.027C52.2996 146.855 52.5787 146.856 52.751 147.029C53.9049 148.193 54.6702 149.241 54.9974 149.689L55.0708 149.789C55.2137 149.986 55.1683 150.263 54.9707 150.406C54.8919 150.462 54.8024 150.489 54.7129 150.489H54.7116ZM49.7353 145.506C49.6485 145.506 49.5603 145.48 49.4829 145.427C48.5293 144.763 47.5183 144.198 46.4779 143.745C46.2535 143.648 46.1507 143.387 46.2482 143.164C46.3457 142.94 46.6061 142.837 46.8291 142.935C47.923 143.41 48.9847 144.004 49.9864 144.702C50.1867 144.841 50.2361 145.117 50.0972 145.317C50.0118 145.44 49.8742 145.507 49.734 145.507L49.7353 145.506ZM32.8379 143.528C32.6536 143.528 32.4826 143.411 32.4198 143.228C32.341 142.997 32.4639 142.746 32.695 142.668C33.8502 142.272 35.0228 141.97 36.1848 141.769C36.4238 141.727 36.6535 141.888 36.6963 142.128C36.7377 142.368 36.5774 142.597 36.3357 142.64C35.2205 142.833 34.092 143.124 32.9808 143.504C32.934 143.52 32.8846 143.528 32.8379 143.528ZM43.2913 142.714C43.2619 142.714 43.2311 142.712 43.2004 142.705C42.0919 142.475 40.9393 142.355 39.7761 142.347C39.5317 142.346 39.3353 142.147 39.3367 141.902C39.338 141.659 39.5357 141.463 39.7787 141.463H39.7814C41.0034 141.471 42.2135 141.596 43.3794 141.838C43.6185 141.888 43.772 142.121 43.7226 142.36C43.6799 142.569 43.4956 142.713 43.2899 142.713L43.2913 142.714Z" fill="black"/>
</svg>
