<svg width="18" height="18" viewBox="0 0 18 18" fill="none" xmlns="http://www.w3.org/2000/svg">
<g clip-path="url(#clip0_509_22892)">
<path d="M9 16.5C4.85786 16.5 1.5 13.1421 1.5 9C1.5 4.85786 4.85786 1.5 9 1.5C11.4535 1.5 13.6318 2.67808 15.0002 4.49942L12.9682 4.49948C11.9105 3.56624 10.5214 3 9 3C5.68629 3 3 5.68629 3 9C3 12.3137 5.68629 15 9 15C10.5218 15 11.9112 14.4334 12.9689 13.4998H15.0007C13.6324 15.3216 11.4538 16.5 9 16.5ZM14.25 12V9.75H8.25V8.25H14.25V6L18 9L14.25 12Z" fill="#53605F"/>
</g>
<defs>
<clipPath id="clip0_509_22892">
<rect width="18" height="18" fill="white"/>
</clipPath>
</defs>
</svg>
