<svg width="880" height="136" viewBox="0 0 880 536" fill="none" xmlns="http://www.w3.org/2000/svg">
<path d="M367.948 93.2593L366.805 91.8958C367.118 91.628 398.808 65.1927 444.625 51.7866C486.951 39.3846 550.327 35.8894 611.869 89.5281L610.705 90.874C549.786 37.7815 487.074 41.2343 445.185 53.4777C399.719 66.7712 368.261 92.9951 367.948 93.2593Z" fill="#DADADA"/>
<path d="M856.807 435.833C850.195 365.261 822.894 311.696 752.149 272.408C731.284 260.823 705.164 255.144 692.655 234.811C680.237 214.608 684.848 188.807 682.389 165.208C676.059 104.66 618.32 57.8391 557.893 51.4337C497.467 45.0284 437.35 72.4431 391.452 112.334C357.008 142.282 326.84 180.478 283.446 194.497C211.889 217.61 134.026 166.047 60.5909 182.215C21.0757 190.918 -12.0776 218.635 -36.2875 251.11C-76.798 305.456 -86.8913 374.171 -74.505 440.853C-67.7281 477.33 -51.1497 514.296 -27.3794 542.677L824.083 540.894C848.975 515.97 859.642 466.091 856.807 435.833Z" fill="#F6F5F5"/>
<path d="M246.75 163.834C283.085 163.834 312.54 134.325 312.54 97.924C312.54 61.5227 283.085 32.0137 246.75 32.0137C210.416 32.0137 180.961 61.5227 180.961 97.924C180.961 134.325 210.416 163.834 246.75 163.834Z" fill="#F6F5F5"/>
<path d="M375.692 58.4463C386.34 47.7787 386.34 30.483 375.692 19.8154C365.044 9.14781 347.78 9.14782 337.132 19.8154C326.484 30.483 326.484 47.7787 337.132 58.4463C347.78 69.1139 365.044 69.1139 375.692 58.4463Z" fill="#F6F5F5"/>
<path d="M792.977 249.063C803.625 238.396 803.625 221.1 792.977 210.433C782.329 199.765 765.065 199.765 754.417 210.433C743.769 221.1 743.769 238.396 754.417 249.063C765.065 259.731 782.329 259.731 792.977 249.063Z" fill="#F6F5F5"/>
<path d="M852.72 541.923L851.151 541.088C883.133 480.692 886.52 415.768 860.443 362.964C833.011 307.451 777.062 270.101 702.867 257.794L703.159 256.032C777.934 268.431 834.355 306.126 862.036 362.168C888.373 415.497 884.976 481.012 852.72 541.923Z" fill="#DADADA"/>
<path d="M-22.4067 544.484C-60.9302 502.909 -86.3534 452.878 -95.9086 399.722C-104.817 350.241 -99.0738 301.144 -79.6995 261.475C-49.7994 200.191 8.08784 168.611 79.1034 174.823L78.9486 176.585C8.69273 170.451 -48.5579 201.671 -78.0994 262.257C-97.2943 301.588 -102.999 350.294 -94.1573 399.405C-84.6618 452.209 -59.3828 501.958 -21.0879 543.276L-22.4067 544.484Z" fill="#DADADA"/>
<path d="M229.565 413.541H0.769531V542.568H229.565V413.541Z" fill="#E28B6D"/>
<path opacity="0.5" d="M82.7471 413.541H0.769531V542.568H82.7471V413.541Z" fill="#B25834"/>
<path opacity="0.3" d="M126.133 413.541V444.973H147.473V413.541H126.133Z" fill="white"/>
<path d="M562.308 272.972H184.371V542.567H562.308V272.972Z" fill="#043B60"/>
<path d="M599.11 177.66H529.192V113.726C529.163 107.532 531.592 101.58 535.944 97.1797C540.296 92.7795 546.214 90.2914 552.398 90.2629C558.581 90.2344 564.522 92.6678 568.914 97.0278C573.306 101.388 575.789 107.317 575.818 113.511V113.726L575.8 154.308C575.8 154.505 575.8 154.716 575.818 154.914V156.143L575.888 156.108C576.336 161.971 578.977 167.448 583.282 171.444C587.588 175.44 593.241 177.66 599.11 177.66Z" fill="#80CCFF"/>
<path d="M622.408 140.193V154.322C622.412 160.359 620.081 166.163 615.903 170.514C611.726 174.865 606.028 177.425 600.006 177.656C593.985 177.887 588.108 175.771 583.611 171.752C579.114 167.733 576.347 162.124 575.891 156.105L622.408 140.193Z" fill="#C3E6FD"/>
<path d="M552.505 90.3662C552.005 90.3662 551.527 90.3838 551.045 90.4191C550.725 90.4191 550.423 90.4543 550.124 90.4895C549.825 90.5248 549.463 90.5635 549.125 90.6164C548.932 90.6164 548.735 90.6692 548.541 90.7044C548.292 90.7397 548.042 90.7925 547.81 90.8489C547.458 90.9194 547.106 90.9898 546.755 91.0779C546.255 91.2048 545.759 91.3457 545.26 91.5254C545.01 91.5958 544.764 91.6839 544.532 91.772C544.3 91.8601 544.05 91.9517 543.829 92.0398C543.495 92.1649 543.169 92.3084 542.851 92.4696C542.559 92.59 542.274 92.7264 541.996 92.8783C541.926 92.9135 541.835 92.9488 541.747 93.0016C541.497 93.1285 541.247 93.2694 541.001 93.4139C540.021 93.9609 539.088 94.5865 538.209 95.2847C537.959 95.4785 537.692 95.6934 537.46 95.8872C537.228 96.081 536.929 96.3523 536.661 96.5919C536.394 96.8315 536.144 97.0887 535.898 97.3388C535.198 98.0505 534.544 98.806 533.939 99.6008C533.672 99.9531 533.426 100.305 533.176 100.658C532.393 101.852 531.708 103.108 531.129 104.414C530.989 104.734 530.866 105.076 530.721 105.414C530.344 106.438 530.029 107.484 529.779 108.546C529.709 108.923 529.638 109.279 529.564 109.635C529.441 110.364 529.336 111.115 529.283 111.862V439.472H217.617V126.779C217.617 121.998 218.557 117.262 220.383 112.844C222.209 108.426 224.887 104.412 228.262 101.03C231.637 97.649 235.644 94.9668 240.054 93.1371C244.464 91.3073 249.19 90.3657 253.964 90.3662H552.505Z" fill="#C3E6FD"/>
<path d="M490.958 123.75H254.457V136.219H490.958V123.75Z" fill="#80CCFF"/>
<path d="M472.631 160.269H254.457V172.738H472.631V160.269Z" fill="#80CCFF"/>
<path d="M461.131 196.791H254.457V209.26H461.131V196.791Z" fill="#80CCFF"/>
<path d="M490.958 233.311H254.457V245.78H490.958V233.311Z" fill="#80CCFF"/>
<path d="M474.069 270.276H345.852V282.745H474.069V270.276Z" fill="#80CCFF"/>
<path d="M371.657 340.298C370.25 340.298 368.939 339.816 368.045 338.583C366.948 337.061 367.025 334.978 367.075 333.601L368.284 301.373L370.043 301.44L368.837 333.664C368.78 335.165 368.787 336.592 369.466 337.54C370.978 339.629 374.615 337.822 375.329 337.438C378.909 335.514 381.48 331.892 383.966 328.39C386.73 324.514 389.593 320.473 393.912 318.581C396.479 317.457 398.364 319.106 399.89 320.424C400.752 321.17 401.564 321.875 402.426 322.132C404.687 322.798 406.938 322.213 409.319 321.59C411.429 321.04 413.606 320.462 415.846 320.811C417.893 321.125 419.546 321.942 421.15 322.731C423.509 323.901 425.556 324.912 428.507 324.193C432.579 323.21 436.363 320.889 440.021 318.644C441.076 317.992 442.131 317.341 443.211 316.721C447.322 314.328 453.501 311.309 459.652 312.722L459.254 314.459C453.708 313.187 447.951 316.019 444.1 318.26C443.045 318.877 441.99 319.518 440.935 320.163C437.158 322.481 433.251 324.877 428.908 325.927C425.324 326.79 422.788 325.543 420.341 324.331C418.864 323.598 417.337 322.844 415.561 322.569C413.68 322.284 411.774 322.781 409.751 323.309C407.237 323.968 404.649 324.648 401.902 323.838C400.674 323.485 399.676 322.604 398.709 321.766C397.123 320.388 396.078 319.578 394.615 320.209C390.746 321.903 388.151 325.553 385.408 329.422C382.802 333.086 380.108 336.881 376.162 339.002C374.785 339.787 373.24 340.231 371.657 340.298Z" fill="#102048"/>
<path opacity="0.3" d="M529.283 284.254V439.473H217.617V270.742L314.974 351.901C320.344 356.39 327.385 358.099 334.316 357.119C336.348 356.832 338.399 356.714 340.45 356.767L406.813 358.638C409.098 358.71 411.373 358.99 413.607 359.476C420.486 360.974 427.675 359.6 433.361 355.396L529.283 284.254Z" fill="#86A7FF"/>
<path d="M326.481 384.734L323.885 387.62L206.595 517.919L184.383 542.575V272.965L326.481 384.734Z" fill="#064F80"/>
<path d="M562.312 272.972L420.211 384.734L562.312 542.567V272.972Z" fill="#064F80"/>
<path d="M323.875 387.623L206.592 517.918L184.383 522.819V474.902C243.009 432.806 308.784 384.001 323.811 382.944L323.875 387.623Z" fill="#043B60"/>
<path d="M422.812 387.623L540.103 517.918L562.315 522.819V474.902C503.686 432.806 437.91 384.001 422.886 382.944L422.812 387.623Z" fill="#043B60"/>
<path d="M562.315 542.567H184.371L184.441 507.102L314.674 388.74C321.511 382.527 330.412 379.087 339.643 379.09H406.034C415.123 379.091 423.896 382.429 430.694 388.472L562.667 505.869L562.315 542.567Z" fill="#064F80"/>
<path opacity="0.4" d="M583.091 523.52C608.437 498.127 608.437 456.957 583.091 431.564C557.745 406.171 516.65 406.171 491.304 431.564C465.957 456.957 465.957 498.127 491.304 523.52C516.65 548.913 557.744 548.913 583.091 523.52Z" fill="#5B4DAD"/>
<path d="M602.649 523.522C627.996 498.129 627.996 456.959 602.649 431.566C577.303 406.173 536.209 406.173 510.862 431.566C485.516 456.959 485.516 498.129 510.862 523.522C536.209 548.915 577.303 548.915 602.649 523.522Z" fill="#EA4B22"/>
<path d="M555.366 512.779C553.831 512.779 552.312 512.456 550.909 511.83C549.506 511.205 548.25 510.292 547.221 509.15L524.26 483.75C523.79 483.23 523.426 482.622 523.19 481.961C522.954 481.3 522.851 480.599 522.885 479.898C522.92 479.197 523.092 478.509 523.392 477.875C523.692 477.24 524.113 476.671 524.633 476.2C525.152 475.729 525.759 475.364 526.419 475.128C527.079 474.892 527.778 474.788 528.478 474.823C529.178 474.857 529.864 475.03 530.497 475.33C531.131 475.631 531.699 476.053 532.169 476.573L555.131 501.976C555.168 502.021 555.216 502.054 555.271 502.073C555.325 502.091 555.384 502.095 555.44 502.082C555.498 502.077 555.553 502.055 555.598 502.02C555.644 501.984 555.678 501.936 555.697 501.881L580.413 445.508C580.695 444.866 581.1 444.285 581.606 443.799C582.112 443.313 582.708 442.932 583.361 442.677C584.014 442.422 584.71 442.299 585.411 442.314C586.111 442.329 586.802 442.481 587.443 442.764C588.085 443.046 588.665 443.452 589.15 443.959C589.634 444.465 590.015 445.063 590.269 445.717C590.524 446.371 590.647 447.069 590.632 447.77C590.617 448.472 590.465 449.164 590.183 449.807L565.467 506.18C564.601 508.141 563.186 509.808 561.393 510.979C559.6 512.151 557.507 512.776 555.366 512.779Z" fill="white"/>
<path d="M106.277 377.611L108.352 413.534H163.475L138.58 393.05L137.099 377.611L127.319 368.108L106.277 377.611Z" fill="#102048"/>
<path d="M40.1875 361.576L31.2969 393.642L76.643 413.534L63.3036 383.252L66.5638 369.592L55.3028 354.748L40.1875 361.576Z" fill="#102048"/>
<path d="M57.6707 202.433C57.6707 202.433 52.3356 224.71 54.1327 273.684C54.1327 273.684 38.4265 328.612 40.2025 361.569L66.5788 369.588C80.4 338.827 91.7629 309.231 97.8084 282.168C100.819 272.598 100.762 262.323 97.6431 252.788L84.9367 214.014L57.6707 202.433Z" fill="#1F3C88"/>
<path d="M141.277 274.712L137.099 377.621H106.281C98.2445 344.111 95.2587 315.502 94.2072 296.331C93.335 280.174 93.8344 270.735 93.8344 270.735C74.024 247.308 62.2532 230.382 55.4059 217.861C45.2352 199.279 45.8577 190.337 46.9971 184.037C48.5269 175.644 53.9675 164.778 57.6496 158.098C59.7105 154.392 61.2227 151.968 61.2227 151.968L112.79 168.608L106.639 190.886L106.534 191.238C106.078 192.9 105.955 194.634 106.172 196.343C106.389 198.052 106.941 199.701 107.796 201.195L134.844 248.386C139.421 256.38 141.65 265.505 141.277 274.712Z" fill="#3A6BEA"/>
<path d="M125.246 378.28H125.204C125.028 378.269 124.864 378.189 124.747 378.056C124.63 377.924 124.571 377.751 124.581 377.575C124.644 376.543 131.003 274.23 123.456 257.945C122.13 255.088 119.883 251.434 117.277 247.209C106.374 229.519 88.1537 199.916 91.9801 157.249C92.0039 157.079 92.0921 156.925 92.2264 156.818C92.3607 156.711 92.5309 156.66 92.7016 156.676C92.8724 156.691 93.0307 156.771 93.1438 156.901C93.2569 157.03 93.3163 157.197 93.3094 157.369C89.5218 199.592 107.609 228.959 118.413 246.508C121.04 250.768 123.305 254.453 124.666 257.385C132.353 273.972 126.178 373.435 125.911 377.66C125.899 377.828 125.824 377.986 125.7 378.101C125.577 378.216 125.415 378.28 125.246 378.28Z" fill="#1F3C88"/>
<path opacity="0.6" d="M112.789 168.591L106.638 190.886C82.9169 181.109 65.8427 166.223 57.6484 158.091C59.7093 154.385 61.2215 151.961 61.2215 151.961L112.789 168.591Z" fill="#1F3C88"/>
<path d="M121.508 394.491L120.984 385.567L137.978 385.257C138.066 385.25 138.156 385.262 138.239 385.293C138.323 385.323 138.399 385.371 138.463 385.432C138.527 385.494 138.578 385.569 138.611 385.652C138.644 385.734 138.66 385.823 138.656 385.912C138.658 386 138.643 386.087 138.611 386.169C138.579 386.25 138.531 386.325 138.471 386.388C138.41 386.451 138.337 386.502 138.257 386.537C138.176 386.572 138.09 386.59 138.002 386.592L122.398 386.877L122.75 393.096L138.54 392.391C138.631 392.382 138.722 392.391 138.809 392.419C138.896 392.446 138.976 392.491 139.045 392.55C139.114 392.61 139.17 392.683 139.21 392.765C139.249 392.847 139.272 392.936 139.276 393.027C139.28 393.118 139.265 393.209 139.233 393.294C139.201 393.38 139.152 393.457 139.089 393.523C139.025 393.588 138.949 393.64 138.865 393.675C138.781 393.71 138.691 393.728 138.6 393.727L121.508 394.491Z" fill="white"/>
<path d="M63.3032 383.921C63.2351 383.921 63.1675 383.91 63.1027 383.89L48.4727 379.211L52.1231 370.681L65.0123 375.349C65.0987 375.376 65.1786 375.42 65.2475 375.478C65.3163 375.537 65.3726 375.609 65.4128 375.69C65.4531 375.771 65.4765 375.86 65.4817 375.95C65.4869 376.04 65.4738 376.131 65.4431 376.216C65.4124 376.301 65.3647 376.379 65.3031 376.445C65.2414 376.511 65.167 376.564 65.0843 376.601C65.0017 376.637 64.9124 376.657 64.8221 376.658C64.7317 376.659 64.6421 376.642 64.5587 376.607L52.8511 372.379L50.2662 378.386L63.4966 382.614C63.6505 382.66 63.7825 382.761 63.8681 382.897C63.9538 383.033 63.9872 383.196 63.9623 383.355C63.9375 383.514 63.8559 383.659 63.7328 383.762C63.6096 383.866 63.4533 383.921 63.2926 383.918L63.3032 383.921Z" fill="white"/>
<path d="M131.02 70.0018L130.056 73.6026L126.216 88.1573L123.62 97.9204L100.504 89.5984L111.652 66.7427L117.096 58.8682L131.02 70.0018Z" fill="#F9B384"/>
<path d="M130.06 73.6024L126.23 88.1572C119.422 80.7583 120.807 71.499 120.807 71.499L130.06 73.6024Z" fill="#102048"/>
<path d="M148.362 49.5241C148.362 49.5241 146.881 82.4811 130.285 79.6589C113.689 76.8367 113.985 48.4847 113.985 48.4847L135.62 41.498L148.362 49.5241Z" fill="#F9B384"/>
<path d="M125.321 54.4956C125.321 54.4956 134.841 44.662 148.363 49.5242C148.363 49.5242 154.342 52.0469 156.663 47.1495C156.663 47.1495 137.545 21.7606 122.55 34.0111C122.55 34.0111 95.6564 39.9091 111.647 66.7426L125.321 54.4956Z" fill="#102048"/>
<path d="M126.53 61.0286C129.315 60.5836 131.16 57.6309 130.652 54.4333C130.143 51.2358 127.472 49.0044 124.687 49.4493C121.902 49.8942 120.057 52.847 120.566 56.0445C121.075 59.242 123.745 61.4735 126.53 61.0286Z" fill="#F9B384"/>
<path d="M148.901 66.6144C149.162 64.995 148.064 63.47 146.448 63.208C144.831 62.946 143.309 64.0463 143.048 65.6656C142.786 67.285 143.885 68.81 145.501 69.072C147.117 69.334 148.639 68.2337 148.901 66.6144Z" fill="#F9B384"/>
<path opacity="0.4" d="M134.504 68.2301C137.328 68.2301 139.618 65.9365 139.618 63.1073C139.618 60.278 137.328 57.9844 134.504 57.9844C131.68 57.9844 129.391 60.278 129.391 63.1073C129.391 65.9365 131.68 68.2301 134.504 68.2301Z" fill="#EB5D60"/>
<path d="M230.457 116.411C230.457 116.411 233.516 120.617 227.292 124.821C227.292 124.821 232.254 128.224 215.148 133.833C213.245 134.457 211.076 135.098 208.586 135.775L201.703 110.801C201.703 110.801 232.236 100.468 233.003 103.78C233.77 107.091 227.545 111.566 227.545 111.566C227.545 111.566 238.479 108.874 230.457 116.411Z" fill="#F9B384"/>
<path d="M201.701 110.795L165.548 115.439C165.548 115.439 113.534 78.3244 102.868 81.8864C92.2011 85.4485 56.1887 143.347 56.1887 143.347C56.1887 143.347 46.3943 146.465 46.8515 150.474C47.3086 154.484 110.425 187.289 118.869 178.978C124.183 173.749 130.281 132.065 130.281 132.065L153.285 141.652C160.106 144.493 167.641 145.136 174.843 143.491L208.573 135.782L201.701 110.795Z" fill="#FBC343"/>
<g opacity="0.8">
<path d="M199.417 133.103C198.172 128.241 196.955 123.495 195.858 118.933C195.552 117.661 195.27 116.364 194.989 115.057C194.75 113.954 194.504 112.848 194.243 111.745L192.914 111.918C193.181 113.056 193.438 114.201 193.684 115.339C193.969 116.653 194.254 117.964 194.563 119.243C195.668 123.823 196.881 128.562 198.123 133.431C198.502 134.918 198.882 136.408 199.262 137.902L200.563 137.606C200.179 136.108 199.797 134.607 199.417 133.103Z" fill="white"/>
<path d="M137.524 96.909L135.878 97.2613C125.858 99.3506 115.128 101.042 104.659 99.266C99.5746 98.4325 94.6969 96.6314 90.289 93.96C90.0076 94.3123 89.7263 94.6646 89.4414 95.017C94.0303 97.8237 99.1176 99.7151 104.423 100.587C115.121 102.398 125.988 100.689 136.134 98.572C137.14 98.3606 138.146 98.1386 139.152 97.9202L137.524 96.909Z" fill="white"/>
<path d="M123.674 161.078C120.663 161.329 117.551 161.589 114.53 161.304C105.65 160.476 97.7723 154.941 92.6201 150.85C90.7914 149.399 89.0048 147.894 87.2147 146.386C82.6639 142.553 77.9584 138.593 72.662 135.637C69.7694 134.012 66.673 132.782 63.455 131.979C63.1912 132.385 62.945 132.762 62.6953 133.153C65.9581 133.925 69.0956 135.155 72.0149 136.806C77.1988 139.696 81.8621 143.617 86.3566 147.408C88.1537 148.923 89.9544 150.438 91.7901 151.897C97.0654 156.093 105.154 161.762 114.407 162.636C117.547 162.928 120.737 162.664 123.786 162.41L124.701 162.347C124.803 161.896 124.905 161.445 125.01 160.987C124.56 161.022 124.117 161.043 123.674 161.078Z" fill="white"/>
</g>
<path d="M130.283 132.064L120.918 127.949C120.918 127.949 123.309 142.856 127.825 144.984L130.283 132.064Z" fill="#E49B31"/>
<path d="M215.13 133.834C213.228 134.457 211.058 135.098 208.568 135.775L201.703 110.802L215.13 133.834Z" fill="#E28B6D"/>
<path d="M626.547 284.529L648.33 294.327L664.564 240.794L643.301 235.195C637.681 247.781 631.949 263.886 626.547 284.529Z" fill="#E28B6D"/>
<path d="M643.301 235.195L664.564 240.794L682.711 190.854C682.711 190.854 660.787 187.884 643.301 235.195Z" fill="#102048"/>
<path d="M617.511 265.972L601.805 309.319L660.483 331.886L672.338 286.756L617.511 265.972Z" fill="#102048"/>
<path d="M636.816 323.739C636.391 324.965 632.878 326.431 630.623 324.443C626.231 323.665 623.266 323.108 620.526 320.075C618.065 319.127 616.96 316.446 618.086 314.184C620.242 309.853 623.583 303.751 625.169 303.991C627.163 304.294 625.721 310.459 625.721 310.459C625.721 310.459 629.041 302.638 632.195 303.67C633.602 304.135 630.219 311.58 629.878 312.366C630.409 311.661 634.625 305.971 636.24 307.165C637.854 308.36 633.922 315.093 633.503 315.804C633.961 315.234 637.664 310.762 639.482 312.242C640.249 312.876 639.021 317.418 636.816 323.739Z" fill="#E28B6D"/>
<path d="M747.023 472.919C747.023 472.919 775.475 469.801 787.467 443.524L755.907 445.307L747.023 472.919Z" fill="#102048"/>
<path d="M778.438 443.82L751.172 460.746L763.439 478.796L789.73 460.848L778.438 443.82Z" fill="#E28B6D"/>
<path d="M806.593 486.28L789.729 460.849L763.438 478.796L767.914 485.388L765.249 520.572L806.593 486.28Z" fill="#102048"/>
<path d="M781.206 483.856L767.855 484.536L767.946 486.313L781.296 485.633L781.206 483.856Z" fill="white"/>
<path d="M700.787 491.921L670.855 490.138V514.42L703.056 512.37L700.787 491.921Z" fill="#E28B6D"/>
<path d="M670.857 514.42V520.127L648.332 542.691H706.42L703.058 512.369L670.857 514.42Z" fill="#102048"/>
<path d="M670.608 519.767L669.715 521.309L682.47 528.728L683.364 527.186L670.608 519.767Z" fill="white"/>
<path d="M699.278 336.906C698.817 347.948 698.729 359.599 698.926 371.339C699.105 381.528 699.478 391.774 700.013 401.822C702.573 451.649 708.495 495.775 708.495 495.775L662.26 501.725C640.336 348.518 654.561 283.781 654.561 283.781L674.706 279.673L692.592 276.019L712.638 271.922C712.389 272.299 712.139 272.69 711.907 273.099C708.851 278.105 706.431 284.768 704.564 292.678C701.645 304.981 700.009 320.265 699.278 336.906Z" fill="#3A6BEA"/>
<path d="M700.007 401.823C680.622 360.544 687.895 327.731 687.895 327.731L699.276 336.892C698.815 347.934 698.727 359.586 698.924 371.325C699.1 381.529 699.473 391.792 700.007 401.823Z" fill="#1F3C88"/>
<path d="M787.475 443.525C765.249 451.981 747.031 472.919 747.031 472.919C727.847 438.948 711.469 404.832 698.931 371.339C688.493 343.477 680.725 316.045 676.223 289.5C675.675 286.202 675.168 282.926 674.715 279.667C674.658 279.364 674.605 279.043 674.57 278.74L692.601 276.013L711.944 273.092L721.707 271.612C722.762 277.849 724.168 284.37 725.849 291.086C742.649 358.141 787.475 443.525 787.475 443.525Z" fill="#3A6BEA"/>
<g opacity="0.8">
<path d="M748.362 358.112C748.078 357.408 747.796 356.703 747.515 355.998C743.875 353.662 740.386 351.094 737.386 348.011C729.002 339.397 724.764 326.639 726.326 314.712C726.819 311.023 727.834 307.422 729.34 304.019C729.15 303.367 728.967 302.723 728.78 302.074C726.865 306 725.589 310.207 725 314.536C723.393 326.868 727.771 340.045 736.43 348.945C739.96 352.563 744.093 355.473 748.362 358.112Z" fill="white"/>
<path d="M771.63 411.314C771.444 410.919 771.257 410.525 771.071 410.123C766.147 412.131 760.288 412.477 754.19 412.825C748.032 413.178 741.667 413.53 736.085 415.718C730.413 417.934 726.013 421.887 722.816 426.735C723.045 427.204 723.277 427.676 723.52 428.145C726.604 423.212 730.926 419.171 736.581 416.958C741.969 414.844 748.229 414.492 754.278 414.14C760.327 413.787 766.425 413.453 771.63 411.314Z" fill="white"/>
<path d="M665.115 406.241C679.903 413.763 691.882 426.373 702.474 438.201C702.413 437.47 702.354 436.737 702.295 436.002C691.913 424.471 680.17 412.396 665.72 405.05C661.244 402.763 656.509 401.026 651.617 399.878C651.645 400.343 651.673 400.808 651.705 401.287C656.353 402.408 660.854 404.07 665.115 406.241Z" fill="white"/>
<path d="M706.015 474.963C702.316 475.847 698.278 475.625 694.927 474.84C691.449 474.026 688.037 472.673 684.728 471.373C681.211 469.981 677.582 468.554 673.826 467.719C668.54 466.599 663.071 466.687 657.824 467.976C657.877 468.42 657.933 468.871 657.989 469.315C663.084 468.037 668.402 467.937 673.541 469.023C677.209 469.826 680.789 471.242 684.25 472.613C687.594 473.934 691.048 475.305 694.621 476.136C698.088 476.947 702.281 477.193 706.16 476.288C706.114 475.865 706.065 475.41 706.015 474.963Z" fill="white"/>
<path d="M661.105 349.544C661.591 358.873 657.367 368.052 650.418 374.119C650.435 374.682 650.456 375.264 650.477 375.834C658.214 369.521 662.962 359.574 662.435 349.473C661.967 340.492 657.349 332.079 650.477 326.477C650.452 327.031 650.43 327.591 650.414 328.157C656.572 333.513 660.673 341.278 661.105 349.544Z" fill="white"/>
</g>
<path opacity="0.4" d="M725.827 291.085C718.812 292.299 711.696 292.83 704.579 292.671C695.049 292.452 685.558 291.391 676.215 289.5C663.309 286.953 654.559 283.782 654.559 283.782L674.707 279.673C674.65 279.37 674.598 279.05 674.562 278.747L692.593 276.02L712.639 271.922C712.389 272.299 712.14 272.69 711.908 273.099L721.67 271.619C722.736 277.848 724.139 284.37 725.827 291.085Z" fill="#1F3C88"/>
<path d="M698.92 372.23C698.736 372.23 698.557 372.174 698.407 372.068C698.257 371.962 698.144 371.812 698.083 371.638L685.239 335.454L669.8 326.117C669.598 325.995 669.453 325.797 669.397 325.567C669.34 325.338 669.377 325.095 669.5 324.893C669.622 324.691 669.819 324.545 670.048 324.489C670.278 324.432 670.52 324.469 670.722 324.592L686.702 334.256L699.757 371.043C699.806 371.177 699.821 371.321 699.802 371.463C699.784 371.604 699.731 371.739 699.648 371.856C699.566 371.973 699.457 372.068 699.33 372.133C699.203 372.198 699.062 372.231 698.92 372.23Z" fill="#1F3C88"/>
<path d="M729.24 278.525C699.456 289.873 648.332 283.496 648.332 283.496C650.414 261.814 650.555 197.682 683.898 189.667L698.799 191.235C706.606 194.297 712.704 205.983 717.29 219.862C720.047 228.127 722.252 237.179 723.997 245.656C727.658 263.381 729.24 278.525 729.24 278.525Z" fill="#1F3C88"/>
<path d="M723.998 245.656C709.966 237.482 707.016 219.059 707.016 219.059L717.292 219.862C720.049 228.128 722.254 237.179 723.998 245.656Z" fill="#102048"/>
<path d="M698.79 191.238L696.789 219.964L727.386 236.34L733.589 206.561C706.682 190.639 698.79 191.238 698.79 191.238Z" fill="#1F3C88"/>
<path d="M757.087 230.699C755.02 233.844 752.145 236.373 748.766 238.021C745.815 239.457 742.567 240.172 739.287 240.107C736.007 240.043 732.79 239.199 729.898 237.647L727.391 236.312L733.587 206.554C735.24 207.551 736.967 208.584 738.796 209.708C738.796 209.708 763.016 175.415 764.796 176.092C766.396 176.68 763.674 181.986 763.122 183.04C764.177 181.49 772.033 169.944 774.129 170.747C775.8 171.371 773.686 176.501 773.426 177.124C773.904 176.42 778.121 170.211 780.664 171.709C781.838 172.414 777.302 179.136 776.859 179.812C777.411 179.28 782.44 174.397 783.685 175.859C784.93 177.321 780.076 183.163 779.524 183.822C780.024 183.378 784.325 179.619 785.696 181.437C787.493 183.769 765.482 217.885 757.087 230.699Z" fill="#E28B6D"/>
<path opacity="0.4" d="M754.612 233.793C752.93 235.54 750.949 236.972 748.764 238.021C745.553 239.583 741.994 240.29 738.431 240.071C738.274 239.424 738.196 238.761 738.199 238.095C738.199 236.152 738.842 234.265 740.026 232.727C741.21 231.189 742.87 230.088 744.745 229.595C746.621 229.102 748.606 229.246 750.391 230.004C752.176 230.761 753.661 232.09 754.612 233.782V233.793Z" fill="#EB5D60"/>
<path d="M680.381 277.461C667.235 277.461 655.46 276.619 649.682 276.125L648.979 276.066C648.811 276.051 648.654 275.974 648.54 275.848C648.427 275.723 648.365 275.559 648.367 275.39C648.369 275.22 648.436 275.058 648.552 274.936C648.669 274.814 648.828 274.74 648.997 274.73C649.042 274.73 649.313 274.751 649.788 274.794C662.955 275.925 707.464 278.874 727.623 269.449C727.781 269.386 727.958 269.386 728.116 269.449C728.275 269.512 728.403 269.633 728.475 269.788C728.547 269.944 728.557 270.12 728.503 270.282C728.45 270.445 728.336 270.58 728.185 270.661C716.657 276.051 697.367 277.461 680.381 277.461Z" fill="#86A7FF"/>
<path d="M687.359 209.912C680.287 209.912 677.161 205.233 677.115 205.162C677.019 205.014 676.986 204.833 677.023 204.66C677.059 204.487 677.164 204.335 677.312 204.239C677.46 204.143 677.641 204.11 677.813 204.147C677.986 204.184 678.137 204.288 678.233 204.436C678.465 204.789 684.047 213.005 698.103 205.402C698.18 205.36 698.265 205.334 698.352 205.325C698.438 205.316 698.526 205.324 698.61 205.349C698.694 205.374 698.772 205.416 698.84 205.471C698.908 205.526 698.964 205.594 699.005 205.671C699.047 205.748 699.073 205.833 699.082 205.92C699.091 206.007 699.083 206.095 699.058 206.179C699.033 206.263 698.992 206.341 698.936 206.409C698.881 206.477 698.813 206.533 698.736 206.575C694.172 209.052 690.398 209.912 687.359 209.912Z" fill="#86A7FF"/>
<path d="M710.764 135.384C714.496 133.27 719.535 133.09 722.848 135.813C724.575 137.223 725.683 139.27 727.287 140.827C730.723 144.171 736.079 145.013 739.356 148.497C741.899 151.189 742.806 155.118 742.553 158.813C742.3 162.509 741.002 166.05 739.624 169.489C737.658 174.401 735.403 179.39 731.461 182.93C729.963 184.28 728.204 185.397 726.235 185.862C724.266 186.327 722.075 186.024 720.474 184.805C718.786 183.501 717.953 181.324 717.805 179.196C717.657 177.068 718.111 174.947 718.561 172.854C719.101 173.187 719.724 173.361 720.358 173.355C720.992 173.35 721.611 173.166 722.146 172.823C722.68 172.481 723.107 171.995 723.378 171.421C723.649 170.847 723.753 170.208 723.678 169.577C723.425 167.463 721.333 166.114 719.458 165.085L710.142 159.973C708.324 158.972 706.467 157.943 705.099 156.386C702.813 153.775 700.977 148.043 702.489 144.759C704.167 141.095 707.255 137.36 710.764 135.384Z" fill="#FBB81D"/>
<path d="M673.898 152.7C673.898 152.7 673.705 131.592 699.87 137.156C704.267 138.084 708.206 140.512 711.015 144.026C715.274 149.311 718.003 171.508 705.831 177.652C690.568 185.361 673.898 152.7 673.898 152.7Z" fill="#FBC343"/>
<path d="M701.005 170.515L700.4 191.714C700.323 194.31 699.274 196.783 697.463 198.641C695.651 200.499 693.209 201.607 690.62 201.745C690.441 201.745 690.268 201.745 690.085 201.745C688.658 201.742 687.246 201.443 685.94 200.867C684.634 200.29 683.461 199.449 682.495 198.395C681.53 197.342 680.793 196.099 680.33 194.746C679.868 193.393 679.691 191.959 679.809 190.534L679.844 190.182L681.23 174.077L682.988 173.756L701.005 170.515Z" fill="#E28B6D"/>
<path d="M692.04 178.086C689.557 183.455 685.228 187.748 679.844 190.181L681.229 174.076L682.988 173.756L692.04 178.086Z" fill="#102048"/>
<path d="M673.897 152.701C673.897 152.701 667.215 180.535 681.229 181.874C695.244 183.213 701.012 170.515 701.012 170.515L702.791 154.706L694.122 142.233L680.34 146.461L673.897 152.701Z" fill="#E28B6D"/>
<path d="M673.898 152.701C673.898 152.701 686.781 145.461 691.458 155.167C694.718 161.922 699.68 165.635 704.572 163.408C709.464 161.182 705.459 145.147 705.459 145.147L687.234 140.472L676.332 146.704L673.898 152.701Z" fill="#FBC343"/>
<path d="M705.198 166.521C706.879 163.604 706.291 160.11 703.883 158.718C701.476 157.326 698.162 158.562 696.481 161.479C694.8 164.396 695.389 167.889 697.796 169.282C700.203 170.674 703.517 169.438 705.198 166.521Z" fill="#E28B6D"/>
<path d="M699.476 166.435H699.444C699.386 166.431 699.329 166.415 699.277 166.389C699.224 166.363 699.178 166.327 699.14 166.283C699.101 166.238 699.072 166.187 699.054 166.131C699.035 166.076 699.028 166.017 699.032 165.959C699.145 164.377 700.144 161.379 703.105 161.379C703.167 161.373 703.229 161.381 703.288 161.401C703.346 161.42 703.4 161.452 703.446 161.494C703.492 161.536 703.528 161.587 703.553 161.644C703.578 161.701 703.591 161.762 703.591 161.824C703.591 161.887 703.578 161.948 703.553 162.005C703.528 162.062 703.492 162.113 703.446 162.155C703.4 162.196 703.346 162.228 703.288 162.248C703.229 162.268 703.167 162.276 703.105 162.27C700.232 162.27 699.94 165.86 699.919 166.012C699.912 166.126 699.863 166.233 699.781 166.311C699.698 166.39 699.589 166.434 699.476 166.435Z" fill="#102048"/>
<path d="M676.014 162.7C676.015 162.925 675.949 163.146 675.824 163.333C675.7 163.521 675.523 163.667 675.315 163.754C675.108 163.841 674.879 163.864 674.659 163.82C674.438 163.777 674.235 163.668 674.076 163.509C673.917 163.35 673.808 163.148 673.764 162.927C673.72 162.706 673.742 162.477 673.828 162.269C673.914 162.061 674.06 161.883 674.247 161.757C674.434 161.632 674.653 161.565 674.878 161.565C675.179 161.565 675.467 161.685 675.68 161.898C675.893 162.11 676.013 162.399 676.014 162.7Z" fill="#102048"/>
<path d="M683.564 163.869C684.259 163.869 684.823 163.305 684.823 162.608C684.823 161.911 684.259 161.347 683.564 161.347C682.868 161.347 682.305 161.911 682.305 162.608C682.305 163.305 682.868 163.869 683.564 163.869Z" fill="#102048"/>
<path d="M678.39 169.63C677.405 169.63 676.737 169.32 676.403 168.707C675.52 167.104 677.56 164.088 677.975 163.503C678.047 163.416 678.148 163.359 678.26 163.344C678.372 163.329 678.485 163.357 678.577 163.422C678.67 163.487 678.734 163.584 678.757 163.695C678.78 163.805 678.761 163.921 678.703 164.018C677.62 165.54 676.748 167.492 677.18 168.281C677.367 168.633 677.855 168.77 678.611 168.735H678.636C678.694 168.734 678.752 168.744 678.807 168.764C678.861 168.785 678.911 168.816 678.953 168.857C678.995 168.897 679.029 168.945 679.053 168.998C679.077 169.051 679.09 169.109 679.092 169.167C679.093 169.225 679.083 169.283 679.062 169.338C679.042 169.392 679.01 169.442 678.97 169.484C678.93 169.527 678.883 169.561 678.829 169.585C678.776 169.608 678.719 169.622 678.661 169.623C678.566 169.63 678.478 169.63 678.39 169.63Z" fill="#102048"/>
<path opacity="0.4" d="M691.389 171.382C693.417 170.54 694.38 168.211 693.54 166.18C692.7 164.148 690.375 163.184 688.347 164.025C686.32 164.867 685.357 167.196 686.197 169.227C687.036 171.259 689.361 172.223 691.389 171.382Z" fill="#EB5D60"/>
<path d="M678.943 173.485C678.214 173.494 677.493 173.339 676.832 173.03C676.728 172.976 676.649 172.882 676.614 172.769C676.579 172.656 676.59 172.534 676.644 172.43C676.699 172.325 676.793 172.246 676.905 172.211C677.018 172.176 677.139 172.186 677.244 172.241C677.346 172.294 679.741 173.474 682.227 171.184C682.27 171.144 682.32 171.113 682.375 171.092C682.43 171.072 682.489 171.062 682.547 171.065C682.606 171.067 682.663 171.081 682.716 171.106C682.77 171.13 682.817 171.166 682.857 171.209C682.896 171.252 682.927 171.303 682.947 171.358C682.967 171.414 682.975 171.472 682.972 171.531C682.969 171.589 682.955 171.647 682.93 171.7C682.904 171.753 682.869 171.8 682.825 171.839C681.79 172.867 680.4 173.457 678.943 173.485Z" fill="#102048"/>
<path d="M677.369 160.185C676.618 159.971 675.848 159.834 675.069 159.776C674.729 159.756 674.388 159.794 674.06 159.889C673.686 159.989 673.324 160.125 672.977 160.297L672.935 160.315C672.886 160.333 672.832 160.336 672.781 160.325C672.73 160.314 672.684 160.288 672.647 160.251C672.61 160.214 672.584 160.167 672.573 160.116C672.562 160.065 672.565 160.012 672.583 159.963C672.786 159.488 673.138 159.092 673.585 158.835C674.055 158.583 674.583 158.462 675.115 158.483C675.61 158.51 676.093 158.64 676.534 158.866C676.975 159.092 677.364 159.408 677.675 159.793C677.709 159.837 677.728 159.891 677.73 159.946C677.733 160.001 677.718 160.056 677.689 160.103C677.659 160.149 677.616 160.186 677.566 160.208C677.515 160.229 677.459 160.235 677.405 160.223L677.369 160.185Z" fill="#102048"/>
<path d="M680.667 159.8C680.989 159.254 681.436 158.792 681.971 158.452C682.506 158.112 683.113 157.904 683.744 157.845C684.409 157.797 685.073 157.945 685.654 158.271C686.198 158.579 686.651 159.025 686.969 159.564C687.005 159.614 687.022 159.675 687.019 159.736C687.015 159.797 686.991 159.855 686.95 159.901C686.909 159.946 686.853 159.976 686.793 159.985C686.732 159.994 686.67 159.983 686.617 159.952H686.589C686.136 159.715 685.666 159.514 685.183 159.349C684.751 159.195 684.291 159.137 683.836 159.18C682.928 159.18 682 159.659 681.054 160.163H681.022C680.961 160.195 680.89 160.201 680.824 160.18C680.758 160.16 680.703 160.115 680.67 160.054C680.649 160.015 680.637 159.972 680.637 159.928C680.636 159.883 680.646 159.84 680.667 159.8Z" fill="#102048"/>
</svg>
