<svg width="880" height="535" viewBox="0 0 880 535" fill="none" xmlns="http://www.w3.org/2000/svg">
<path d="M367.95 92.7593L366.807 91.3958C367.12 91.128 398.81 64.6927 444.627 51.2866C486.952 38.8846 550.329 35.3894 611.871 89.0281L610.707 90.374C549.788 37.2815 487.076 40.7343 445.186 52.9777C399.721 66.2712 368.263 92.4951 367.95 92.7593Z" fill="#DADADA"/>
<path d="M856.806 435.334C850.194 364.762 822.893 311.197 752.148 271.909C731.283 260.324 705.163 254.645 692.654 234.312C680.236 214.109 684.847 188.308 682.388 164.709C676.058 104.161 618.319 57.3401 557.892 50.9347C497.466 44.5293 437.349 71.9441 391.451 111.835C357.007 141.783 326.839 179.979 283.445 193.998C211.888 217.111 134.025 165.548 60.5899 181.716C21.0747 190.419 -12.0786 218.136 -36.2885 250.611C-76.799 304.957 -86.8923 373.672 -74.506 440.354C-67.729 476.831 -51.1507 513.797 -27.3803 542.178L824.082 540.395C848.974 515.471 859.641 465.592 856.806 435.334Z" fill="#F6F5F5"/>
<path d="M246.751 163.334C283.086 163.334 312.541 133.825 312.541 97.424C312.541 61.0227 283.086 31.5137 246.751 31.5137C210.417 31.5137 180.962 61.0227 180.962 97.424C180.962 133.825 210.417 163.334 246.751 163.334Z" fill="#F6F5F5"/>
<path d="M375.691 57.9463C386.339 47.2787 386.339 29.983 375.691 19.3154C365.043 8.64781 347.779 8.64782 337.131 19.3154C326.483 29.983 326.483 47.2787 337.131 57.9463C347.779 68.6139 365.043 68.6139 375.691 57.9463Z" fill="#F6F5F5"/>
<path d="M792.978 248.563C803.626 237.896 803.626 220.6 792.978 209.933C782.33 199.265 765.066 199.265 754.418 209.933C743.77 220.6 743.77 237.896 754.418 248.563C765.066 259.231 782.33 259.231 792.978 248.563Z" fill="#F6F5F5"/>
<path d="M852.72 541.422L851.152 540.587C883.134 480.191 886.521 415.267 860.443 362.463C833.012 306.95 777.062 269.6 702.868 257.293L703.16 255.531C777.935 267.93 834.355 305.626 862.036 361.667C888.374 414.996 884.977 480.511 852.72 541.422Z" fill="#DADADA"/>
<path d="M-22.4067 543.984C-60.9302 502.409 -86.3534 452.378 -95.9086 399.222C-104.817 349.741 -99.0738 300.644 -79.6995 260.975C-49.7994 199.691 8.08784 168.111 79.1034 174.323L78.9486 176.085C8.69273 169.951 -48.5579 201.171 -78.0994 261.757C-97.2943 301.088 -102.999 349.794 -94.1573 398.905C-84.6618 451.709 -59.3828 501.458 -21.0879 542.776L-22.4067 543.984Z" fill="#DADADA"/>
<path d="M229.563 413.041H0.768066V542.068H229.563V413.041Z" fill="#E28B6D"/>
<path opacity="0.5" d="M82.7456 413.041H0.768066V542.068H82.7456V413.041Z" fill="#B25834"/>
<path opacity="0.3" d="M126.133 413.041V444.473H147.473V413.041H126.133Z" fill="white"/>
<path d="M562.309 272.473H184.372V542.068H562.309V272.473Z" fill="#043B60"/>
<path d="M599.109 177.159H529.191V113.225C529.162 107.031 531.591 101.079 535.943 96.6788C540.295 92.2785 546.214 89.7905 552.397 89.762C558.58 89.7335 564.521 92.1668 568.913 96.5268C573.305 100.887 575.788 106.816 575.817 113.01V113.225L575.799 153.807C575.799 154.004 575.799 154.215 575.817 154.413V155.642L575.887 155.607C576.335 161.47 578.976 166.947 583.281 170.943C587.587 174.939 593.24 177.159 599.109 177.159Z" fill="#80CCFF"/>
<path d="M622.407 139.693V153.822C622.412 159.859 620.08 165.663 615.903 170.014C611.726 174.365 606.028 176.925 600.006 177.156C593.984 177.387 588.107 175.271 583.61 171.252C579.113 167.233 576.346 161.624 575.89 155.605L622.407 139.693Z" fill="#C3E6FD"/>
<path d="M552.505 89.8672C552.006 89.8672 551.528 89.8848 551.046 89.92C550.726 89.92 550.423 89.9553 550.124 89.9905C549.825 90.0257 549.463 90.0645 549.126 90.1173C548.932 90.1173 548.735 90.1702 548.542 90.2054C548.292 90.2407 548.042 90.2935 547.81 90.3499C547.459 90.4203 547.107 90.4908 546.755 90.5789C546.256 90.7057 545.76 90.8467 545.261 91.0263C545.011 91.0968 544.765 91.1849 544.533 91.273C544.3 91.3611 544.051 91.4527 543.829 91.5408C543.496 91.6659 543.169 91.8094 542.852 91.9706C542.559 92.0909 542.274 92.2274 541.997 92.3793C541.927 92.4145 541.835 92.4498 541.747 92.5026C541.498 92.6294 541.248 92.7704 541.002 92.9148C540.022 93.4618 539.088 94.0875 538.209 94.7857C537.96 94.9795 537.692 95.1944 537.46 95.3882C537.228 95.582 536.929 95.8533 536.662 96.0928C536.395 96.3324 536.145 96.5896 535.899 96.8398C535.199 97.5514 534.544 98.3069 533.94 99.1017C533.673 99.4541 533.426 99.8064 533.177 100.159C532.393 101.353 531.709 102.609 531.13 103.915C530.989 104.235 530.866 104.577 530.722 104.915C530.344 105.939 530.03 106.985 529.779 108.047C529.709 108.424 529.639 108.78 529.565 109.136C529.442 109.865 529.336 110.616 529.284 111.363V438.973H217.618V126.28C217.617 121.498 218.557 116.763 220.383 112.345C222.21 107.927 224.887 103.913 228.262 100.531C231.637 97.15 235.644 94.4678 240.054 92.638C244.464 90.8083 249.191 89.8667 253.964 89.8672H552.505Z" fill="#C3E6FD"/>
<path d="M490.959 123.25H254.458V135.719H490.959V123.25Z" fill="#80CCFF"/>
<path d="M472.633 159.77H254.458V172.238H472.633V159.77Z" fill="#80CCFF"/>
<path d="M461.133 196.291H254.458V208.76H461.133V196.291Z" fill="#80CCFF"/>
<path d="M490.959 232.811H254.458V245.28H490.959V232.811Z" fill="#80CCFF"/>
<path d="M474.068 269.777H345.851V282.246H474.068V269.777Z" fill="#80CCFF"/>
<path d="M371.659 339.798C370.252 339.798 368.94 339.316 368.047 338.083C366.95 336.561 367.027 334.478 367.077 333.101L368.286 300.873L370.045 300.94L368.838 333.164C368.782 334.665 368.789 336.092 369.468 337.04C370.98 339.129 374.617 337.322 375.331 336.938C378.911 335.014 381.482 331.392 383.968 327.89C386.732 324.014 389.595 319.973 393.914 318.081C396.481 316.957 398.366 318.606 399.892 319.924C400.754 320.67 401.566 321.375 402.428 321.632C404.689 322.298 406.94 321.713 409.321 321.09C411.431 320.54 413.608 319.962 415.848 320.311C417.895 320.625 419.548 321.442 421.151 322.231C423.511 323.401 425.558 324.412 428.509 323.693C432.581 322.71 436.365 320.389 440.023 318.144C441.078 317.492 442.133 316.841 443.213 316.221C447.324 313.828 453.503 310.809 459.654 312.222L459.256 313.959C453.71 312.687 447.953 315.519 444.102 317.76C443.047 318.377 441.992 319.018 440.937 319.663C437.16 321.981 433.253 324.377 428.91 325.427C425.326 326.29 422.79 325.043 420.343 323.831C418.866 323.098 417.339 322.344 415.563 322.069C413.682 321.784 411.776 322.281 409.753 322.809C407.239 323.468 404.65 324.148 401.904 323.338C400.676 322.985 399.678 322.104 398.711 321.266C397.124 319.888 396.08 319.078 394.617 319.709C390.748 321.403 388.153 325.053 385.41 328.922C382.804 332.586 380.11 336.381 376.164 338.502C374.787 339.287 373.242 339.731 371.659 339.798Z" fill="#102048"/>
<path opacity="0.3" d="M529.284 283.754V438.973H217.618V270.242L314.974 351.401C320.345 355.89 327.385 357.599 334.317 356.619C336.348 356.332 338.4 356.214 340.45 356.267L406.813 358.138C409.099 358.21 411.373 358.49 413.608 358.976C420.487 360.474 427.675 359.1 433.362 354.896L529.284 283.754Z" fill="#86A7FF"/>
<path d="M326.479 384.234L323.884 387.12L206.594 517.419L184.381 542.075V272.465L326.479 384.234Z" fill="#064F80"/>
<path d="M562.311 272.473L420.21 384.235L562.311 542.068V272.473Z" fill="#064F80"/>
<path d="M323.876 387.124L206.593 517.419L184.384 522.32V474.403C243.01 432.307 308.785 383.502 323.813 382.445L323.876 387.124Z" fill="#043B60"/>
<path d="M422.811 387.124L540.101 517.419L562.314 522.32V474.403C503.684 432.307 437.909 383.502 422.885 382.445L422.811 387.124Z" fill="#043B60"/>
<path d="M562.316 542.067H184.372L184.442 506.602L314.674 388.24C321.512 382.027 330.413 378.587 339.644 378.59H406.035C415.124 378.591 423.897 381.929 430.695 387.972L562.668 505.369L562.316 542.067Z" fill="#064F80"/>
<path opacity="0.4" d="M583.09 523.019C608.437 497.626 608.437 456.456 583.09 431.063C557.744 405.67 516.65 405.67 491.303 431.063C465.957 456.456 465.957 497.626 491.303 523.019C516.65 548.412 557.744 548.412 583.09 523.019Z" fill="#5B4DAD"/>
<path d="M602.648 523.023C627.995 497.63 627.995 456.46 602.648 431.067C577.302 405.674 536.208 405.674 510.861 431.067C485.515 456.46 485.515 497.63 510.861 523.023C536.208 548.416 577.302 548.416 602.648 523.023Z" fill="#EA4B22"/>
<path d="M555.365 512.279C553.829 512.279 552.311 511.956 550.908 511.33C549.505 510.705 548.248 509.792 547.22 508.65L524.258 483.25C523.788 482.73 523.425 482.122 523.189 481.461C522.953 480.8 522.849 480.099 522.884 479.398C522.919 478.697 523.091 478.009 523.39 477.375C523.69 476.74 524.112 476.171 524.631 475.7C525.151 475.229 525.757 474.864 526.417 474.628C527.077 474.392 527.777 474.288 528.477 474.323C529.177 474.357 529.863 474.53 530.496 474.83C531.129 475.131 531.697 475.553 532.168 476.073L555.129 501.476C555.166 501.521 555.215 501.554 555.269 501.573C555.324 501.591 555.382 501.595 555.439 501.582C555.496 501.577 555.551 501.555 555.597 501.52C555.642 501.484 555.677 501.436 555.695 501.381L580.412 445.008C580.694 444.366 581.099 443.785 581.605 443.299C582.11 442.813 582.707 442.432 583.36 442.177C584.012 441.922 584.709 441.799 585.409 441.814C586.11 441.829 586.8 441.981 587.442 442.264C588.083 442.546 588.663 442.952 589.148 443.459C589.633 443.965 590.013 444.563 590.268 445.217C590.522 445.871 590.646 446.569 590.631 447.27C590.616 447.972 590.463 448.664 590.182 449.307L565.465 505.68C564.6 507.641 563.185 509.308 561.392 510.479C559.599 511.651 557.505 512.276 555.365 512.279Z" fill="white"/>
<path d="M106.276 377.11L108.351 413.033H163.474L138.579 392.549L137.098 377.11L127.318 367.607L106.276 377.11Z" fill="#102048"/>
<path d="M40.1865 361.076L31.2959 393.142L76.642 413.034L63.3027 382.752L66.5628 369.092L55.3019 354.248L40.1865 361.076Z" fill="#102048"/>
<path d="M57.6702 201.932C57.6702 201.932 52.3351 224.209 54.1322 273.183C54.1322 273.183 38.426 328.112 40.202 361.068L66.5783 369.087C80.3995 338.326 91.7624 308.73 97.8079 281.667C100.819 272.097 100.761 261.822 97.6426 252.287L84.9362 213.513L57.6702 201.932Z" fill="#1F3C88"/>
<path d="M141.278 274.213L137.1 377.122H106.281C98.2455 343.612 95.2597 315.003 94.2082 295.832C93.336 279.675 93.8354 270.236 93.8354 270.236C74.025 246.809 62.2541 229.883 55.4069 217.361C45.2362 198.78 45.8586 189.837 46.9981 183.538C48.5279 175.145 53.9685 164.279 57.6506 157.599C59.7115 153.893 61.2237 151.469 61.2237 151.469L112.791 168.109L106.64 190.387L106.535 190.739C106.079 192.4 105.956 194.135 106.173 195.844C106.39 197.553 106.942 199.202 107.797 200.696L134.845 247.887C139.422 255.881 141.651 265.006 141.278 274.213Z" fill="#3A6BEA"/>
<path d="M125.244 377.781H125.202C125.026 377.77 124.862 377.689 124.745 377.557C124.628 377.425 124.569 377.252 124.579 377.076C124.643 376.044 131.001 273.731 123.454 257.446C122.128 254.589 119.881 250.935 117.275 246.71C106.373 229.02 88.1518 199.417 91.9781 156.75C92.002 156.58 92.0902 156.426 92.2245 156.319C92.3588 156.212 92.5289 156.161 92.6997 156.177C92.8704 156.192 93.0287 156.272 93.1419 156.402C93.255 156.531 93.3143 156.698 93.3075 156.87C89.5198 199.093 107.607 228.46 118.411 246.009C121.038 250.269 123.303 253.954 124.664 256.886C132.351 273.473 126.176 372.936 125.909 377.161C125.897 377.329 125.822 377.487 125.698 377.602C125.575 377.717 125.413 377.781 125.244 377.781Z" fill="#1F3C88"/>
<path opacity="0.6" d="M112.79 168.091L106.639 190.386C82.9184 180.609 65.8441 165.723 57.6499 157.591C59.7108 153.885 61.223 151.461 61.223 151.461L112.79 168.091Z" fill="#1F3C88"/>
<path d="M121.507 393.99L120.983 385.066L137.977 384.756C138.065 384.749 138.155 384.761 138.238 384.792C138.322 384.822 138.398 384.87 138.462 384.931C138.526 384.993 138.577 385.068 138.61 385.151C138.643 385.233 138.659 385.322 138.656 385.411C138.657 385.499 138.642 385.586 138.61 385.668C138.578 385.749 138.53 385.824 138.47 385.887C138.409 385.95 138.336 386.001 138.256 386.036C138.175 386.071 138.089 386.09 138.001 386.091L122.397 386.376L122.749 392.595L138.539 391.89C138.63 391.881 138.721 391.89 138.808 391.918C138.895 391.945 138.975 391.99 139.044 392.049C139.113 392.109 139.169 392.182 139.209 392.264C139.248 392.346 139.271 392.435 139.275 392.526C139.279 392.617 139.265 392.708 139.232 392.793C139.2 392.879 139.151 392.956 139.088 393.022C139.024 393.087 138.948 393.139 138.864 393.174C138.78 393.209 138.69 393.227 138.599 393.226L121.507 393.99Z" fill="white"/>
<path d="M63.3017 383.42C63.2336 383.42 63.166 383.409 63.1012 383.389L48.4712 378.71L52.1217 370.18L65.0109 374.848C65.0972 374.875 65.1772 374.919 65.246 374.978C65.3148 375.036 65.3711 375.108 65.4114 375.189C65.4516 375.27 65.4751 375.359 65.4803 375.449C65.4855 375.539 65.4723 375.63 65.4416 375.715C65.4109 375.8 65.3633 375.878 65.3016 375.944C65.2399 376.01 65.1655 376.063 65.0829 376.1C65.0002 376.137 64.911 376.156 64.8206 376.157C64.7303 376.158 64.6407 376.141 64.5572 376.106L52.8496 371.878L50.2648 377.885L63.4951 382.113C63.649 382.159 63.781 382.26 63.8667 382.396C63.9523 382.532 63.9858 382.695 63.9609 382.854C63.936 383.013 63.8544 383.158 63.7313 383.261C63.6082 383.365 63.4518 383.42 63.2911 383.417L63.3017 383.42Z" fill="white"/>
<path d="M131.018 69.5028L130.054 73.1036L126.214 87.6583L123.619 97.4214L100.502 89.0993L111.651 66.2437L117.095 58.3691L131.018 69.5028Z" fill="#F9B384"/>
<path d="M130.06 73.1034L126.23 87.6582C119.421 80.2592 120.807 71 120.807 71L130.06 73.1034Z" fill="#102048"/>
<path d="M148.361 49.0241C148.361 49.0241 146.881 81.9811 130.285 79.1589C113.689 76.3367 113.984 47.9847 113.984 47.9847L135.62 40.998L148.361 49.0241Z" fill="#F9B384"/>
<path d="M125.319 53.9966C125.319 53.9966 134.84 44.163 148.362 49.0252C148.362 49.0252 154.34 51.5479 156.662 46.6505C156.662 46.6505 137.544 21.2616 122.548 33.5121C122.548 33.5121 95.6549 39.4101 111.646 66.2435L125.319 53.9966Z" fill="#102048"/>
<path d="M126.53 60.5276C129.315 60.0827 131.16 57.1299 130.652 53.9324C130.143 50.7348 127.472 48.5034 124.687 48.9483C121.902 49.3932 120.057 52.346 120.566 55.5435C121.075 58.7411 123.745 60.9725 126.53 60.5276Z" fill="#F9B384"/>
<path d="M148.902 66.1144C149.164 64.495 148.066 62.97 146.449 62.708C144.833 62.446 143.311 63.5463 143.049 65.1656C142.788 66.785 143.886 68.31 145.502 68.572C147.119 68.834 148.641 67.7337 148.902 66.1144Z" fill="#F9B384"/>
<path opacity="0.4" d="M134.503 67.7301C137.327 67.7301 139.617 65.4365 139.617 62.6073C139.617 59.778 137.327 57.4844 134.503 57.4844C131.679 57.4844 129.39 59.778 129.39 62.6073C129.39 65.4365 131.679 67.7301 134.503 67.7301Z" fill="#EB5D60"/>
<path d="M230.455 115.911C230.455 115.911 233.515 120.117 227.29 124.321C227.29 124.321 232.252 127.724 215.146 133.333C213.243 133.957 211.074 134.598 208.584 135.275L201.701 110.301C201.701 110.301 232.234 99.9676 233.001 103.28C233.768 106.591 227.543 111.066 227.543 111.066C227.543 111.066 238.477 108.374 230.455 115.911Z" fill="#F9B384"/>
<path d="M201.702 110.294L165.549 114.938C165.549 114.938 113.535 77.8234 102.869 81.3855C92.2021 84.9475 56.1896 142.846 56.1896 142.846C56.1896 142.846 46.3952 145.964 46.8524 149.974C47.3096 153.983 110.426 186.788 118.87 178.477C124.184 173.248 130.282 131.564 130.282 131.564L153.286 141.151C160.107 143.992 167.642 144.635 174.844 142.99L208.574 135.281L201.702 110.294Z" fill="#FBC343"/>
<g opacity="0.8">
<path d="M199.419 132.604C198.174 127.742 196.957 122.996 195.86 118.434C195.554 117.162 195.273 115.865 194.991 114.558C194.752 113.455 194.506 112.349 194.246 111.246L192.917 111.419C193.184 112.557 193.441 113.702 193.687 114.84C193.972 116.154 194.256 117.465 194.566 118.744C195.67 123.324 196.883 128.063 198.125 132.932C198.505 134.419 198.885 135.909 199.264 137.403L200.566 137.107C200.181 135.609 199.799 134.108 199.419 132.604Z" fill="white"/>
<path d="M137.525 96.4099L135.879 96.7623C125.86 98.8516 115.13 100.543 104.66 98.767C99.5761 97.9335 94.6983 96.1324 90.2904 93.4609C90.0091 93.8133 89.7277 94.1656 89.4429 94.5179C94.0318 97.3246 99.119 99.2161 104.425 100.088C115.123 101.899 125.99 100.19 136.136 98.0729C137.142 97.8615 138.148 97.6396 139.153 97.4211L137.525 96.4099Z" fill="white"/>
<path d="M123.675 160.579C120.665 160.83 117.552 161.09 114.531 160.805C105.651 159.977 97.7738 154.442 92.6216 150.351C90.7928 148.9 89.0063 147.395 87.2162 145.887C82.6654 142.054 77.9599 138.094 72.6635 135.138C69.7709 133.513 66.6744 132.283 63.4564 131.48C63.1927 131.886 62.9465 132.263 62.6968 132.654C65.9595 133.426 69.0971 134.656 72.0164 136.307C77.2002 139.196 81.8636 143.118 86.3581 146.909C88.1552 148.424 89.9558 149.939 91.7916 151.398C97.0669 155.594 105.156 161.263 114.408 162.137C117.549 162.429 120.739 162.165 123.788 161.911L124.702 161.848C124.804 161.397 124.906 160.946 125.012 160.488C124.562 160.523 124.118 160.544 123.675 160.579Z" fill="white"/>
</g>
<path d="M130.284 131.564L120.919 127.449C120.919 127.449 123.31 142.356 127.826 144.484L130.284 131.564Z" fill="#E49B31"/>
<path d="M215.128 133.333C213.226 133.956 211.056 134.597 208.566 135.274L201.701 110.301L215.128 133.333Z" fill="#E28B6D"/>
<path d="M626.548 284.029L648.332 293.827L664.565 240.294L643.303 234.695C637.683 247.281 631.95 263.386 626.548 284.029Z" fill="#E28B6D"/>
<path d="M643.302 234.696L664.565 240.295L682.711 190.355C682.711 190.355 660.787 187.385 643.302 234.696Z" fill="#102048"/>
<path d="M617.51 265.471L601.804 308.818L660.483 331.385L672.338 286.255L617.51 265.471Z" fill="#102048"/>
<path d="M636.815 323.239C636.39 324.465 632.877 325.931 630.622 323.943C626.23 323.165 623.265 322.608 620.525 319.575C618.064 318.627 616.959 315.946 618.085 313.684C620.241 309.353 623.582 303.251 625.168 303.491C627.162 303.794 625.72 309.959 625.72 309.959C625.72 309.959 629.04 302.138 632.194 303.17C633.601 303.635 630.218 311.08 629.877 311.866C630.408 311.161 634.624 305.471 636.239 306.665C637.853 307.86 633.921 314.593 633.503 315.304C633.96 314.734 637.663 310.262 639.481 311.742C640.248 312.376 639.02 316.918 636.815 323.239Z" fill="#E28B6D"/>
<path d="M747.022 472.418C747.022 472.418 775.473 469.3 787.466 443.023L755.906 444.806L747.022 472.418Z" fill="#102048"/>
<path d="M778.437 443.32L751.171 460.246L763.438 478.296L789.729 460.348L778.437 443.32Z" fill="#E28B6D"/>
<path d="M806.592 485.779L789.729 460.348L763.437 478.295L767.914 484.887L765.248 520.071L806.592 485.779Z" fill="#102048"/>
<path d="M781.204 483.357L767.854 484.037L767.944 485.814L781.294 485.134L781.204 483.357Z" fill="white"/>
<path d="M700.788 491.42L670.856 489.637V513.919L703.057 511.869L700.788 491.42Z" fill="#E28B6D"/>
<path d="M670.857 513.92V519.627L648.332 542.191H706.419L703.057 511.869L670.857 513.92Z" fill="#102048"/>
<path d="M670.608 519.267L669.714 520.809L682.47 528.228L683.363 526.686L670.608 519.267Z" fill="white"/>
<path d="M699.279 336.406C698.818 347.448 698.73 359.099 698.927 370.839C699.106 381.028 699.479 391.274 700.014 401.322C702.574 451.149 708.496 495.275 708.496 495.275L662.261 501.225C640.337 348.018 654.562 283.281 654.562 283.281L674.707 279.173L692.593 275.519L712.639 271.422C712.39 271.799 712.14 272.19 711.908 272.599C708.852 277.605 706.432 284.268 704.565 292.178C701.646 304.481 700.01 319.765 699.279 336.406Z" fill="#3A6BEA"/>
<path d="M700.009 401.322C680.624 360.043 687.897 327.23 687.897 327.23L699.278 336.391C698.817 347.433 698.729 359.085 698.926 370.824C699.102 381.028 699.475 391.291 700.009 401.322Z" fill="#1F3C88"/>
<path d="M787.476 443.024C765.25 451.48 747.032 472.419 747.032 472.419C727.848 438.447 711.47 404.331 698.932 370.838C688.494 342.976 680.726 315.544 676.224 288.999C675.676 285.701 675.169 282.425 674.716 279.166C674.659 278.863 674.606 278.542 674.571 278.239L692.602 275.512L711.945 272.591L721.708 271.111C722.763 277.348 724.169 283.869 725.85 290.585C742.65 357.64 787.476 443.024 787.476 443.024Z" fill="#3A6BEA"/>
<g opacity="0.8">
<path d="M748.36 357.612C748.076 356.908 747.794 356.203 747.512 355.498C743.872 353.162 740.384 350.594 737.384 347.511C728.999 338.897 724.762 326.139 726.323 314.212C726.816 310.523 727.831 306.922 729.337 303.519C729.147 302.867 728.964 302.223 728.778 301.574C726.863 305.5 725.586 309.707 724.997 314.036C723.39 326.368 727.769 339.545 736.427 348.445C739.958 352.063 744.09 354.973 748.36 357.612Z" fill="white"/>
<path d="M771.627 410.814C771.441 410.419 771.254 410.025 771.068 409.623C766.144 411.631 760.285 411.977 754.187 412.325C748.029 412.678 741.664 413.03 736.083 415.218C730.41 417.434 726.01 421.387 722.813 426.235C723.042 426.704 723.274 427.176 723.517 427.645C726.601 422.712 730.923 418.671 736.578 416.458C741.966 414.344 748.226 413.992 754.275 413.64C760.324 413.287 766.422 412.953 771.627 410.814Z" fill="white"/>
<path d="M665.112 405.74C679.9 413.262 691.879 425.872 702.471 437.7C702.41 436.969 702.351 436.236 702.292 435.501C691.91 423.97 680.168 411.895 665.717 404.549C661.241 402.262 656.506 400.525 651.614 399.377C651.642 399.842 651.671 400.307 651.702 400.786C656.35 401.907 660.851 403.569 665.112 405.74Z" fill="white"/>
<path d="M706.014 474.463C702.314 475.347 698.276 475.125 694.925 474.34C691.447 473.526 688.035 472.173 684.726 470.873C681.209 469.481 677.58 468.054 673.824 467.219C668.538 466.099 663.069 466.187 657.822 467.476C657.875 467.92 657.931 468.371 657.988 468.815C663.082 467.537 668.4 467.437 673.539 468.523C677.207 469.326 680.787 470.742 684.248 472.113C687.592 473.434 691.046 474.805 694.619 475.636C698.087 476.447 702.279 476.693 706.158 475.788C706.112 475.365 706.063 474.91 706.014 474.463Z" fill="white"/>
<path d="M661.103 349.044C661.589 358.373 657.365 367.552 650.416 373.619C650.433 374.182 650.454 374.764 650.475 375.334C658.212 369.021 662.96 359.074 662.433 348.973C661.965 339.992 657.347 331.579 650.475 325.977C650.45 326.531 650.429 327.091 650.412 327.657C656.57 333.013 660.671 340.778 661.103 349.044Z" fill="white"/>
</g>
<path opacity="0.4" d="M725.827 290.585C718.812 291.799 711.695 292.33 704.578 292.171C695.049 291.952 685.558 290.891 676.215 289C663.308 286.453 654.558 283.282 654.558 283.282L674.706 279.173C674.65 278.87 674.597 278.55 674.562 278.247L692.593 275.52L712.639 271.422C712.389 271.799 712.139 272.19 711.907 272.599L721.67 271.119C722.736 277.348 724.139 283.87 725.827 290.585Z" fill="#1F3C88"/>
<path d="M698.921 371.73C698.738 371.73 698.559 371.674 698.409 371.568C698.259 371.462 698.145 371.312 698.084 371.138L685.241 334.954L669.802 325.617C669.6 325.495 669.455 325.297 669.398 325.067C669.342 324.838 669.379 324.595 669.501 324.393C669.623 324.191 669.821 324.045 670.05 323.989C670.279 323.932 670.521 323.969 670.723 324.092L686.704 333.756L699.758 370.543C699.807 370.677 699.823 370.821 699.804 370.963C699.785 371.104 699.732 371.239 699.65 371.356C699.568 371.473 699.458 371.568 699.332 371.633C699.205 371.698 699.064 371.731 698.921 371.73Z" fill="#1F3C88"/>
<path d="M729.24 278.026C699.456 289.374 648.332 282.997 648.332 282.997C650.414 261.315 650.554 197.183 683.897 189.168L698.798 190.736C706.606 193.798 712.704 205.484 717.29 219.363C720.047 227.628 722.252 236.68 723.996 245.157C727.657 262.882 729.24 278.026 729.24 278.026Z" fill="#1F3C88"/>
<path d="M723.997 245.156C709.964 236.982 707.014 218.559 707.014 218.559L717.29 219.362C720.047 227.628 722.252 236.679 723.997 245.156Z" fill="#102048"/>
<path d="M698.79 190.739L696.789 219.465L727.385 235.841L733.589 206.062C706.681 190.14 698.79 190.739 698.79 190.739Z" fill="#1F3C88"/>
<path d="M757.086 230.199C755.019 233.344 752.145 235.873 748.766 237.521C745.815 238.957 742.567 239.672 739.287 239.607C736.007 239.543 732.789 238.699 729.898 237.147L727.39 235.812L733.587 206.054C735.24 207.051 736.967 208.084 738.795 209.208C738.795 209.208 763.016 174.915 764.795 175.592C766.395 176.18 763.673 181.486 763.121 182.54C764.176 180.99 772.033 169.444 774.129 170.247C775.799 170.871 773.686 176.001 773.426 176.624C773.904 175.92 778.121 169.711 780.663 171.209C781.838 171.914 777.301 178.636 776.858 179.312C777.41 178.78 782.439 173.897 783.684 175.359C784.929 176.821 780.076 182.663 779.524 183.322C780.023 182.878 784.324 179.119 785.696 180.937C787.493 183.269 765.481 217.385 757.086 230.199Z" fill="#E28B6D"/>
<path opacity="0.4" d="M754.613 233.294C752.931 235.041 750.95 236.473 748.765 237.522C745.554 239.084 741.995 239.791 738.432 239.572C738.275 238.925 738.197 238.262 738.2 237.596C738.2 235.653 738.843 233.766 740.027 232.228C741.211 230.69 742.871 229.589 744.746 229.096C746.622 228.603 748.607 228.747 750.392 229.505C752.177 230.262 753.662 231.591 754.613 233.283V233.294Z" fill="#EB5D60"/>
<path d="M680.379 276.962C667.233 276.962 655.458 276.12 649.68 275.626L648.977 275.567C648.809 275.552 648.652 275.475 648.538 275.349C648.425 275.224 648.363 275.06 648.365 274.891C648.368 274.721 648.434 274.559 648.55 274.437C648.667 274.315 648.826 274.241 648.995 274.231C649.04 274.231 649.311 274.252 649.786 274.295C662.953 275.426 707.462 278.375 727.621 268.95C727.779 268.887 727.956 268.887 728.114 268.95C728.273 269.013 728.401 269.134 728.473 269.289C728.545 269.444 728.555 269.621 728.502 269.783C728.448 269.946 728.334 270.081 728.183 270.162C716.655 275.552 697.365 276.962 680.379 276.962Z" fill="#86A7FF"/>
<path d="M687.358 209.413C680.286 209.413 677.159 204.734 677.113 204.663C677.017 204.515 676.984 204.334 677.021 204.161C677.058 203.988 677.162 203.836 677.31 203.74C677.459 203.644 677.639 203.611 677.812 203.648C677.985 203.685 678.136 203.789 678.232 203.937C678.464 204.29 684.045 212.506 698.102 204.903C698.179 204.861 698.263 204.835 698.35 204.826C698.437 204.817 698.525 204.825 698.609 204.85C698.692 204.875 698.77 204.917 698.838 204.972C698.906 205.027 698.962 205.095 699.004 205.172C699.046 205.249 699.072 205.334 699.08 205.421C699.089 205.508 699.081 205.596 699.056 205.68C699.031 205.764 698.99 205.842 698.935 205.91C698.88 205.978 698.812 206.034 698.735 206.076C694.17 208.553 690.397 209.413 687.358 209.413Z" fill="#86A7FF"/>
<path d="M710.765 134.884C714.496 132.77 719.536 132.59 722.849 135.313C724.576 136.723 725.683 138.77 727.287 140.327C730.723 143.671 736.079 144.513 739.357 147.997C741.899 150.689 742.807 154.618 742.554 158.313C742.3 162.009 741.003 165.55 739.624 168.989C737.658 173.901 735.404 178.89 731.461 182.43C729.963 183.78 728.205 184.897 726.236 185.362C724.266 185.827 722.075 185.524 720.475 184.305C718.787 183.001 717.953 180.824 717.806 178.696C717.658 176.568 718.112 174.447 718.562 172.354C719.102 172.687 719.724 172.861 720.358 172.855C720.992 172.85 721.612 172.666 722.146 172.323C722.68 171.981 723.107 171.495 723.379 170.921C723.65 170.347 723.754 169.708 723.679 169.077C723.426 166.963 721.333 165.614 719.459 164.585L710.142 159.473C708.324 158.472 706.467 157.443 705.099 155.886C702.813 153.275 700.978 147.543 702.49 144.259C704.167 140.595 707.255 136.86 710.765 134.884Z" fill="#FBB81D"/>
<path d="M673.898 152.201C673.898 152.201 673.704 131.093 699.869 136.657C704.266 137.585 708.205 140.013 711.014 143.527C715.273 148.812 718.002 171.009 705.83 177.153C690.567 184.862 673.898 152.201 673.898 152.201Z" fill="#FBC343"/>
<path d="M701.005 170.016L700.4 191.215C700.323 193.811 699.274 196.284 697.463 198.142C695.651 200 693.209 201.108 690.62 201.246C690.441 201.246 690.268 201.246 690.085 201.246C688.658 201.243 687.246 200.944 685.94 200.368C684.634 199.791 683.461 198.95 682.495 197.896C681.53 196.843 680.793 195.6 680.33 194.247C679.868 192.894 679.691 191.46 679.809 190.035L679.844 189.683L681.23 173.578L682.988 173.257L701.005 170.016Z" fill="#E28B6D"/>
<path d="M692.041 177.586C689.558 182.955 685.228 187.248 679.844 189.681L681.23 173.576L682.988 173.256L692.041 177.586Z" fill="#102048"/>
<path d="M673.895 152.2C673.895 152.2 667.213 180.034 681.227 181.373C695.242 182.712 701.01 170.014 701.01 170.014L702.789 154.205L694.12 141.732L680.338 145.96L673.895 152.2Z" fill="#E28B6D"/>
<path d="M673.897 152.2C673.897 152.2 686.78 144.96 691.457 154.666C694.717 161.421 699.679 165.134 704.571 162.907C709.463 160.681 705.458 144.646 705.458 144.646L687.233 139.971L676.331 146.203L673.897 152.2Z" fill="#FBC343"/>
<path d="M705.197 166.022C706.878 163.105 706.29 159.611 703.883 158.219C701.475 156.827 698.161 158.063 696.48 160.98C694.799 163.897 695.388 167.39 697.795 168.783C700.202 170.175 703.516 168.939 705.197 166.022Z" fill="#E28B6D"/>
<path d="M699.474 165.935H699.442C699.384 165.931 699.327 165.915 699.275 165.889C699.222 165.863 699.176 165.827 699.138 165.783C699.099 165.738 699.07 165.687 699.052 165.631C699.033 165.576 699.026 165.517 699.031 165.459C699.143 163.877 700.142 160.879 703.103 160.879C703.165 160.873 703.227 160.881 703.286 160.901C703.344 160.92 703.398 160.952 703.444 160.994C703.49 161.036 703.526 161.087 703.551 161.144C703.576 161.201 703.589 161.262 703.589 161.324C703.589 161.387 703.576 161.448 703.551 161.505C703.526 161.562 703.49 161.613 703.444 161.655C703.398 161.696 703.344 161.728 703.286 161.748C703.227 161.768 703.165 161.776 703.103 161.77C700.23 161.77 699.938 165.36 699.917 165.512C699.91 165.626 699.861 165.733 699.779 165.811C699.696 165.89 699.587 165.934 699.474 165.935Z" fill="#102048"/>
<path d="M676.016 162.199C676.016 162.424 675.95 162.645 675.826 162.832C675.701 163.02 675.524 163.166 675.317 163.253C675.109 163.34 674.881 163.363 674.66 163.319C674.44 163.276 674.237 163.167 674.078 163.008C673.918 162.849 673.81 162.647 673.766 162.426C673.722 162.205 673.744 161.976 673.83 161.768C673.916 161.56 674.061 161.382 674.248 161.256C674.435 161.131 674.655 161.064 674.88 161.064C675.18 161.064 675.469 161.184 675.682 161.397C675.894 161.609 676.015 161.898 676.016 162.199Z" fill="#102048"/>
<path d="M683.563 163.37C684.258 163.37 684.822 162.806 684.822 162.109C684.822 161.412 684.258 160.848 683.563 160.848C682.867 160.848 682.304 161.412 682.304 162.109C682.304 162.806 682.867 163.37 683.563 163.37Z" fill="#102048"/>
<path d="M678.391 169.13C677.406 169.13 676.738 168.82 676.404 168.207C675.521 166.604 677.561 163.588 677.976 163.003C678.048 162.916 678.149 162.859 678.261 162.844C678.373 162.829 678.486 162.857 678.578 162.922C678.671 162.987 678.735 163.084 678.758 163.195C678.781 163.305 678.762 163.421 678.704 163.518C677.621 165.04 676.749 166.992 677.181 167.781C677.368 168.133 677.856 168.27 678.612 168.235H678.637C678.695 168.234 678.753 168.244 678.808 168.264C678.862 168.285 678.912 168.316 678.954 168.357C678.996 168.397 679.03 168.445 679.054 168.498C679.078 168.551 679.091 168.609 679.092 168.667C679.094 168.725 679.084 168.783 679.063 168.838C679.043 168.892 679.011 168.942 678.971 168.984C678.931 169.027 678.884 169.061 678.83 169.085C678.777 169.108 678.72 169.122 678.662 169.123C678.567 169.13 678.479 169.13 678.391 169.13Z" fill="#102048"/>
<path opacity="0.4" d="M691.39 170.882C693.418 170.04 694.381 167.711 693.541 165.68C692.701 163.648 690.376 162.684 688.348 163.525C686.321 164.367 685.358 166.696 686.198 168.727C687.037 170.759 689.362 171.723 691.39 170.882Z" fill="#EB5D60"/>
<path d="M678.943 172.985C678.214 172.994 677.493 172.839 676.832 172.53C676.728 172.476 676.649 172.382 676.614 172.269C676.579 172.156 676.59 172.034 676.644 171.93C676.699 171.825 676.793 171.746 676.905 171.711C677.018 171.676 677.139 171.686 677.244 171.741C677.346 171.794 679.741 172.974 682.227 170.684C682.27 170.644 682.32 170.613 682.375 170.592C682.43 170.572 682.489 170.562 682.547 170.565C682.606 170.567 682.663 170.581 682.716 170.606C682.77 170.63 682.817 170.666 682.857 170.709C682.896 170.752 682.927 170.803 682.947 170.858C682.967 170.914 682.975 170.972 682.972 171.031C682.969 171.089 682.955 171.147 682.93 171.2C682.904 171.253 682.869 171.3 682.825 171.339C681.79 172.367 680.4 172.957 678.943 172.985Z" fill="#102048"/>
<path d="M677.371 159.685C676.62 159.471 675.849 159.334 675.071 159.276C674.731 159.256 674.389 159.294 674.062 159.389C673.688 159.489 673.325 159.625 672.978 159.797L672.936 159.815C672.887 159.833 672.834 159.836 672.783 159.825C672.732 159.814 672.685 159.788 672.648 159.751C672.611 159.714 672.586 159.667 672.574 159.616C672.563 159.565 672.567 159.512 672.584 159.463C672.788 158.988 673.14 158.592 673.587 158.335C674.056 158.083 674.584 157.962 675.117 157.983C675.611 158.01 676.095 158.14 676.536 158.366C676.977 158.592 677.365 158.908 677.677 159.293C677.71 159.337 677.729 159.391 677.732 159.446C677.734 159.501 677.72 159.556 677.69 159.603C677.661 159.649 677.618 159.686 677.567 159.708C677.516 159.729 677.46 159.735 677.406 159.723L677.371 159.685Z" fill="#102048"/>
<path d="M680.665 159.3C680.988 158.754 681.435 158.292 681.969 157.952C682.504 157.612 683.112 157.404 683.743 157.345C684.407 157.297 685.071 157.445 685.652 157.771C686.196 158.079 686.65 158.525 686.968 159.064C687.003 159.114 687.021 159.175 687.017 159.236C687.014 159.297 686.989 159.355 686.948 159.401C686.907 159.446 686.852 159.476 686.791 159.485C686.731 159.494 686.669 159.483 686.616 159.452H686.588C686.135 159.215 685.665 159.014 685.181 158.849C684.75 158.695 684.29 158.637 683.834 158.68C682.927 158.68 681.998 159.159 681.052 159.663H681.021C680.959 159.695 680.888 159.701 680.823 159.68C680.757 159.66 680.702 159.615 680.669 159.554C680.647 159.515 680.636 159.472 680.635 159.428C680.635 159.383 680.645 159.34 680.665 159.3Z" fill="#102048"/>
</svg>
